SplineFontDB: 3.0
FontName: Luna-LightItalic
FullName: Luna Light Italic
FamilyName: Luna Light
Weight: Light
Copyright: Copyright (c) 2013 - 2016, Juan Pablo del Peral [huertatipografica.com.ar], Cristiano Sobral [cssobral2013@gmail.com].
Version: 1.501;PS 001.000;hotconv 1.0.70;makeotf.lib2.5.58329 DEVELOPMENT
ItalicAngle: -7
UnderlinePosition: -326
UnderlineWidth: 59
Ascent: 1638
Descent: 410
sfntRevision: 0x00010000
LayerCount: 2
Layer: 0 1 "Back"  1
Layer: 1 1 "Fore"  0
XUID: [1021 633 1153022450 13563273]
FSType: 4
OS2Version: 3
OS2_WeightWidthSlopeOnly: 0
OS2_UseTypoMetrics: 1
CreationTime: 1386077766
ModificationTime: 1462129368
PfmFamily: 81
TTFWeight: 300
TTFWidth: 5
LineGap: 0
VLineGap: 0
Panose: 0 0 4 0 0 0 0 0 0 0
OS2TypoAscent: 1638
OS2TypoAOffset: 0
OS2TypoDescent: -410
OS2TypoDOffset: 0
OS2TypoLinegap: 0
OS2WinAscent: 2230
OS2WinAOffset: 0
OS2WinDescent: 651
OS2WinDOffset: 0
HheadAscent: 2230
HheadAOffset: 0
HheadDescent: -651
HheadDOffset: 0
OS2SubXSize: 1331
OS2SubYSize: 1229
OS2SubXOff: -18
OS2SubYOff: 154
OS2SupXSize: 1331
OS2SupYSize: 1229
OS2SupXOff: 88
OS2SupYOff: 717
OS2StrikeYSize: 59
OS2StrikeYPos: 559
OS2Vendor: 'UKWN'
OS2CodePages: 20000193.00000000
OS2UnicodeRanges: 20000007.00000000.00000000.00000000
Lookup: 1 0 0 "'aalt' Access All Alternates lookup 0"  {"'aalt' Access All Alternates lookup 0 subtable"  } ['aalt' ('DFLT' <'dflt' > 'grek' <'dflt' > 'latn' <'CAT ' 'ESP ' 'MOL ' 'NLD ' 'ROM ' 'TRK ' 'dflt' > ) ]
Lookup: 3 0 0 "'aalt' Access All Alternates lookup 1"  {"'aalt' Access All Alternates lookup 1 subtable"  } ['aalt' ('DFLT' <'dflt' > 'grek' <'dflt' > 'latn' <'CAT ' 'ESP ' 'MOL ' 'NLD ' 'ROM ' 'TRK ' 'dflt' > ) ]
Lookup: 6 0 0 "'locl' Localized Forms in Latin lookup 2"  {"'locl' Localized Forms in Latin lookup 2 contextual 0"  "'locl' Localized Forms in Latin lookup 2 contextual 1"  } ['locl' ('latn' <'CAT ' > ) ]

StartChar: exclam
Encoding: 33 33 4
Width: 589
GlyphClass: 2
Flags: W
LayerCount: 2
Fore
SplineSet
495 1506 m 1,0,-1
 336 479 l 1,1,-1
 263 475 l 1,2,-1
 250 490 l 1,3,-1
 384 1502 l 1,4,-1
 398 1515 l 1,5,-1
 484 1521 l 1,6,-1
 495 1506 l 1,0,-1
252 144 m 0,7,8
 285 144 285 144 304.5 123 c 128,-1,9
 324 102 324 102 324 69 c 0,10,11
 324 34 324 34 303 13.5 c 128,-1,12
 282 -7 282 -7 247 -7 c 0,13,14
 226 -7 226 -7 209.5 2 c 128,-1,15
 193 11 193 11 184.5 27.5 c 128,-1,16
 176 44 176 44 176 67 c 0,17,18
 176 89 176 89 185 106 c 128,-1,19
 194 123 194 123 211 133.5 c 128,-1,20
 228 144 228 144 252 144 c 0,7,8
EndSplineSet
EndChar

StartChar: quotedbl
Encoding: 34 34 5
Width: 580
GlyphClass: 2
Flags: W
LayerCount: 2
Fore
SplineSet
347 1460 m 1,0,-1
 259 1086 l 1,1,-1
 192 1076 l 1,2,-1
 185 1090 l 1,3,-1
 250 1464 l 1,4,-1
 338 1475 l 1,5,-1
 347 1460 l 1,0,-1
592 1460 m 1,6,-1
 507 1086 l 1,7,-1
 440 1076 l 1,8,-1
 431 1090 l 1,9,-1
 497 1464 l 1,10,-1
 585 1475 l 1,11,-1
 592 1460 l 1,6,-1
EndSplineSet
EndChar

StartChar: numbersign
Encoding: 35 35 6
Width: 1149
GlyphClass: 2
Flags: W
LayerCount: 2
Fore
SplineSet
815 857 m 1,0,-1
 745 572 l 1,1,-1
 1009 572 l 1,2,-1
 1018 560 l 1,3,-1
 1011 493 l 1,4,-1
 727 493 l 1,5,-1
 627 75 l 1,6,-1
 556 75 l 1,7,-1
 546 86 l 1,8,-1
 643 493 l 1,9,-1
 380 493 l 1,10,-1
 280 75 l 1,11,-1
 208 75 l 1,12,-1
 201 86 l 1,13,-1
 298 493 l 1,14,-1
 55 493 l 1,15,-1
 46 502 l 1,16,-1
 53 572 l 1,17,-1
 318 572 l 1,18,-1
 384 857 l 1,19,-1
 141 857 l 1,20,-1
 132 866 l 1,21,-1
 139 932 l 1,22,-1
 402 932 l 1,23,-1
 497 1331 l 1,24,-1
 570 1331 l 1,25,-1
 576 1314 l 1,26,-1
 486 932 l 1,27,-1
 750 932 l 1,28,-1
 845 1331 l 1,29,-1
 914 1331 l 1,30,-1
 923 1314 l 1,31,-1
 833 932 l 1,32,-1
 1093 932 l 1,33,-1
 1104 923 l 1,34,-1
 1095 857 l 1,35,-1
 815 857 l 1,0,-1
731 857 m 1,36,-1
 468 857 l 1,37,-1
 398 572 l 1,38,-1
 662 572 l 1,39,-1
 731 857 l 1,36,-1
EndSplineSet
EndChar

StartChar: dollar
Encoding: 36 36 7
Width: 965
GlyphClass: 2
Flags: W
LayerCount: 2
Fore
SplineSet
650 1453 m 1,0,-1
 609 1150 l 1,1,2
 734 1142 734 1142 835 1097 c 1,3,-1
 808 1005 l 1,4,-1
 786 1000 l 1,5,6
 697 1061 697 1061 597 1069 c 1,7,-1
 534 611 l 1,8,9
 579 590 579 590 609.5 573.5 c 128,-1,10
 640 557 640 557 676 530 c 128,-1,11
 712 503 712 503 733.5 475.5 c 128,-1,12
 755 448 755 448 769.5 409 c 128,-1,13
 784 370 784 370 784 324 c 0,14,15
 784 246 784 246 744.5 177 c 128,-1,16
 705 108 705 108 628 58.5 c 128,-1,17
 551 9 551 9 451 -5 c 1,18,-1
 412 -294 l 1,19,-1
 351 -294 l 1,20,-1
 338 -280 l 1,21,-1
 375 -9 l 1,22,23
 299 -7 299 -7 219 13 c 128,-1,24
 139 33 139 33 79 71 c 1,25,-1
 97 172 l 1,26,-1
 113 176 l 1,27,28
 167 128 167 128 241.5 100.5 c 128,-1,29
 316 73 316 73 386 71 c 1,30,-1
 449 541 l 1,31,32
 402 564 402 564 372 580.5 c 128,-1,33
 342 597 342 597 304 624.5 c 128,-1,34
 266 652 266 652 244.5 679 c 128,-1,35
 223 706 223 706 207.5 745.5 c 128,-1,36
 192 785 192 785 192 831 c 0,37,38
 192 952 192 952 285.5 1043.5 c 128,-1,39
 379 1135 379 1135 530 1148 c 1,40,-1
 572 1469 l 1,41,-1
 634 1469 l 1,42,-1
 650 1453 l 1,0,-1
287 842 m 0,43,44
 287 807 287 807 300 777.5 c 128,-1,45
 313 748 313 748 339.5 724.5 c 128,-1,46
 366 701 366 701 394 683.5 c 128,-1,47
 422 666 422 666 463 645 c 1,48,-1
 519 1064 l 1,49,50
 414 1051 414 1051 350.5 986 c 128,-1,51
 287 921 287 921 287 842 c 0,43,44
689 312 m 0,52,53
 689 340 689 340 680 364.5 c 128,-1,54
 671 389 671 389 657 407.5 c 128,-1,55
 643 426 643 426 620 445 c 128,-1,56
 597 464 597 464 574.5 477.5 c 128,-1,57
 552 491 552 491 521 507 c 1,58,-1
 463 79 l 1,59,60
 564 100 564 100 626.5 166 c 128,-1,61
 689 232 689 232 689 312 c 0,52,53
EndSplineSet
EndChar

StartChar: percent
Encoding: 37 37 8
Width: 1883
GlyphClass: 2
Flags: W
LayerCount: 2
Fore
SplineSet
1592 1530 m 1,0,-1
 1599 1504 l 1,1,-1
 280 -208 l 1,2,-1
 236 -183 l 1,3,-1
 227 -157 l 1,4,-1
 1546 1557 l 1,5,-1
 1592 1530 l 1,0,-1
563 1484 m 0,6,7
 696 1484 696 1484 766.5 1402 c 128,-1,8
 837 1320 837 1320 837 1168 c 0,9,10
 837 940 837 940 735 810 c 128,-1,11
 633 680 633 680 446 680 c 0,12,13
 357 680 357 680 294.5 717.5 c 128,-1,14
 232 755 232 755 201 826 c 128,-1,15
 170 897 170 897 170 998 c 0,16,17
 170 1225 170 1225 273.5 1354.5 c 128,-1,18
 377 1484 377 1484 563 1484 c 0,6,7
544 1400 m 0,19,20
 404 1400 404 1400 328 1299 c 128,-1,21
 252 1198 252 1198 252 1016 c 0,22,23
 252 891 252 891 305.5 826.5 c 128,-1,24
 359 762 359 762 463 762 c 0,25,26
 534 762 534 762 589.5 788.5 c 128,-1,27
 645 815 645 815 681.5 864.5 c 128,-1,28
 718 914 718 914 737.5 986 c 128,-1,29
 757 1058 757 1058 757 1148 c 0,30,31
 757 1230 757 1230 732.5 1286 c 128,-1,32
 708 1342 708 1342 660.5 1371 c 128,-1,33
 613 1400 613 1400 544 1400 c 0,19,20
1488 793 m 0,34,35
 1623 793 1623 793 1694.5 712 c 128,-1,36
 1766 631 1766 631 1766 479 c 0,37,38
 1766 367 1766 367 1740.5 276.5 c 128,-1,39
 1715 186 1715 186 1665.5 122.5 c 128,-1,40
 1616 59 1616 59 1542.5 25 c 128,-1,41
 1469 -9 1469 -9 1375 -9 c 0,42,43
 1240 -9 1240 -9 1168.5 73.5 c 128,-1,44
 1097 156 1097 156 1097 307 c 256,45,46
 1097 458 1097 458 1142.5 567 c 128,-1,47
 1188 676 1188 676 1276.5 734.5 c 128,-1,48
 1365 793 1365 793 1488 793 c 0,34,35
1469 713 m 0,49,50
 1399 713 1399 713 1344.5 686.5 c 128,-1,51
 1290 660 1290 660 1254 610 c 128,-1,52
 1218 560 1218 560 1199 488.5 c 128,-1,53
 1180 417 1180 417 1180 327 c 0,54,55
 1180 203 1180 203 1233.5 137 c 128,-1,56
 1287 71 1287 71 1389 71 c 0,57,58
 1530 71 1530 71 1606.5 173.5 c 128,-1,59
 1683 276 1683 276 1683 459 c 0,60,61
 1683 582 1683 582 1628.5 647.5 c 128,-1,62
 1574 713 1574 713 1469 713 c 0,49,50
EndSplineSet
EndChar

StartChar: ampersand
Encoding: 38 38 9
Width: 1429
GlyphClass: 2
Flags: W
LayerCount: 2
Fore
SplineSet
753 1495 m 0,0,1
 818 1495 818 1495 878 1484.5 c 128,-1,2
 938 1474 938 1474 993 1454 c 128,-1,3
 1048 1434 1048 1434 1109 1402 c 1,4,-1
 1076 1307 l 1,5,-1
 1053 1303 l 1,6,7
 898 1402 898 1402 733 1402 c 0,8,9
 573 1402 573 1402 483 1323.5 c 128,-1,10
 393 1245 393 1245 393 1102 c 0,11,12
 393 978 393 978 461 900.5 c 128,-1,13
 529 823 529 823 647 815 c 1,14,-1
 1314 850 l 1,15,-1
 1504 872 l 1,16,-1
 1515 857 l 1,17,-1
 1488 768 l 1,18,-1
 1069 748 l 1,19,-1
 1067 738 l 1,20,21
 1146 622 1146 622 1146 463 c 0,22,23
 1146 360 1146 360 1109.5 272 c 128,-1,24
 1073 184 1073 184 1005 120 c 128,-1,25
 937 56 937 56 833 20 c 128,-1,26
 729 -16 729 -16 601 -16 c 0,27,28
 386 -16 386 -16 262.5 79.5 c 128,-1,29
 139 175 139 175 139 336 c 0,30,31
 139 472 139 472 227.5 581.5 c 128,-1,32
 316 691 316 691 486 766 c 1,33,-1
 486 775 l 1,34,35
 391 819 391 819 340 903.5 c 128,-1,36
 289 988 289 988 289 1104 c 0,37,38
 289 1284 289 1284 412.5 1389.5 c 128,-1,39
 536 1495 536 1495 753 1495 c 0,0,1
937 740 m 1,40,-1
 572 724 l 1,41,42
 418 660 418 660 334 566 c 128,-1,43
 250 472 250 472 250 354 c 0,44,45
 250 224 250 224 347.5 147.5 c 128,-1,46
 445 71 445 71 616 71 c 0,47,48
 818 71 818 71 932 179 c 128,-1,49
 1046 287 1046 287 1046 466 c 0,50,51
 1046 522 1046 522 1032.5 574.5 c 128,-1,52
 1019 627 1019 627 994.5 669 c 128,-1,53
 970 711 970 711 937 740 c 1,40,-1
EndSplineSet
EndChar

StartChar: quotesingle
Encoding: 39 39 10
Width: 332
GlyphClass: 2
Flags: W
LayerCount: 2
Fore
SplineSet
347 1460 m 1,0,-1
 259 1086 l 1,1,-1
 192 1076 l 1,2,-1
 185 1090 l 1,3,-1
 250 1464 l 1,4,-1
 338 1475 l 1,5,-1
 347 1460 l 1,0,-1
EndSplineSet
Substitution2: "'locl' Localized Forms in Latin lookup 12 subtable" puso
Substitution2: "'locl' Localized Forms in Latin lookup 10 subtable" puso
Substitution2: "'aalt' Access All Alternates lookup 0 subtable" puso
EndChar

StartChar: parenleft
Encoding: 40 40 11
Width: 656
GlyphClass: 2
Flags: W
LayerCount: 2
Fore
SplineSet
738 1490 m 1,0,-1
 736 1479 l 1,1,2
 267 1158 267 1158 267 342 c 0,3,4
 267 127 267 127 326 -17.5 c 128,-1,5
 385 -162 385 -162 521 -273 c 1,6,-1
 519 -287 l 1,7,-1
 470 -329 l 1,8,-1
 459 -329 l 1,9,10
 355 -245 355 -245 292.5 -150.5 c 128,-1,11
 230 -56 230 -56 201 62.5 c 128,-1,12
 172 181 172 181 172 340 c 0,13,14
 172 1193 172 1193 687 1535 c 1,15,-1
 698 1535 l 1,16,-1
 738 1490 l 1,0,-1
EndSplineSet
EndChar

StartChar: parenright
Encoding: 41 41 12
Width: 656
GlyphClass: 2
Flags: W
LayerCount: 2
Fore
SplineSet
-62 -287 m 1,0,-1
 -60 -273 l 1,1,2
 409 48 409 48 409 861 c 0,3,4
 409 1005 409 1005 383.5 1114.5 c 128,-1,5
 358 1224 358 1224 302.5 1313.5 c 128,-1,6
 247 1403 247 1403 155 1479 c 1,7,-1
 157 1490 l 1,8,-1
 206 1535 l 1,9,-1
 218 1535 l 1,10,11
 372 1410 372 1410 438 1255 c 128,-1,12
 504 1100 504 1100 504 863 c 0,13,14
 504 10 504 10 -11 -329 c 1,15,-1
 -23 -329 l 1,16,-1
 -62 -287 l 1,0,-1
EndSplineSet
EndChar

StartChar: asterisk
Encoding: 42 42 13
Width: 855
GlyphClass: 2
Flags: W
LayerCount: 2
Fore
SplineSet
594 1664 m 1,0,-1
 558 1396 l 1,1,-1
 504 1391 l 1,2,-1
 493 1402 l 1,3,-1
 497 1661 l 1,4,5
 547 1676 547 1676 588 1676 c 1,6,-1
 594 1664 l 1,0,-1
453 1363 m 1,7,-1
 444 1310 l 1,8,-1
 428 1303 l 1,9,-1
 194 1389 l 1,10,11
 194 1440 194 1440 208 1479 c 1,12,-1
 220 1484 l 1,13,-1
 453 1363 l 1,7,-1
607 1370 m 1,14,-1
 842 1444 l 1,15,16
 875 1390 875 1390 881 1361 c 1,17,-1
 877 1354 l 1,18,-1
 620 1305 l 1,19,-1
 597 1356 l 1,20,-1
 607 1370 l 1,14,-1
609 1250 m 1,21,-1
 750 1040 l 1,22,23
 731 1005 731 1005 687 974 c 1,24,-1
 676 976 l 1,25,-1
 556 1217 l 1,26,-1
 594 1252 l 1,27,-1
 609 1250 l 1,21,-1
499 1226 m 1,28,-1
 497 1208 l 1,29,-1
 351 1002 l 1,30,31
 342 1005 342 1005 330.5 1011 c 128,-1,32
 319 1017 319 1017 311 1021.5 c 128,-1,33
 303 1026 303 1026 290 1034.5 c 128,-1,34
 277 1043 277 1043 271 1046 c 1,35,-1
 269 1055 l 1,36,-1
 453 1250 l 1,37,-1
 499 1226 l 1,28,-1
EndSplineSet
EndChar

StartChar: plus
Encoding: 43 43 14
Width: 1105
GlyphClass: 2
Flags: W
LayerCount: 2
Fore
SplineSet
664 1083 m 1,0,-1
 614 662 l 1,1,-1
 1032 662 l 1,2,-1
 1042 653 l 1,3,-1
 1025 576 l 1,4,-1
 601 576 l 1,5,-1
 550 153 l 1,6,-1
 475 146 l 1,7,-1
 466 155 l 1,8,-1
 516 576 l 1,9,-1
 95 576 l 1,10,-1
 86 588 l 1,11,-1
 104 662 l 1,12,-1
 525 662 l 1,13,-1
 579 1086 l 1,14,-1
 655 1095 l 1,15,-1
 664 1083 l 1,0,-1
EndSplineSet
EndChar

StartChar: comma
Encoding: 44 44 15
Width: 532
GlyphClass: 2
Flags: W
LayerCount: 2
Fore
SplineSet
210 146 m 1,0,1
 301 94 301 94 301 14 c 0,2,3
 301 -111 301 -111 118 -245 c 1,4,-1
 77 -206 l 1,5,-1
 79 -194 l 1,6,7
 140 -148 140 -148 171.5 -99 c 128,-1,8
 203 -50 203 -50 203 -5 c 0,9,10
 203 50 203 50 134 90 c 1,11,-1
 134 104 l 1,12,13
 175 135 175 135 210 146 c 1,0,1
EndSplineSet
EndChar

StartChar: hyphen
Encoding: 45 45 16
Width: 716
GlyphClass: 2
Flags: W
LayerCount: 2
Fore
SplineSet
662 660 m 1,0,-1
 653 583 l 1,1,-1
 81 507 l 1,2,-1
 69 519 l 1,3,-1
 79 594 l 1,4,-1
 650 671 l 1,5,-1
 662 660 l 1,0,-1
EndSplineSet
EndChar

StartChar: period
Encoding: 46 46 17
Width: 532
GlyphClass: 2
Flags: W
LayerCount: 2
Fore
SplineSet
210 144 m 0,0,1
 243 144 243 144 262.5 123 c 128,-1,2
 282 102 282 102 282 69 c 0,3,4
 282 34 282 34 262.5 13.5 c 128,-1,5
 243 -7 243 -7 208 -7 c 128,-1,6
 173 -7 173 -7 153.5 12.5 c 128,-1,7
 134 32 134 32 134 67 c 0,8,9
 134 89 134 89 143.5 106 c 128,-1,10
 153 123 153 123 170 133.5 c 128,-1,11
 187 144 187 144 210 144 c 0,0,1
EndSplineSet
EndChar

StartChar: slash
Encoding: 47 47 18
Width: 667
GlyphClass: 2
Flags: W
LayerCount: 2
Fore
SplineSet
709 1550 m 1,0,-1
 108 -257 l 1,1,-1
 28 -257 l 1,2,-1
 18 -245 l 1,3,-1
 618 1564 l 1,4,-1
 696 1564 l 1,5,-1
 709 1550 l 1,0,-1
EndSplineSet
Substitution2: "'frac' Diagonal Fractions lookup 19 subtable" fraction
Substitution2: "'aalt' Access All Alternates lookup 0 subtable" fraction
EndChar

StartChar: zero
Encoding: 48 48 19
Width: 1113
GlyphClass: 2
Flags: W
LayerCount: 2
Fore
SplineSet
660 1363 m 0,0,1
 837 1363 837 1363 932 1225 c 128,-1,2
 1027 1087 1027 1087 1027 833 c 0,3,4
 1027 575 1027 575 965 385 c 128,-1,5
 903 195 903 195 783 92 c 128,-1,6
 663 -11 663 -11 497 -11 c 0,7,8
 314 -11 314 -11 217 126.5 c 128,-1,9
 120 264 120 264 120 519 c 0,10,11
 120 777 120 777 182.5 966.5 c 128,-1,12
 245 1156 245 1156 367.5 1259.5 c 128,-1,13
 490 1363 490 1363 660 1363 c 0,0,1
643 1257 m 0,14,15
 507 1257 507 1257 410 1169 c 128,-1,16
 313 1081 313 1081 264 919.5 c 128,-1,17
 215 758 215 758 215 537 c 0,18,19
 215 320 215 320 288.5 204 c 128,-1,20
 362 88 362 88 504 88 c 0,21,22
 639 88 639 88 736 176 c 128,-1,23
 833 264 833 264 882.5 426 c 128,-1,24
 932 588 932 588 932 810 c 0,25,26
 932 955 932 955 899.5 1054.5 c 128,-1,27
 867 1154 867 1154 802 1205.5 c 128,-1,28
 737 1257 737 1257 643 1257 c 0,14,15
EndSplineSet
Substitution2: "'case' Case-Sensitive Forms lookup 28 subtable" zero.lf
Substitution2: "'tnum' Tabular Numbers lookup 25 subtable" zero.tosf
Substitution2: "'lnum' Lining Figures lookup 23 subtable" zero.lf
Substitution2: "'frac' Diagonal Fractions lookup 20 subtable" zero.numr
Substitution2: "'dnom' Denominators lookup 18 subtable" zero.dnom
Substitution2: "'numr' Numerators lookup 17 subtable" zero.numr
Substitution2: "'sups' Superscript lookup 16 subtable" zerosuperior
Substitution2: "'sinf' Scientific Inferiors lookup 15 subtable" zero.sinf
AlternateSubs2: "'aalt' Access All Alternates lookup 1 subtable" zero.sinf zerosuperior zero.numr zero.dnom zero.lf zero.tosf
EndChar

StartChar: one
Encoding: 49 49 20
Width: 1098
GlyphClass: 2
Flags: W
LayerCount: 2
Fore
SplineSet
742 1358 m 1,0,-1
 629 477 l 1,1,-1
 574 0 l 1,2,-1
 463 0 l 1,3,-1
 525 461 l 1,4,-1
 620 1241 l 1,5,-1
 194 1146 l 1,6,-1
 181 1155 l 1,7,-1
 192 1243 l 1,8,-1
 724 1372 l 1,9,-1
 742 1358 l 1,0,-1
EndSplineSet
Substitution2: "'ss02' Style Set 2 lookup 36 subtable" arrowleft
Substitution2: "'case' Case-Sensitive Forms lookup 28 subtable" one.lf
Substitution2: "'tnum' Tabular Numbers lookup 25 subtable" one.tosf
Substitution2: "'lnum' Lining Figures lookup 23 subtable" one.lf
Substitution2: "'frac' Diagonal Fractions lookup 20 subtable" one.numr
Substitution2: "'dnom' Denominators lookup 18 subtable" one.dnom
Substitution2: "'numr' Numerators lookup 17 subtable" one.numr
Substitution2: "'sups' Superscript lookup 16 subtable" onesuperior
Substitution2: "'sinf' Scientific Inferiors lookup 15 subtable" one.sinf
AlternateSubs2: "'aalt' Access All Alternates lookup 1 subtable" one.sinf onesuperior one.numr one.dnom one.lf one.tosf arrowleft
EndChar

StartChar: two
Encoding: 50 50 21
Width: 1098
GlyphClass: 2
Flags: W
LayerCount: 2
Fore
SplineSet
641 1365 m 0,0,1
 728 1365 728 1365 796.5 1331 c 128,-1,2
 865 1297 865 1297 903.5 1234.5 c 128,-1,3
 942 1172 942 1172 942 1093 c 0,4,5
 942 1047 942 1047 927.5 998.5 c 128,-1,6
 913 950 913 950 887 902 c 128,-1,7
 861 854 861 854 812.5 789.5 c 128,-1,8
 764 725 764 725 711 662 c 128,-1,9
 658 599 658 599 574 504 c 2,10,-1
 223 102 l 1,11,-1
 227 95 l 1,12,-1
 775 95 l 1,13,-1
 983 102 l 1,14,-1
 993 88 l 1,15,-1
 965 -5 l 1,16,-1
 736 0 l 1,17,-1
 164 0 l 1,18,-1
 67 -2 l 1,19,-1
 62 2 l 1,20,-1
 71 79 l 1,21,-1
 484 546 l 2,22,23
 548 618 548 618 587 664 c 128,-1,24
 626 710 626 710 670.5 765 c 128,-1,25
 715 820 715 820 740.5 858.5 c 128,-1,26
 766 897 766 897 789 938.5 c 128,-1,27
 812 980 812 980 821.5 1016 c 128,-1,28
 831 1052 831 1052 831 1086 c 0,29,30
 831 1165 831 1165 778 1216.5 c 128,-1,31
 725 1268 725 1268 627 1268 c 128,-1,32
 529 1268 529 1268 432 1214 c 128,-1,33
 335 1160 335 1160 247 1060 c 1,34,-1
 234 1060 l 1,35,-1
 225 1153 l 1,36,37
 424 1365 424 1365 641 1365 c 0,0,1
EndSplineSet
Substitution2: "'ss02' Style Set 2 lookup 36 subtable" arrowup
Substitution2: "'case' Case-Sensitive Forms lookup 28 subtable" two.lf
Substitution2: "'tnum' Tabular Numbers lookup 25 subtable" two.tosf
Substitution2: "'lnum' Lining Figures lookup 23 subtable" two.lf
Substitution2: "'frac' Diagonal Fractions lookup 20 subtable" two.numr
Substitution2: "'dnom' Denominators lookup 18 subtable" two.dnom
Substitution2: "'numr' Numerators lookup 17 subtable" two.numr
Substitution2: "'sups' Superscript lookup 16 subtable" twosuperior
Substitution2: "'sinf' Scientific Inferiors lookup 15 subtable" two.sinf
AlternateSubs2: "'aalt' Access All Alternates lookup 1 subtable" two.sinf twosuperior two.numr two.dnom two.lf two.tosf arrowup
EndChar

StartChar: three
Encoding: 51 51 22
Width: 1100
GlyphClass: 2
Flags: W
LayerCount: 2
Fore
SplineSet
594 1370 m 0,0,1
 736 1370 736 1370 820.5 1299.5 c 128,-1,2
 905 1229 905 1229 905 1113 c 0,3,4
 905 1005 905 1005 827 903.5 c 128,-1,5
 749 802 749 802 614 740 c 1,6,-1
 614 733 l 1,7,8
 746 702 746 702 815 627 c 128,-1,9
 884 552 884 552 884 435 c 0,10,11
 884 309 884 309 811.5 207 c 128,-1,12
 739 105 739 105 611 48 c 128,-1,13
 483 -9 483 -9 324 -9 c 0,14,15
 211 -9 211 -9 104 14 c 1,16,-1
 106 111 l 1,17,-1
 118 123 l 1,18,19
 216 86 216 86 336 86 c 0,20,21
 431 86 431 86 512.5 110.5 c 128,-1,22
 594 135 594 135 652 179 c 128,-1,23
 710 223 710 223 742.5 286.5 c 128,-1,24
 775 350 775 350 775 426 c 0,25,26
 775 539 775 539 691 604 c 128,-1,27
 607 669 607 669 449 676 c 1,28,-1
 327 676 l 1,29,-1
 318 685 l 1,30,-1
 331 766 l 1,31,-1
 433 766 l 2,32,33
 476 766 476 766 525 781.5 c 128,-1,34
 574 797 574 797 620.5 826.5 c 128,-1,35
 667 856 667 856 705 895 c 128,-1,36
 743 934 743 934 766 985 c 128,-1,37
 789 1036 789 1036 789 1090 c 0,38,39
 789 1145 789 1145 763 1186.5 c 128,-1,40
 737 1228 737 1228 689.5 1250 c 128,-1,41
 642 1272 642 1272 579 1272 c 0,42,43
 500 1272 500 1272 422 1237.5 c 128,-1,44
 344 1203 344 1203 257 1131 c 1,45,-1
 243 1131 l 1,46,-1
 238 1222 l 1,47,48
 285 1260 285 1260 328.5 1287.5 c 128,-1,49
 372 1315 372 1315 416 1333.5 c 128,-1,50
 460 1352 460 1352 504 1361 c 128,-1,51
 548 1370 548 1370 594 1370 c 0,0,1
EndSplineSet
Substitution2: "'ss02' Style Set 2 lookup 36 subtable" arrowright
Substitution2: "'case' Case-Sensitive Forms lookup 28 subtable" three.lf
Substitution2: "'tnum' Tabular Numbers lookup 25 subtable" three.tosf
Substitution2: "'lnum' Lining Figures lookup 23 subtable" three.lf
Substitution2: "'frac' Diagonal Fractions lookup 20 subtable" three.numr
Substitution2: "'dnom' Denominators lookup 18 subtable" three.dnom
Substitution2: "'numr' Numerators lookup 17 subtable" three.numr
Substitution2: "'sups' Superscript lookup 16 subtable" threesuperior
Substitution2: "'sinf' Scientific Inferiors lookup 15 subtable" three.sinf
AlternateSubs2: "'aalt' Access All Alternates lookup 1 subtable" three.sinf threesuperior three.numr three.dnom three.lf three.tosf arrowright
EndChar

StartChar: four
Encoding: 52 52 23
Width: 1098
GlyphClass: 2
Flags: W
LayerCount: 2
Fore
SplineSet
996 499 m 1,0,-1
 976 419 l 1,1,-1
 791 421 l 1,2,-1
 748 421 l 1,3,-1
 702 9 l 1,4,-1
 692 0 l 1,5,-1
 607 -9 l 1,6,-1
 599 0 l 1,7,-1
 655 421 l 1,8,-1
 192 421 l 1,9,-1
 69 419 l 1,10,-1
 62 431 l 1,11,-1
 69 510 l 1,12,-1
 755 1356 l 1,13,-1
 863 1356 l 1,14,-1
 757 514 l 1,15,-1
 985 514 l 1,16,-1
 996 499 l 1,0,-1
667 514 m 1,17,-1
 750 1203 l 1,18,-1
 738 1203 l 1,19,-1
 181 514 l 1,20,-1
 667 514 l 1,17,-1
EndSplineSet
Substitution2: "'ss02' Style Set 2 lookup 36 subtable" arrowdown
Substitution2: "'case' Case-Sensitive Forms lookup 28 subtable" four.lf
Substitution2: "'tnum' Tabular Numbers lookup 25 subtable" four.tosf
Substitution2: "'lnum' Lining Figures lookup 23 subtable" four.lf
Substitution2: "'frac' Diagonal Fractions lookup 20 subtable" four.numr
Substitution2: "'dnom' Denominators lookup 18 subtable" four.dnom
Substitution2: "'numr' Numerators lookup 17 subtable" four.numr
Substitution2: "'sups' Superscript lookup 16 subtable" foursuperior
Substitution2: "'sinf' Scientific Inferiors lookup 15 subtable" four.sinf
AlternateSubs2: "'aalt' Access All Alternates lookup 1 subtable" four.sinf foursuperior four.numr four.dnom four.lf four.tosf arrowdown
EndChar

StartChar: five
Encoding: 53 53 24
Width: 1098
GlyphClass: 2
Flags: W
LayerCount: 2
Fore
SplineSet
1020 1354 m 1,0,-1
 1000 1261 l 1,1,-1
 985 1252 l 1,2,-1
 854 1261 l 1,3,-1
 435 1261 l 1,4,-1
 380 837 l 1,5,-1
 532 806 l 1,6,7
 725 764 725 764 819.5 679 c 128,-1,8
 914 594 914 594 914 459 c 0,9,10
 914 325 914 325 837.5 216.5 c 128,-1,11
 761 108 761 108 623.5 46 c 128,-1,12
 486 -16 486 -16 315 -16 c 0,13,14
 226 -16 226 -16 115 2 c 1,15,-1
 115 102 l 1,16,-1
 130 111 l 1,17,18
 245 77 245 77 338 77 c 0,19,20
 547 77 547 77 677.5 180.5 c 128,-1,21
 808 284 808 284 808 446 c 0,22,23
 808 548 808 548 729.5 614 c 128,-1,24
 651 680 651 680 490 715 c 1,25,-1
 292 755 l 1,26,-1
 282 768 l 1,27,-1
 351 1338 l 1,28,-1
 382 1358 l 1,29,-1
 502 1356 l 1,30,-1
 828 1356 l 1,31,-1
 1014 1361 l 1,32,-1
 1020 1354 l 1,0,-1
EndSplineSet
Substitution2: "'ss02' Style Set 2 lookup 36 subtable" arrowupleft
Substitution2: "'case' Case-Sensitive Forms lookup 28 subtable" five.lf
Substitution2: "'tnum' Tabular Numbers lookup 25 subtable" five.tosf
Substitution2: "'lnum' Lining Figures lookup 23 subtable" five.lf
Substitution2: "'frac' Diagonal Fractions lookup 20 subtable" five.numr
Substitution2: "'dnom' Denominators lookup 18 subtable" five.dnom
Substitution2: "'numr' Numerators lookup 17 subtable" five.numr
Substitution2: "'sups' Superscript lookup 16 subtable" fivesuperior
Substitution2: "'sinf' Scientific Inferiors lookup 15 subtable" five.sinf
AlternateSubs2: "'aalt' Access All Alternates lookup 1 subtable" five.sinf fivesuperior five.numr five.dnom five.lf five.tosf arrowupleft
EndChar

StartChar: six
Encoding: 54 54 25
Width: 1098
GlyphClass: 2
Flags: W
LayerCount: 2
Fore
SplineSet
1016 1319 m 1,0,-1
 1014 1305 l 1,1,2
 881 1261 881 1261 770 1204.5 c 128,-1,3
 659 1148 659 1148 579 1088 c 128,-1,4
 499 1028 499 1028 437 958.5 c 128,-1,5
 375 889 375 889 336 822 c 128,-1,6
 297 755 297 755 271 683 c 1,7,-1
 282 671 l 1,8,9
 443 789 443 789 611 789 c 0,10,11
 770 789 770 789 865 696.5 c 128,-1,12
 960 604 960 604 960 449 c 0,13,14
 960 410 960 410 954.5 369 c 128,-1,15
 949 328 949 328 934 281.5 c 128,-1,16
 919 235 919 235 896 193.5 c 128,-1,17
 873 152 873 152 837 113 c 128,-1,18
 801 74 801 74 755.5 46 c 128,-1,19
 710 18 710 18 646 1 c 128,-1,20
 582 -16 582 -16 507 -16 c 0,21,22
 320 -16 320 -16 222.5 95.5 c 128,-1,23
 125 207 125 207 125 405 c 0,24,25
 125 473 125 473 136.5 543.5 c 128,-1,26
 148 614 148 614 175.5 692.5 c 128,-1,27
 203 771 203 771 245 845.5 c 128,-1,28
 287 920 287 920 351.5 996 c 128,-1,29
 416 1072 416 1072 497 1138.5 c 128,-1,30
 578 1205 578 1205 689 1265.5 c 128,-1,31
 800 1326 800 1326 930 1372 c 1,32,-1
 939 1372 l 1,33,-1
 1016 1319 l 1,0,-1
594 702 m 0,34,35
 407 702 407 702 238 550 c 1,36,37
 227 492 227 492 227 415 c 0,38,39
 227 336 227 336 243 274.5 c 128,-1,40
 259 213 259 213 292 167 c 128,-1,41
 325 121 325 121 380.5 96 c 128,-1,42
 436 71 436 71 512 71 c 0,43,44
 591 71 591 71 653 95 c 128,-1,45
 715 119 715 119 752.5 156 c 128,-1,46
 790 193 790 193 814.5 243 c 128,-1,47
 839 293 839 293 848 340.5 c 128,-1,48
 857 388 857 388 857 437 c 0,49,50
 857 522 857 522 826 581 c 128,-1,51
 795 640 795 640 736 671 c 128,-1,52
 677 702 677 702 594 702 c 0,34,35
EndSplineSet
Substitution2: "'ss02' Style Set 2 lookup 36 subtable" arrowupright
Substitution2: "'case' Case-Sensitive Forms lookup 28 subtable" six.lf
Substitution2: "'tnum' Tabular Numbers lookup 25 subtable" six.tosf
Substitution2: "'lnum' Lining Figures lookup 23 subtable" six.lf
Substitution2: "'frac' Diagonal Fractions lookup 20 subtable" six.numr
Substitution2: "'dnom' Denominators lookup 18 subtable" six.dnom
Substitution2: "'numr' Numerators lookup 17 subtable" six.numr
Substitution2: "'sups' Superscript lookup 16 subtable" sixsuperior
Substitution2: "'sinf' Scientific Inferiors lookup 15 subtable" six.sinf
AlternateSubs2: "'aalt' Access All Alternates lookup 1 subtable" six.sinf sixsuperior six.numr six.dnom six.lf six.tosf arrowupright
EndChar

StartChar: seven
Encoding: 55 55 26
Width: 1100
GlyphClass: 2
Flags: W
LayerCount: 2
Fore
SplineSet
407 1356 m 1,0,-1
 983 1356 l 1,1,-1
 1080 1358 l 1,2,-1
 1074 1272 l 1,3,-1
 421 206 l 1,4,-1
 296 -28 l 1,5,-1
 201 2 l 1,6,-1
 199 20 l 1,7,-1
 956 1259 l 1,8,-1
 373 1259 l 1,9,-1
 210 1250 l 1,10,-1
 201 1266 l 1,11,-1
 223 1361 l 1,12,-1
 407 1356 l 1,0,-1
EndSplineSet
Substitution2: "'ss02' Style Set 2 lookup 36 subtable" arrowdownright
Substitution2: "'case' Case-Sensitive Forms lookup 28 subtable" seven.lf
Substitution2: "'tnum' Tabular Numbers lookup 25 subtable" seven.tosf
Substitution2: "'lnum' Lining Figures lookup 23 subtable" seven.lf
Substitution2: "'frac' Diagonal Fractions lookup 20 subtable" seven.numr
Substitution2: "'dnom' Denominators lookup 18 subtable" seven.dnom
Substitution2: "'numr' Numerators lookup 17 subtable" seven.numr
Substitution2: "'sups' Superscript lookup 16 subtable" sevensuperior
Substitution2: "'sinf' Scientific Inferiors lookup 15 subtable" seven.sinf
AlternateSubs2: "'aalt' Access All Alternates lookup 1 subtable" seven.sinf sevensuperior seven.numr seven.dnom seven.lf seven.tosf arrowdownright
EndChar

StartChar: eight
Encoding: 56 56 27
Width: 1102
GlyphClass: 2
Flags: W
LayerCount: 2
Fore
SplineSet
645 1365 m 0,0,1
 795 1365 795 1365 884.5 1288.5 c 128,-1,2
 974 1212 974 1212 974 1074 c 0,3,4
 974 1015 974 1015 956.5 964.5 c 128,-1,5
 939 914 939 914 911 877 c 128,-1,6
 883 840 883 840 842 808 c 128,-1,7
 801 776 801 776 762 754.5 c 128,-1,8
 723 733 723 733 676 713 c 1,9,-1
 676 704 l 1,10,11
 711 688 711 688 735.5 675.5 c 128,-1,12
 760 663 760 663 791 644.5 c 128,-1,13
 822 626 822 626 842.5 608.5 c 128,-1,14
 863 591 863 591 884.5 566.5 c 128,-1,15
 906 542 906 542 918.5 515 c 128,-1,16
 931 488 931 488 939 453 c 128,-1,17
 947 418 947 418 947 377 c 0,18,19
 947 207 947 207 823 98 c 128,-1,20
 699 -11 699 -11 497 -11 c 0,21,22
 320 -11 320 -11 215.5 75.5 c 128,-1,23
 111 162 111 162 111 310 c 0,24,25
 111 372 111 372 131 426 c 128,-1,26
 151 480 151 480 183 519 c 128,-1,27
 215 558 215 558 262.5 593 c 128,-1,28
 310 628 310 628 356 651 c 128,-1,29
 402 674 402 674 459 696 c 1,30,-1
 461 706 l 1,31,32
 410 731 410 731 374 756 c 128,-1,33
 338 781 338 781 307 815.5 c 128,-1,34
 276 850 276 850 260.5 897 c 128,-1,35
 245 944 245 944 245 1002 c 0,36,37
 245 1165 245 1165 357 1265 c 128,-1,38
 469 1365 469 1365 645 1365 c 0,0,1
643 1280 m 0,39,40
 555 1280 555 1280 486 1246.5 c 128,-1,41
 417 1213 417 1213 378.5 1151.5 c 128,-1,42
 340 1090 340 1090 340 1011 c 0,43,44
 340 968 340 968 353 931.5 c 128,-1,45
 366 895 366 895 385 870 c 128,-1,46
 404 845 404 845 437.5 821.5 c 128,-1,47
 471 798 471 798 501 782.5 c 128,-1,48
 531 767 531 767 576 748 c 1,49,50
 626 765 626 765 665.5 783 c 128,-1,51
 705 801 705 801 746.5 829 c 128,-1,52
 788 857 788 857 815.5 889 c 128,-1,53
 843 921 843 921 861 967 c 128,-1,54
 879 1013 879 1013 879 1067 c 0,55,56
 879 1169 879 1169 817.5 1224.5 c 128,-1,57
 756 1280 756 1280 643 1280 c 0,39,40
553 660 m 1,58,59
 512 645 512 645 485 634.5 c 128,-1,60
 458 624 458 624 419 605 c 128,-1,61
 380 586 380 586 353.5 568 c 128,-1,62
 327 550 327 550 297.5 524 c 128,-1,63
 268 498 268 498 250.5 469.5 c 128,-1,64
 233 441 233 441 221.5 403 c 128,-1,65
 210 365 210 365 210 322 c 0,66,67
 210 207 210 207 286.5 139 c 128,-1,68
 363 71 363 71 499 71 c 0,69,70
 654 71 654 71 752 155.5 c 128,-1,71
 850 240 850 240 850 368 c 0,72,73
 850 396 850 396 844.5 421 c 128,-1,74
 839 446 839 446 831.5 465.5 c 128,-1,75
 824 485 824 485 808.5 504.5 c 128,-1,76
 793 524 793 524 780 537.5 c 128,-1,77
 767 551 767 551 743 566.5 c 128,-1,78
 719 582 719 582 703 591.5 c 128,-1,79
 687 601 687 601 656 615.5 c 128,-1,80
 625 630 625 630 607.5 637.5 c 128,-1,81
 590 645 590 645 554 659 c 0,82,83
 553 660 553 660 553 660 c 1,58,59
EndSplineSet
Substitution2: "'ss02' Style Set 2 lookup 36 subtable" arrowdownleft
Substitution2: "'case' Case-Sensitive Forms lookup 28 subtable" eight.lf
Substitution2: "'tnum' Tabular Numbers lookup 25 subtable" eight.tosf
Substitution2: "'lnum' Lining Figures lookup 23 subtable" eight.lf
Substitution2: "'frac' Diagonal Fractions lookup 20 subtable" eight.numr
Substitution2: "'dnom' Denominators lookup 18 subtable" eight.dnom
Substitution2: "'numr' Numerators lookup 17 subtable" eight.numr
Substitution2: "'sups' Superscript lookup 16 subtable" eightsuperior
Substitution2: "'sinf' Scientific Inferiors lookup 15 subtable" eight.sinf
AlternateSubs2: "'aalt' Access All Alternates lookup 1 subtable" eight.sinf eightsuperior eight.numr eight.dnom eight.lf eight.tosf arrowdownleft
EndChar

StartChar: nine
Encoding: 57 57 28
Width: 1098
GlyphClass: 2
Flags: W
LayerCount: 2
Fore
SplineSet
643 1372 m 0,0,1
 767 1372 767 1372 853.5 1320.5 c 128,-1,2
 940 1269 940 1269 982.5 1175.5 c 128,-1,3
 1025 1082 1025 1082 1025 951 c 0,4,5
 1025 883 1025 883 1013.5 812.5 c 128,-1,6
 1002 742 1002 742 974.5 663.5 c 128,-1,7
 947 585 947 585 905.5 510.5 c 128,-1,8
 864 436 864 436 799.5 360 c 128,-1,9
 735 284 735 284 653.5 217.5 c 128,-1,10
 572 151 572 151 461.5 90.5 c 128,-1,11
 351 30 351 30 220 -16 c 1,12,-1
 208 -16 l 1,13,-1
 134 37 l 1,14,-1
 134 51 l 1,15,16
 268 95 268 95 380 151.5 c 128,-1,17
 492 208 492 208 571.5 268 c 128,-1,18
 651 328 651 328 713 397.5 c 128,-1,19
 775 467 775 467 813.5 534 c 128,-1,20
 852 601 852 601 877 673 c 1,21,-1
 868 685 l 1,22,23
 708 567 708 567 537 567 c 0,24,25
 379 567 379 567 284.5 659.5 c 128,-1,26
 190 752 190 752 190 907 c 0,27,28
 190 947 190 947 195.5 987.5 c 128,-1,29
 201 1028 201 1028 216 1074.5 c 128,-1,30
 231 1121 231 1121 253.5 1162.5 c 128,-1,31
 276 1204 276 1204 312 1243 c 128,-1,32
 348 1282 348 1282 393.5 1310 c 128,-1,33
 439 1338 439 1338 503.5 1355 c 128,-1,34
 568 1372 568 1372 643 1372 c 0,0,1
556 655 m 0,35,36
 740 655 740 655 910 803 c 1,37,38
 921 861 921 861 921 942 c 0,39,40
 921 1021 921 1021 905 1082 c 128,-1,41
 889 1143 889 1143 856 1189.5 c 128,-1,42
 823 1236 823 1236 767.5 1260.5 c 128,-1,43
 712 1285 712 1285 636 1285 c 0,44,45
 558 1285 558 1285 496 1261 c 128,-1,46
 434 1237 434 1237 397 1200 c 128,-1,47
 360 1163 360 1163 336 1113 c 128,-1,48
 312 1063 312 1063 303 1015.5 c 128,-1,49
 294 968 294 968 294 919 c 0,50,51
 294 792 294 792 362.5 723.5 c 128,-1,52
 431 655 431 655 556 655 c 0,35,36
EndSplineSet
Substitution2: "'case' Case-Sensitive Forms lookup 28 subtable" nine.lf
Substitution2: "'tnum' Tabular Numbers lookup 25 subtable" nine.tosf
Substitution2: "'lnum' Lining Figures lookup 23 subtable" nine.lf
Substitution2: "'frac' Diagonal Fractions lookup 20 subtable" nine.numr
Substitution2: "'dnom' Denominators lookup 18 subtable" nine.dnom
Substitution2: "'numr' Numerators lookup 17 subtable" nine.numr
Substitution2: "'sups' Superscript lookup 16 subtable" ninesuperior
Substitution2: "'sinf' Scientific Inferiors lookup 15 subtable" nine.sinf
AlternateSubs2: "'aalt' Access All Alternates lookup 1 subtable" nine.sinf ninesuperior nine.numr nine.dnom nine.lf nine.tosf
EndChar

StartChar: colon
Encoding: 58 58 29
Width: 528
GlyphClass: 2
Flags: W
LayerCount: 2
Fore
SplineSet
287 775 m 0,0,1
 321 775 321 775 339.5 756 c 128,-1,2
 358 737 358 737 358 704 c 0,3,4
 358 680 358 680 349.5 662 c 128,-1,5
 341 644 341 644 324.5 634.5 c 128,-1,6
 308 625 308 625 285 625 c 0,7,8
 250 625 250 625 230 645 c 128,-1,9
 210 665 210 665 210 698 c 0,10,11
 210 733 210 733 231 754 c 128,-1,12
 252 775 252 775 287 775 c 0,0,1
210 144 m 0,13,14
 243 144 243 144 262.5 123 c 128,-1,15
 282 102 282 102 282 69 c 0,16,17
 282 34 282 34 261.5 13.5 c 128,-1,18
 241 -7 241 -7 206 -7 c 0,19,20
 172 -7 172 -7 153 12.5 c 128,-1,21
 134 32 134 32 134 67 c 0,22,23
 134 89 134 89 143.5 106 c 128,-1,24
 153 123 153 123 170 133.5 c 128,-1,25
 187 144 187 144 210 144 c 0,13,14
EndSplineSet
EndChar

StartChar: semicolon
Encoding: 59 59 30
Width: 532
GlyphClass: 2
Flags: W
LayerCount: 2
Fore
SplineSet
285 775 m 0,0,1
 319 775 319 775 337.5 756 c 128,-1,2
 356 737 356 737 356 704 c 0,3,4
 356 667 356 667 336.5 646 c 128,-1,5
 317 625 317 625 282.5 625 c 128,-1,6
 248 625 248 625 228 645 c 128,-1,7
 208 665 208 665 208 698 c 0,8,9
 208 733 208 733 229 754 c 128,-1,10
 250 775 250 775 285 775 c 0,0,1
206 146 m 1,11,12
 298 95 298 95 298 14 c 0,13,14
 298 -107 298 -107 115 -245 c 1,15,-1
 75 -206 l 1,16,-1
 75 -194 l 1,17,18
 136 -148 136 -148 168.5 -99 c 128,-1,19
 201 -50 201 -50 201 -5 c 0,20,21
 201 50 201 50 130 90 c 1,22,-1
 130 104 l 1,23,24
 178 138 178 138 206 146 c 1,11,12
EndSplineSet
EndChar

StartChar: less
Encoding: 60 60 31
Width: 1153
GlyphClass: 2
Flags: W
LayerCount: 2
Fore
SplineSet
1062 996 m 1,0,-1
 1053 981 l 1,1,-1
 188 627 l 1,2,-1
 185 616 l 1,3,-1
 974 285 l 1,4,-1
 945 215 l 1,5,-1
 930 206 l 1,6,-1
 81 570 l 1,7,-1
 93 667 l 1,8,-1
 104 680 l 1,9,-1
 1044 1062 l 1,10,-1
 1062 996 l 1,0,-1
EndSplineSet
EndChar

StartChar: equal
Encoding: 61 61 32
Width: 1107
GlyphClass: 2
Flags: W
LayerCount: 2
Fore
SplineSet
1071 831 m 1,0,-1
 1064 755 l 1,1,-1
 134 755 l 1,2,-1
 123 766 l 1,3,-1
 132 840 l 1,4,-1
 1060 840 l 1,5,-1
 1071 831 l 1,0,-1
1027 472 m 1,6,-1
 1018 398 l 1,7,-1
 88 398 l 1,8,-1
 79 407 l 1,9,-1
 86 481 l 1,10,-1
 1016 481 l 1,11,-1
 1027 472 l 1,6,-1
EndSplineSet
EndChar

StartChar: greater
Encoding: 62 62 33
Width: 1161
GlyphClass: 2
Flags: W
LayerCount: 2
Fore
SplineSet
1093 680 m 1,0,-1
 1099 667 l 1,1,-1
 1088 570 l 1,2,-1
 150 206 l 1,3,-1
 137 215 l 1,4,-1
 125 285 l 1,5,-1
 996 616 l 1,6,-1
 996 627 l 1,7,-1
 215 981 l 1,8,-1
 210 996 l 1,9,-1
 247 1062 l 1,10,-1
 1093 680 l 1,0,-1
EndSplineSet
EndChar

StartChar: question
Encoding: 63 63 34
Width: 755
GlyphClass: 2
Flags: W
LayerCount: 2
Fore
SplineSet
292 1513 m 1,0,-1
 312 1521 l 1,1,2
 553 1506 553 1506 686 1419.5 c 128,-1,3
 819 1333 819 1333 819 1192 c 0,4,5
 819 1096 819 1096 760 1011 c 128,-1,6
 701 926 701 926 592 859 c 2,7,-1
 368 720 l 1,8,-1
 364 711 l 1,9,-1
 347 475 l 1,10,-1
 263 466 l 1,11,-1
 254 479 l 1,12,-1
 271 740 l 1,13,-1
 285 762 l 1,14,-1
 530 910 l 1,15,16
 617 961 617 961 665 1026.5 c 128,-1,17
 713 1092 713 1092 713 1168 c 0,18,19
 713 1284 713 1284 601 1353 c 128,-1,20
 489 1422 489 1422 269 1435 c 1,21,-1
 261 1449 l 1,22,-1
 292 1513 l 1,0,-1
280 144 m 0,23,24
 313 144 313 144 332 123 c 128,-1,25
 351 102 351 102 351 69 c 0,26,27
 351 34 351 34 330.5 13.5 c 128,-1,28
 310 -7 310 -7 276 -7 c 256,29,30
 242 -7 242 -7 222.5 12.5 c 128,-1,31
 203 32 203 32 203 67 c 0,32,33
 203 101 203 101 224 122.5 c 128,-1,34
 245 144 245 144 280 144 c 0,23,24
EndSplineSet
EndChar

StartChar: at
Encoding: 64 64 35
Width: 1883
GlyphClass: 2
Flags: W
LayerCount: 2
Fore
SplineSet
1800 673 m 0,0,1
 1800 464 1800 464 1714.5 314.5 c 128,-1,2
 1629 165 1629 165 1464 83.5 c 128,-1,3
 1299 2 1299 2 1062 -9 c 1,4,-1
 1139 553 l 1,5,-1
 1122 553 l 1,6,7
 921 193 921 193 698 -14 c 1,8,-1
 669 -14 l 1,9,10
 594 36 594 36 558.5 116.5 c 128,-1,11
 523 197 523 197 523 331 c 0,12,13
 523 439 523 439 545 541 c 128,-1,14
 567 643 567 643 611.5 733.5 c 128,-1,15
 656 824 656 824 719 894 c 128,-1,16
 782 964 782 964 869.5 1009.5 c 128,-1,17
 957 1055 957 1055 1060 1067 c 1,18,-1
 1069 1067 l 1,19,-1
 1217 1034 l 1,20,-1
 1287 1069 l 1,21,-1
 1303 1060 l 1,22,-1
 1192 250 l 1,23,-1
 1180 79 l 1,24,25
 1437 107 1437 107 1576 260 c 128,-1,26
 1715 413 1715 413 1715 671 c 0,27,28
 1715 814 1715 814 1667 933.5 c 128,-1,29
 1619 1053 1619 1053 1531.5 1137 c 128,-1,30
 1444 1221 1444 1221 1315 1267 c 128,-1,31
 1186 1313 1186 1313 1029 1312 c 0,32,33
 840 1311 840 1311 681 1247 c 128,-1,34
 522 1183 522 1183 411.5 1070 c 128,-1,35
 301 957 301 957 240 798 c 128,-1,36
 179 639 179 639 179 453 c 0,37,38
 179 263 179 263 242.5 109 c 128,-1,39
 306 -45 306 -45 421.5 -149.5 c 128,-1,40
 537 -254 537 -254 702.5 -310 c 128,-1,41
 868 -366 868 -366 1069 -366 c 1,42,-1
 1071 -380 l 1,43,-1
 1029 -442 l 1,44,45
 821 -438 821 -438 647 -375 c 128,-1,46
 473 -312 473 -312 350.5 -199.5 c 128,-1,47
 228 -87 228 -87 160.5 76.5 c 128,-1,48
 93 240 93 240 93 437 c 0,49,50
 93 648 93 648 161 825.5 c 128,-1,51
 229 1003 229 1003 352 1128 c 128,-1,52
 475 1253 475 1253 652 1323 c 128,-1,53
 829 1393 829 1393 1040 1393 c 0,54,55
 1211 1393 1211 1393 1353.5 1341 c 128,-1,56
 1496 1289 1496 1289 1594 1195 c 128,-1,57
 1692 1101 1692 1101 1746 967.5 c 128,-1,58
 1800 834 1800 834 1800 673 c 0,0,1
704 111 m 256,59,60
 714 111 714 111 738.5 131.5 c 128,-1,61
 763 152 763 152 797.5 189.5 c 128,-1,62
 832 227 832 227 876.5 287.5 c 128,-1,63
 921 348 921 348 968.5 420.5 c 128,-1,64
 1016 493 1016 493 1070 590.5 c 128,-1,65
 1124 688 1124 688 1173 793 c 1,66,-1
 1177 833 l 1,67,-1
 1188 945 l 1,68,-1
 1046 976 l 1,69,70
 948 975 948 975 866.5 923.5 c 128,-1,71
 785 872 785 872 732 787 c 128,-1,72
 679 702 679 702 649.5 591 c 128,-1,73
 620 480 620 480 620 358 c 0,74,75
 620 303 620 303 626 259 c 128,-1,76
 632 215 632 215 641 188 c 128,-1,77
 650 161 650 161 661.5 143 c 128,-1,78
 673 125 673 125 683.5 118 c 128,-1,79
 694 111 694 111 704 111 c 256,59,60
EndSplineSet
EndChar

StartChar: A
Encoding: 65 65 36
Width: 1239
GlyphClass: 2
Flags: W
AnchorPoint: "Anchor-1" 0 0 basechar 0
AnchorPoint: "Anchor-0" 750 1479 basechar 0
LayerCount: 2
Fore
SplineSet
1122 0 m 1,0,-1
 1007 0 l 1,1,-1
 993 123 l 1,2,-1
 925 451 l 1,3,-1
 597 453 l 1,4,-1
 298 451 l 1,5,-1
 141 128 l 1,6,-1
 90 0 l 1,7,-1
 -26 0 l 1,8,-1
 694 1479 l 1,9,-1
 822 1479 l 1,10,-1
 1122 0 l 1,0,-1
905 550 m 1,11,-1
 742 1347 l 1,12,-1
 733 1347 l 1,13,-1
 347 550 l 1,14,-1
 620 546 l 1,15,-1
 905 550 l 1,11,-1
EndSplineSet
Position2: "'cpsp' Capital Spacing lookup 0 subtable" dx=16 dy=0 dh=33 dv=0
EndChar

StartChar: B
Encoding: 66 66 37
Width: 1137
GlyphClass: 2
Flags: W
LayerCount: 2
Fore
SplineSet
766 773 m 1,0,1
 1034 712 1034 712 1034 461 c 0,2,3
 1034 236 1034 236 883 114.5 c 128,-1,4
 732 -7 732 -7 444 -7 c 0,5,6
 285 -7 285 -7 166 0 c 1,7,-1
 164 0 l 1,8,-1
 229 449 l 1,9,-1
 351 1479 l 1,10,-1
 678 1481 l 1,11,12
 844 1481 844 1481 934.5 1403 c 128,-1,13
 1025 1325 1025 1325 1025 1180 c 0,14,15
 1025 1031 1025 1031 958 927.5 c 128,-1,16
 891 824 891 824 766 773 c 1,0,1
912 1162 m 0,17,18
 912 1268 912 1268 848 1326 c 128,-1,19
 784 1384 784 1384 662 1384 c 2,20,-1
 453 1384 l 1,21,-1
 377 812 l 1,22,-1
 638 808 l 1,23,24
 726 827 726 827 787.5 874 c 128,-1,25
 849 921 849 921 880.5 994 c 128,-1,26
 912 1067 912 1067 912 1162 c 0,17,18
461 88 m 0,27,28
 681 88 681 88 801 184 c 128,-1,29
 921 280 921 280 921 453 c 0,30,31
 921 568 921 568 851.5 634.5 c 128,-1,32
 782 701 782 701 650 713 c 1,33,-1
 366 713 l 1,34,-1
 331 455 l 1,35,-1
 289 95 l 1,36,37
 376 88 376 88 461 88 c 0,27,28
EndSplineSet
Position2: "'cpsp' Capital Spacing lookup 0 subtable" dx=16 dy=0 dh=33 dv=0
EndChar

StartChar: C
Encoding: 67 67 38
Width: 1153
GlyphClass: 2
Flags: W
AnchorPoint: "Anchor-1" 666 0 basechar 0
AnchorPoint: "Anchor-0" 777 1479 basechar 0
LayerCount: 2
Fore
SplineSet
822 1490 m 0,0,1
 928 1490 928 1490 1025.5 1457.5 c 128,-1,2
 1123 1425 1123 1425 1197 1365 c 1,3,-1
 1157 1263 l 1,4,-1
 1139 1261 l 1,5,6
 1006 1391 1006 1391 808 1391 c 0,7,8
 536 1391 536 1391 385 1182 c 128,-1,9
 234 973 234 973 234 601 c 0,10,11
 234 351 234 351 335.5 218.5 c 128,-1,12
 437 86 437 86 629 86 c 0,13,14
 730 86 730 86 834.5 124.5 c 128,-1,15
 939 163 939 163 1032 234 c 1,16,-1
 1051 227 l 1,17,-1
 1027 120 l 1,18,19
 820 -14 820 -14 616 -14 c 0,20,21
 375 -14 375 -14 246.5 142 c 128,-1,22
 118 298 118 298 118 585 c 0,23,24
 118 866 118 866 201 1069.5 c 128,-1,25
 284 1273 284 1273 442.5 1381.5 c 128,-1,26
 601 1490 601 1490 822 1490 c 0,0,1
EndSplineSet
Substitution2: "Single Substitution lookup 41 subtable" C.ss01
Substitution2: "'ss01' Style Set 1 lookup 35 subtable" C.ss01
Substitution2: "'aalt' Access All Alternates lookup 0 subtable" C.ss01
Position2: "'cpsp' Capital Spacing lookup 0 subtable" dx=16 dy=0 dh=33 dv=0
EndChar

StartChar: D
Encoding: 68 68 39
Width: 1422
GlyphClass: 2
Flags: W
AnchorPoint: "Anchor-1" 0 0 basechar 0
AnchorPoint: "Anchor-0" 768 1479 basechar 0
LayerCount: 2
Fore
SplineSet
351 1479 m 1,0,-1
 819 1488 l 1,1,2
 1081 1488 1081 1488 1222 1338.5 c 128,-1,3
 1363 1189 1363 1189 1363 912 c 0,4,5
 1363 629 1363 629 1276 422 c 128,-1,6
 1189 215 1189 215 1018.5 102 c 128,-1,7
 848 -11 848 -11 609 -11 c 0,8,9
 437 -11 437 -11 166 0 c 1,10,-1
 164 0 l 1,11,-1
 229 449 l 1,12,-1
 351 1479 l 1,0,-1
629 84 m 0,13,14
 922 84 922 84 1085 296.5 c 128,-1,15
 1248 509 1248 509 1248 890 c 0,16,17
 1248 1135 1248 1135 1135.5 1263 c 128,-1,18
 1023 1391 1023 1391 808 1391 c 0,19,20
 623 1391 623 1391 451 1382 c 1,21,-1
 331 455 l 1,22,-1
 289 97 l 1,23,24
 497 84 497 84 629 84 c 0,13,14
EndSplineSet
Substitution2: "Single Substitution lookup 41 subtable" D.ss01
Substitution2: "'ss01' Style Set 1 lookup 35 subtable" D.ss01
Substitution2: "'aalt' Access All Alternates lookup 0 subtable" D.ss01
Position2: "'cpsp' Capital Spacing lookup 0 subtable" dx=16 dy=0 dh=33 dv=0
EndChar

StartChar: E
Encoding: 69 69 40
Width: 1033
GlyphClass: 2
Flags: W
AnchorPoint: "Anchor-1" 598 0 basechar 0
AnchorPoint: "Anchor-0" 719 1479 basechar 0
LayerCount: 2
Fore
SplineSet
449 1380 m 1,0,-1
 377 810 l 1,1,-1
 650 808 l 1,2,-1
 884 812 l 1,3,-1
 894 799 l 1,4,-1
 870 713 l 1,5,-1
 627 715 l 1,6,-1
 364 713 l 1,7,-1
 331 455 l 1,8,-1
 289 97 l 1,9,-1
 574 95 l 1,10,-1
 914 102 l 1,11,-1
 921 88 l 1,12,-1
 898 0 l 1,13,-1
 164 0 l 1,14,-1
 229 449 l 1,15,-1
 351 1479 l 1,16,-1
 1083 1479 l 1,17,-1
 1090 1464 l 1,18,-1
 1067 1377 l 1,19,-1
 742 1382 l 1,20,-1
 449 1380 l 1,0,-1
EndSplineSet
Position2: "'cpsp' Capital Spacing lookup 0 subtable" dx=16 dy=0 dh=33 dv=0
EndChar

StartChar: F
Encoding: 70 70 41
Width: 936
GlyphClass: 2
Flags: W
LayerCount: 2
Fore
SplineSet
449 1380 m 1,0,-1
 373 784 l 1,1,-1
 629 782 l 1,2,-1
 857 784 l 1,3,-1
 863 773 l 1,4,-1
 840 685 l 1,5,-1
 605 689 l 1,6,-1
 360 687 l 1,7,-1
 331 455 l 1,8,-1
 278 0 l 1,9,-1
 164 0 l 1,10,-1
 229 449 l 1,11,-1
 351 1479 l 1,12,-1
 1051 1479 l 1,13,-1
 1060 1464 l 1,14,-1
 1034 1375 l 1,15,-1
 722 1382 l 1,16,-1
 449 1380 l 1,0,-1
EndSplineSet
Position2: "'cpsp' Capital Spacing lookup 0 subtable" dx=16 dy=0 dh=33 dv=0
EndChar

StartChar: G
Encoding: 71 71 42
Width: 1330
GlyphClass: 2
Flags: W
AnchorPoint: "Anchor-1" 728 0 basechar 0
AnchorPoint: "Anchor-0" 803 1479 basechar 0
LayerCount: 2
Fore
SplineSet
879 1490 m 0,0,1
 1086 1490 1086 1490 1275 1372 c 1,2,-1
 1236 1268 l 1,3,-1
 1219 1268 l 1,4,5
 1173 1300 1173 1300 1129 1322.5 c 128,-1,6
 1085 1345 1085 1345 1041 1360.5 c 128,-1,7
 997 1376 997 1376 952.5 1383.5 c 128,-1,8
 908 1391 908 1391 861 1391 c 0,9,10
 558 1391 558 1391 393.5 1182 c 128,-1,11
 229 973 229 973 229 585 c 0,12,13
 229 338 229 338 334.5 212 c 128,-1,14
 440 86 440 86 647 86 c 0,15,16
 732 86 732 86 808.5 99 c 128,-1,17
 885 112 885 112 1002 148 c 1,18,-1
 1034 368 l 1,19,-1
 1055 563 l 1,20,-1
 1162 572 l 1,21,-1
 1139 380 l 1,22,-1
 1102 69 l 1,23,24
 959 24 959 24 859.5 6.5 c 128,-1,25
 760 -11 760 -11 643 -11 c 0,26,27
 471 -11 471 -11 352.5 58 c 128,-1,28
 234 127 234 127 174.5 258 c 128,-1,29
 115 389 115 389 115 576 c 0,30,31
 115 1010 115 1010 315.5 1250 c 128,-1,32
 516 1490 516 1490 879 1490 c 0,0,1
EndSplineSet
Position2: "'cpsp' Capital Spacing lookup 0 subtable" dx=16 dy=0 dh=33 dv=0
EndChar

StartChar: H
Encoding: 72 72 43
Width: 1497
GlyphClass: 2
Flags: W
AnchorPoint: "Anchor-1" 0 0 basechar 0
AnchorPoint: "Anchor-0" 867 1479 basechar 0
LayerCount: 2
Fore
SplineSet
1389 1479 m 1,0,-1
 1257 455 l 1,1,-1
 1203 0 l 1,2,-1
 1093 0 l 1,3,-1
 1153 449 l 1,4,-1
 1183 698 l 1,5,-1
 755 704 l 1,6,-1
 364 698 l 1,7,-1
 331 455 l 1,8,-1
 278 0 l 1,9,-1
 164 0 l 1,10,-1
 227 449 l 1,11,-1
 349 1479 l 1,12,-1
 463 1479 l 1,13,-1
 375 801 l 1,14,-1
 780 797 l 1,15,-1
 1194 801 l 1,16,-1
 1275 1479 l 1,17,-1
 1389 1479 l 1,0,-1
EndSplineSet
Position2: "'cpsp' Capital Spacing lookup 0 subtable" dx=16 dy=0 dh=33 dv=0
EndChar

StartChar: I
Encoding: 73 73 44
Width: 570
GlyphClass: 2
Flags: W
AnchorPoint: "Anchor-1" 0 0 basechar 0
AnchorPoint: "Anchor-0" 402 1479 basechar 0
LayerCount: 2
Fore
SplineSet
331 455 m 1,0,-1
 278 0 l 1,1,-1
 164 0 l 1,2,-1
 227 449 l 1,3,-1
 349 1479 l 1,4,-1
 463 1479 l 1,5,-1
 331 455 l 1,0,-1
EndSplineSet
Substitution2: "Single Substitution lookup 41 subtable" I.ss01
Substitution2: "'ss01' Style Set 1 lookup 35 subtable" I.ss01
Substitution2: "'aalt' Access All Alternates lookup 0 subtable" I.ss01
Position2: "'cpsp' Capital Spacing lookup 0 subtable" dx=16 dy=0 dh=33 dv=0
EndChar

StartChar: J
Encoding: 74 74 45
Width: 645
GlyphClass: 2
Flags: W
AnchorPoint: "Anchor-1" 0 0 basechar 0
AnchorPoint: "Anchor-0" 349 1479 basechar 0
LayerCount: 2
Fore
SplineSet
525 1479 m 1,0,-1
 396 490 l 1,1,-1
 371 269 l 1,2,3
 350 101 350 101 259 -12 c 128,-1,4
 168 -125 168 -125 -28 -232 c 1,5,-1
 -67 -170 l 1,6,-1
 -67 -150 l 1,7,8
 96 -59 96 -59 174 37.5 c 128,-1,9
 252 134 252 134 269 271 c 2,10,-1
 294 477 l 1,11,-1
 400 1384 l 1,12,-1
 120 1382 l 1,13,-1
 106 1396 l 1,14,-1
 125 1479 l 1,15,-1
 525 1479 l 1,0,-1
EndSplineSet
Position2: "'cpsp' Capital Spacing lookup 0 subtable" dx=16 dy=0 dh=33 dv=0
EndChar

StartChar: K
Encoding: 75 75 46
Width: 1161
GlyphClass: 2
Flags: W
AnchorPoint: "Anchor-1" 627 0 basechar 0
AnchorPoint: "Anchor-0" 601 1479 basechar 0
LayerCount: 2
Fore
SplineSet
331 455 m 1,0,-1
 276 0 l 1,1,-1
 164 0 l 1,2,-1
 227 449 l 1,3,-1
 351 1479 l 1,4,-1
 463 1479 l 1,5,-1
 331 455 l 1,0,-1
1238 1479 m 1,6,-1
 544 784 l 1,7,8
 780 408 780 408 1090 26 c 1,9,-1
 1088 9 l 1,10,11
 1051 -5 1051 -5 985 -18 c 1,12,-1
 972 -11 l 1,13,14
 662 387 662 387 417 782 c 1,15,-1
 419 791 l 1,16,-1
 996 1361 l 1,17,-1
 1102 1479 l 1,18,-1
 1238 1479 l 1,6,-1
EndSplineSet
Position2: "'cpsp' Capital Spacing lookup 0 subtable" dx=16 dy=0 dh=33 dv=0
EndChar

StartChar: L
Encoding: 76 76 47
Width: 894
GlyphClass: 2
Flags: W
AnchorPoint: "Anchor-1" 465 0 basechar 0
AnchorPoint: "Anchor-0" 406 1479 basechar 0
LayerCount: 2
Fore
SplineSet
835 86 m 1,0,-1
 815 0 l 1,1,-1
 162 0 l 1,2,-1
 225 449 l 1,3,-1
 347 1479 l 1,4,-1
 459 1479 l 1,5,-1
 327 455 l 1,6,-1
 285 97 l 1,7,-1
 828 97 l 1,8,-1
 835 86 l 1,0,-1
EndSplineSet
Substitution2: "Single Substitution lookup 41 subtable" L.ss01
Substitution2: "'ss01' Style Set 1 lookup 35 subtable" L.ss01
Substitution2: "'aalt' Access All Alternates lookup 0 subtable" L.ss01
Position2: "'cpsp' Capital Spacing lookup 0 subtable" dx=16 dy=0 dh=33 dv=0
EndChar

StartChar: M
Encoding: 77 77 48
Width: 1730
GlyphClass: 2
Flags: W
LayerCount: 2
Fore
SplineSet
1509 0 m 1,0,-1
 1407 0 l 1,1,-1
 1426 451 l 1,2,-1
 1444 1283 l 1,3,-1
 1433 1283 l 1,4,-1
 866 181 l 1,5,-1
 764 181 l 1,6,-1
 488 1283 l 1,7,-1
 475 1283 l 1,8,-1
 289 459 l 1,9,-1
 190 0 l 1,10,-1
 90 0 l 1,11,-1
 426 1479 l 1,12,-1
 553 1479 l 1,13,-1
 605 1252 l 1,14,-1
 831 329 l 1,15,-1
 842 329 l 1,16,-1
 1327 1270 l 1,17,-1
 1428 1479 l 1,18,-1
 1555 1479 l 1,19,-1
 1509 0 l 1,0,-1
EndSplineSet
Substitution2: "Single Substitution lookup 41 subtable" M.ss01
Substitution2: "'ss01' Style Set 1 lookup 35 subtable" M.ss01
Substitution2: "'aalt' Access All Alternates lookup 0 subtable" M.ss01
Position2: "'cpsp' Capital Spacing lookup 0 subtable" dx=16 dy=0 dh=33 dv=0
EndChar

StartChar: N
Encoding: 78 78 49
Width: 1497
GlyphClass: 2
Flags: W
AnchorPoint: "Anchor-1" 684 0 basechar 0
AnchorPoint: "Anchor-0" 867 1479 basechar 0
LayerCount: 2
Fore
SplineSet
1250 421 m 1,0,-1
 1199 0 l 1,1,-1
 1086 0 l 1,2,-1
 444 1289 l 1,3,-1
 431 1289 l 1,4,-1
 327 475 l 1,5,-1
 271 0 l 1,6,-1
 164 0 l 1,7,-1
 227 440 l 1,8,-1
 354 1479 l 1,9,-1
 468 1479 l 1,10,-1
 1109 190 l 1,11,-1
 1120 190 l 1,12,-1
 1283 1472 l 1,13,-1
 1389 1481 l 1,14,-1
 1250 421 l 1,0,-1
EndSplineSet
Position2: "'cpsp' Capital Spacing lookup 0 subtable" dx=16 dy=0 dh=33 dv=0
EndChar

StartChar: O
Encoding: 79 79 50
Width: 1400
GlyphClass: 2
Flags: W
AnchorPoint: "Anchor-1" 0 0 basechar 0
AnchorPoint: "Anchor-0" 816 1479 basechar 0
LayerCount: 2
Fore
SplineSet
828 1493 m 0,0,1
 1074 1493 1074 1493 1207 1339.5 c 128,-1,2
 1340 1186 1340 1186 1340 905 c 0,3,4
 1340 622 1340 622 1257.5 415.5 c 128,-1,5
 1175 209 1175 209 1013.5 97.5 c 128,-1,6
 852 -14 852 -14 627 -14 c 0,7,8
 466 -14 466 -14 351.5 56.5 c 128,-1,9
 237 127 237 127 177.5 262.5 c 128,-1,10
 118 398 118 398 118 588 c 0,11,12
 118 868 118 868 200.5 1071.5 c 128,-1,13
 283 1275 283 1275 443.5 1384 c 128,-1,14
 604 1493 604 1493 828 1493 c 0,0,1
817 1396 m 0,15,16
 533 1396 533 1396 383.5 1186.5 c 128,-1,17
 234 977 234 977 234 597 c 0,18,19
 234 346 234 346 336.5 215 c 128,-1,20
 439 84 439 84 636 84 c 0,21,22
 825 84 825 84 957.5 180 c 128,-1,23
 1090 276 1090 276 1157 456 c 128,-1,24
 1224 636 1224 636 1224 888 c 0,25,26
 1224 1137 1224 1137 1121 1266.5 c 128,-1,27
 1018 1396 1018 1396 817 1396 c 0,15,16
EndSplineSet
Position2: "'cpsp' Capital Spacing lookup 0 subtable" dx=16 dy=0 dh=33 dv=0
EndChar

StartChar: P
Encoding: 80 80 51
Width: 1113
GlyphClass: 2
Flags: W
LayerCount: 2
Fore
SplineSet
351 1479 m 1,0,-1
 711 1481 l 2,1,2
 828 1481 828 1481 912 1440.5 c 128,-1,3
 996 1400 996 1400 1041 1317.5 c 128,-1,4
 1086 1235 1086 1235 1086 1118 c 0,5,6
 1086 947 1086 947 1020 819.5 c 128,-1,7
 954 692 954 692 826 621 c 128,-1,8
 698 550 698 550 523 550 c 2,9,-1
 342 550 l 1,10,-1
 331 455 l 1,11,-1
 278 0 l 1,12,-1
 164 0 l 1,13,-1
 229 449 l 1,14,-1
 351 1479 l 1,0,-1
356 647 m 1,15,-1
 611 645 l 1,16,17
 778 665 778 665 875 788 c 128,-1,18
 972 911 972 911 972 1099 c 0,19,20
 972 1373 972 1373 696 1387 c 1,21,-1
 451 1382 l 1,22,-1
 356 647 l 1,15,-1
EndSplineSet
Position2: "'cpsp' Capital Spacing lookup 0 subtable" dx=16 dy=0 dh=33 dv=0
EndChar

StartChar: Q
Encoding: 81 81 52
Width: 1387
GlyphClass: 2
Flags: W
LayerCount: 2
Fore
SplineSet
791 2 m 1,0,1
 895 -87 895 -87 1015.5 -156 c 128,-1,2
 1136 -225 1136 -225 1270 -271.5 c 128,-1,3
 1404 -318 1404 -318 1546 -340 c 1,4,-1
 1546 -358 l 1,5,6
 1519 -404 1519 -404 1495 -428 c 1,7,-1
 1484 -433 l 1,8,9
 1255 -393 1255 -393 1047 -284.5 c 128,-1,10
 839 -176 839 -176 676 -11 c 1,11,-1
 627 -14 l 1,12,13
 466 -14 466 -14 351.5 56.5 c 128,-1,14
 237 127 237 127 177.5 262.5 c 128,-1,15
 118 398 118 398 118 588 c 0,16,17
 118 868 118 868 200.5 1071.5 c 128,-1,18
 283 1275 283 1275 443.5 1384 c 128,-1,19
 604 1493 604 1493 828 1493 c 0,20,21
 1074 1493 1074 1493 1207 1339.5 c 128,-1,22
 1340 1186 1340 1186 1340 905 c 0,23,24
 1340 532 1340 532 1197.5 296 c 128,-1,25
 1055 60 1055 60 791 2 c 1,0,1
234 597 m 0,26,27
 234 346 234 346 336.5 215 c 128,-1,28
 439 84 439 84 636 84 c 0,29,30
 825 84 825 84 957.5 180 c 128,-1,31
 1090 276 1090 276 1157 456 c 128,-1,32
 1224 636 1224 636 1224 888 c 0,33,34
 1224 1137 1224 1137 1121 1266.5 c 128,-1,35
 1018 1396 1018 1396 817 1396 c 0,36,37
 533 1396 533 1396 383.5 1186.5 c 128,-1,38
 234 977 234 977 234 597 c 0,26,27
EndSplineSet
Substitution2: "Single Substitution lookup 41 subtable" Q.corta
Position2: "'cpsp' Capital Spacing lookup 0 subtable" dx=16 dy=0 dh=33 dv=0
EndChar

StartChar: R
Encoding: 82 82 53
Width: 1184
GlyphClass: 2
Flags: W
AnchorPoint: "Anchor-1" 527 0 basechar 0
AnchorPoint: "Anchor-0" 708 1479 basechar 0
LayerCount: 2
Fore
SplineSet
1088 1129 m 0,0,1
 1088 944 1088 944 991 808 c 128,-1,2
 894 672 894 672 720 607 c 1,3,4
 861 300 861 300 1027 26 c 1,5,-1
 1023 11 l 1,6,7
 986 -6 986 -6 925 -18 c 1,8,-1
 910 -9 l 1,9,10
 737 302 737 302 620 581 c 1,11,-1
 347 581 l 1,12,-1
 331 455 l 1,13,-1
 278 0 l 1,14,-1
 164 0 l 1,15,-1
 227 449 l 1,16,-1
 351 1479 l 1,17,-1
 713 1481 l 2,18,19
 892 1481 892 1481 990 1390 c 128,-1,20
 1088 1299 1088 1299 1088 1129 c 0,0,1
358 680 m 1,21,-1
 645 676 l 1,22,23
 803 721 803 721 887.5 833 c 128,-1,24
 972 945 972 945 972 1113 c 0,25,26
 972 1242 972 1242 902 1311 c 128,-1,27
 832 1380 832 1380 696 1387 c 1,28,-1
 451 1382 l 1,29,-1
 358 680 l 1,21,-1
EndSplineSet
Position2: "'cpsp' Capital Spacing lookup 0 subtable" dx=16 dy=0 dh=33 dv=0
EndChar

StartChar: S
Encoding: 83 83 54
Width: 1010
GlyphClass: 2
Flags: W
AnchorPoint: "Anchor-1" 441 0 basechar 0
AnchorPoint: "Anchor-0" 624 1479 basechar 0
LayerCount: 2
Fore
SplineSet
673 1488 m 0,0,1
 829 1488 829 1488 970 1418 c 1,2,-1
 937 1314 l 1,3,-1
 914 1307 l 1,4,5
 800 1393 800 1393 658 1393 c 0,6,7
 583 1393 583 1393 518.5 1368 c 128,-1,8
 454 1343 454 1343 411 1302.5 c 128,-1,9
 368 1262 368 1262 344 1210 c 128,-1,10
 320 1158 320 1158 320 1104 c 0,11,12
 320 1055 320 1055 339.5 1012 c 128,-1,13
 359 969 359 969 392 936.5 c 128,-1,14
 425 904 425 904 467.5 873.5 c 128,-1,15
 510 843 510 843 557.5 814 c 128,-1,16
 605 785 605 785 652.5 755.5 c 128,-1,17
 700 726 700 726 742.5 690 c 128,-1,18
 785 654 785 654 818 613.5 c 128,-1,19
 851 573 851 573 870.5 518 c 128,-1,20
 890 463 890 463 890 400 c 0,21,22
 890 287 890 287 827.5 192.5 c 128,-1,23
 765 98 765 98 653.5 43.5 c 128,-1,24
 542 -11 542 -11 407 -11 c 0,25,26
 315 -11 315 -11 220 16 c 128,-1,27
 125 43 125 43 53 93 c 1,28,-1
 79 206 l 1,29,-1
 99 212 l 1,30,31
 162 148 162 148 248 116 c 128,-1,32
 334 84 334 84 419 84 c 0,33,34
 496 84 496 84 563.5 108.5 c 128,-1,35
 631 133 631 133 677.5 174 c 128,-1,36
 724 215 724 215 750.5 269 c 128,-1,37
 777 323 777 323 777 382 c 0,38,39
 777 429 777 429 761.5 470.5 c 128,-1,40
 746 512 746 512 718.5 543.5 c 128,-1,41
 691 575 691 575 655 605 c 128,-1,42
 619 635 619 635 578 659.5 c 128,-1,43
 537 684 537 684 494 711.5 c 128,-1,44
 451 739 451 739 410 765.5 c 128,-1,45
 369 792 369 792 332.5 826.5 c 128,-1,46
 296 861 296 861 269 898.5 c 128,-1,47
 242 936 242 936 226 986 c 128,-1,48
 210 1036 210 1036 210 1093 c 0,49,50
 210 1203 210 1203 270.5 1293.5 c 128,-1,51
 331 1384 331 1384 437.5 1436 c 128,-1,52
 544 1488 544 1488 673 1488 c 0,0,1
EndSplineSet
Position2: "'cpsp' Capital Spacing lookup 0 subtable" dx=16 dy=0 dh=33 dv=0
EndChar

StartChar: T
Encoding: 84 84 55
Width: 1062
GlyphClass: 2
Flags: W
AnchorPoint: "Anchor-1" 467 0 basechar 0
AnchorPoint: "Anchor-0" 649 1479 basechar 0
LayerCount: 2
Fore
SplineSet
1124 1464 m 1,0,-1
 1102 1380 l 1,1,-1
 870 1384 l 1,2,-1
 696 1384 l 1,3,-1
 574 455 l 1,4,-1
 523 0 l 1,5,-1
 412 0 l 1,6,-1
 472 449 l 1,7,-1
 583 1384 l 1,8,-1
 415 1384 l 1,9,-1
 174 1380 l 1,10,-1
 164 1391 l 1,11,-1
 190 1479 l 1,12,-1
 1115 1479 l 1,13,-1
 1124 1464 l 1,0,-1
EndSplineSet
Position2: "'cpsp' Capital Spacing lookup 0 subtable" dx=16 dy=0 dh=33 dv=0
EndChar

StartChar: U
Encoding: 85 85 56
Width: 1365
GlyphClass: 2
Flags: W
AnchorPoint: "Anchor-1" 0 0 basechar 0
AnchorPoint: "Anchor-0" 801 1479 basechar 0
LayerCount: 2
Fore
SplineSet
1208 724 m 1,0,-1
 1188 544 l 2,1,2
 1159 278 1159 278 1013.5 133.5 c 128,-1,3
 868 -11 868 -11 623 -11 c 0,4,5
 409 -11 409 -11 291.5 99 c 128,-1,6
 174 209 174 209 174 412 c 0,7,8
 174 478 174 478 183 537 c 2,9,-1
 212 745 l 1,10,-1
 303 1479 l 1,11,-1
 412 1479 l 1,12,-1
 289 546 l 2,13,14
 282 490 282 490 282 437 c 0,15,16
 282 266 282 266 370 177 c 128,-1,17
 458 88 458 88 627 88 c 0,18,19
 822 88 822 88 938.5 202.5 c 128,-1,20
 1055 317 1055 317 1083 537 c 1,21,-1
 1194 1479 l 1,22,-1
 1305 1479 l 1,23,-1
 1208 724 l 1,0,-1
EndSplineSet
Position2: "'cpsp' Capital Spacing lookup 0 subtable" dx=16 dy=0 dh=33 dv=0
EndChar

StartChar: V
Encoding: 86 86 57
Width: 1205
GlyphClass: 2
Flags: W
LayerCount: 2
Fore
SplineSet
590 0 m 1,0,-1
 463 0 l 1,1,-1
 157 1479 l 1,2,-1
 273 1479 l 1,3,-1
 289 1354 l 1,4,-1
 539 130 l 1,5,-1
 548 130 l 1,6,-1
 1144 1351 l 1,7,-1
 1192 1479 l 1,8,-1
 1305 1479 l 1,9,-1
 590 0 l 1,0,-1
EndSplineSet
Substitution2: "Single Substitution lookup 41 subtable" V.ss01
Substitution2: "'ss01' Style Set 1 lookup 35 subtable" V.ss01
Substitution2: "'aalt' Access All Alternates lookup 0 subtable" V.ss01
Position2: "'cpsp' Capital Spacing lookup 0 subtable" dx=16 dy=0 dh=33 dv=0
EndChar

StartChar: W
Encoding: 87 87 58
Width: 1948
GlyphClass: 2
Flags: W
AnchorPoint: "Anchor-1" 0 0 basechar 0
AnchorPoint: "Anchor-0" 1044 1479 basechar 0
LayerCount: 2
Fore
SplineSet
1336 0 m 1,0,-1
 1219 0 l 1,1,-1
 1032 942 l 1,2,-1
 1020 942 l 1,3,-1
 574 0 l 1,4,-1
 455 0 l 1,5,-1
 170 1479 l 1,6,-1
 282 1479 l 1,7,-1
 294 1358 l 1,8,-1
 532 137 l 1,9,-1
 546 137 l 1,10,-1
 1000 1099 l 1,11,-1
 921 1479 l 1,12,-1
 1037 1479 l 1,13,-1
 1053 1351 l 1,14,-1
 1292 137 l 1,15,-1
 1305 137 l 1,16,-1
 1886 1354 l 1,17,-1
 1932 1479 l 1,18,-1
 2043 1479 l 1,19,-1
 1336 0 l 1,0,-1
EndSplineSet
Position2: "'cpsp' Capital Spacing lookup 0 subtable" dx=16 dy=0 dh=33 dv=0
EndChar

StartChar: X
Encoding: 88 88 59
Width: 1270
GlyphClass: 2
Flags: W
LayerCount: 2
Fore
SplineSet
729 762 m 1,0,-1
 1115 0 l 1,1,-1
 985 0 l 1,2,-1
 945 102 l 1,3,-1
 641 680 l 1,4,-1
 192 95 l 1,5,-1
 128 0 l 1,6,-1
 2 0 l 1,7,-1
 585 764 l 1,8,-1
 220 1479 l 1,9,-1
 351 1479 l 1,10,-1
 391 1380 l 1,11,-1
 669 842 l 1,12,-1
 1076 1375 l 1,13,-1
 1144 1479 l 1,14,-1
 1270 1479 l 1,15,-1
 729 762 l 1,0,-1
EndSplineSet
Substitution2: "Single Substitution lookup 41 subtable" X.ss01
Substitution2: "'ss01' Style Set 1 lookup 35 subtable" X.ss01
Substitution2: "'aalt' Access All Alternates lookup 0 subtable" X.ss01
Position2: "'cpsp' Capital Spacing lookup 0 subtable" dx=16 dy=0 dh=33 dv=0
EndChar

StartChar: Y
Encoding: 89 89 60
Width: 1124
GlyphClass: 2
Flags: W
AnchorPoint: "Anchor-1" 0 0 basechar 0
AnchorPoint: "Anchor-0" 680 1479 basechar 0
LayerCount: 2
Fore
SplineSet
597 553 m 1,0,-1
 581 442 l 1,1,-1
 530 0 l 1,2,-1
 419 0 l 1,3,-1
 479 442 l 1,4,-1
 493 550 l 1,5,-1
 164 1479 l 1,6,-1
 287 1479 l 1,7,-1
 303 1407 l 1,8,-1
 556 685 l 1,9,-1
 570 685 l 1,10,-1
 1032 1405 l 1,11,-1
 1069 1479 l 1,12,-1
 1194 1479 l 1,13,-1
 597 553 l 1,0,-1
EndSplineSet
Position2: "'cpsp' Capital Spacing lookup 0 subtable" dx=16 dy=0 dh=33 dv=0
EndChar

StartChar: Z
Encoding: 90 90 61
Width: 1140
GlyphClass: 2
Flags: W
AnchorPoint: "Anchor-1" 0 0 basechar 0
AnchorPoint: "Anchor-0" 615 1479 basechar 0
LayerCount: 2
Fore
SplineSet
1155 1393 m 1,0,-1
 157 95 l 1,1,-1
 810 95 l 1,2,-1
 988 104 l 1,3,-1
 998 93 l 1,4,-1
 974 -2 l 1,5,-1
 768 0 l 1,6,-1
 111 0 l 1,7,-1
 9 -5 l 1,8,-1
 20 81 l 1,9,-1
 1016 1382 l 1,10,-1
 396 1382 l 1,11,-1
 227 1372 l 1,12,-1
 218 1387 l 1,13,-1
 243 1481 l 1,14,-1
 433 1479 l 1,15,-1
 1069 1479 l 1,16,-1
 1164 1481 l 1,17,-1
 1155 1393 l 1,0,-1
EndSplineSet
Position2: "'cpsp' Capital Spacing lookup 0 subtable" dx=16 dy=0 dh=33 dv=0
EndChar

StartChar: bracketleft
Encoding: 91 91 62
Width: 658
GlyphClass: 2
Flags: W
LayerCount: 2
Fore
SplineSet
738 1486 m 1,0,-1
 731 1426 l 1,1,-1
 440 1402 l 1,2,-1
 243 -210 l 1,3,-1
 528 -234 l 1,4,-1
 521 -294 l 1,5,-1
 507 -303 l 1,6,-1
 137 -280 l 1,7,-1
 250 597 l 1,8,-1
 354 1472 l 1,9,-1
 729 1495 l 1,10,-1
 738 1486 l 1,0,-1
EndSplineSet
EndChar

StartChar: backslash
Encoding: 92 92 63
Width: 751
GlyphClass: 2
Flags: W
LayerCount: 2
Fore
SplineSet
220 1564 m 1,0,-1
 694 -245 l 1,1,-1
 683 -257 l 1,2,-1
 605 -257 l 1,3,-1
 132 1550 l 1,4,-1
 141 1564 l 1,5,-1
 220 1564 l 1,0,-1
EndSplineSet
EndChar

StartChar: bracketright
Encoding: 93 93 64
Width: 658
GlyphClass: 2
Flags: W
LayerCount: 2
Fore
SplineSet
-60 -292 m 1,0,-1
 -53 -234 l 1,1,-1
 238 -208 l 1,2,-1
 435 1402 l 1,3,-1
 150 1426 l 1,4,-1
 157 1486 l 1,5,-1
 170 1495 l 1,6,-1
 539 1472 l 1,7,-1
 428 594 l 1,8,-1
 324 -280 l 1,9,-1
 -53 -303 l 1,10,-1
 -60 -292 l 1,0,-1
EndSplineSet
EndChar

StartChar: asciicircum
Encoding: 94 94 65
Width: 959
GlyphClass: 2
Flags: W
LayerCount: 2
Fore
SplineSet
879 294 m 1,0,-1
 870 280 l 1,1,-1
 799 261 l 1,2,-1
 563 1037 l 1,3,-1
 550 1037 l 1,4,-1
 102 269 l 1,5,-1
 86 261 l 1,6,-1
 23 289 l 1,7,-1
 507 1122 l 1,8,-1
 523 1131 l 1,9,-1
 620 1131 l 1,10,-1
 879 294 l 1,0,-1
EndSplineSet
EndChar

StartChar: underscore
Encoding: 95 95 66
Width: 1047
GlyphClass: 2
Flags: W
LayerCount: 2
Fore
SplineSet
991 -210 m 1,0,-1
 974 -282 l 1,1,-1
 -123 -282 l 1,2,-1
 -132 -273 l 1,3,-1
 -115 -201 l 1,4,-1
 983 -201 l 1,5,-1
 991 -210 l 1,0,-1
EndSplineSet
EndChar

StartChar: grave
Encoding: 96 96 67
Width: 901
GlyphClass: 2
Flags: W
LayerCount: 2
Fore
SplineSet
391 1576 m 1,0,-1
 407 1579 l 1,1,2
 569 1416 569 1416 764 1252 c 1,3,-1
 727 1201 l 1,4,-1
 711 1199 l 1,5,6
 493 1375 493 1375 349 1504 c 1,7,-1
 347 1518 l 1,8,-1
 391 1576 l 1,0,-1
EndSplineSet
EndChar

StartChar: a
Encoding: 97 97 68
Width: 996
GlyphClass: 2
Flags: W
AnchorPoint: "Anchor-1" 0 0 basechar 0
AnchorPoint: "Anchor-0" 578 1053 basechar 0
LayerCount: 2
Fore
SplineSet
868 1060 m 1,0,-1
 759 250 l 1,1,-1
 742 2 l 1,2,-1
 625 -9 l 1,3,-1
 702 544 l 1,4,-1
 683 544 l 1,5,6
 499 202 499 202 269 -14 c 1,7,-1
 241 -14 l 1,8,9
 164 36 164 36 128.5 116.5 c 128,-1,10
 93 197 93 197 93 331 c 0,11,12
 93 439 93 439 114.5 540.5 c 128,-1,13
 136 642 136 642 180 732.5 c 128,-1,14
 224 823 224 823 286.5 893 c 128,-1,15
 349 963 349 963 436 1009 c 128,-1,16
 523 1055 523 1055 625 1067 c 1,17,-1
 634 1067 l 1,18,-1
 780 1032 l 1,19,-1
 852 1069 l 1,20,-1
 868 1060 l 1,0,-1
273 115 m 0,21,22
 287 115 287 115 318 142.5 c 128,-1,23
 349 170 349 170 396 228 c 128,-1,24
 443 286 443 286 496.5 364 c 128,-1,25
 550 442 550 442 614 555 c 128,-1,26
 678 668 678 668 736 793 c 1,27,-1
 740 833 l 1,28,-1
 748 937 l 1,29,-1
 609 972 l 1,30,31
 515 971 515 971 435.5 920.5 c 128,-1,32
 356 870 356 870 304 785.5 c 128,-1,33
 252 701 252 701 223 590.5 c 128,-1,34
 194 480 194 480 194 358 c 0,35,36
 194 319 194 319 197 285.5 c 128,-1,37
 200 252 200 252 205 228 c 128,-1,38
 210 204 210 204 216.5 184 c 128,-1,39
 223 164 223 164 230.5 151.5 c 128,-1,40
 238 139 238 139 245.5 130.5 c 128,-1,41
 253 122 253 122 260 118.5 c 128,-1,42
 267 115 267 115 273 115 c 0,21,22
EndSplineSet
Substitution2: "'ss02' Style Set 2 lookup 36 subtable" left
Substitution2: "'case' Case-Sensitive Forms lookup 28 subtable" A
Substitution2: "'ordn' Ordinals lookup 22 subtable" a.sups
Substitution2: "'sups' Superscript lookup 16 subtable" a.sups
AlternateSubs2: "'aalt' Access All Alternates lookup 1 subtable" a.sups A left
EndChar

StartChar: b
Encoding: 98 98 69
Width: 998
GlyphClass: 2
Flags: W
AnchorPoint: "Anchor-1" 622 0 basechar 0
AnchorPoint: "Anchor-0" 453 909 basechar 0
LayerCount: 2
Fore
SplineSet
727 1064 m 1,0,-1
 757 1064 l 1,1,2
 833 1013 833 1013 869 933 c 128,-1,3
 905 853 905 853 905 722 c 0,4,5
 905 614 905 614 883.5 512.5 c 128,-1,6
 862 411 862 411 817 320.5 c 128,-1,7
 772 230 772 230 709 160 c 128,-1,8
 646 90 646 90 558 44 c 128,-1,9
 470 -2 470 -2 366 -14 c 1,10,-1
 356 -14 l 1,11,-1
 192 28 l 1,12,-1
 132 37 l 1,13,-1
 318 1398 l 1,14,-1
 329 1616 l 1,15,-1
 446 1627 l 1,16,-1
 294 507 l 1,17,-1
 310 507 l 1,18,19
 500 852 500 852 727 1064 c 1,0,-1
247 115 m 1,20,-1
 382 81 l 1,21,22
 478 81 478 81 558.5 131 c 128,-1,23
 639 181 639 181 692 266 c 128,-1,24
 745 351 745 351 774 461.5 c 128,-1,25
 803 572 803 572 803 694 c 0,26,27
 803 739 803 739 799.5 776.5 c 128,-1,28
 796 814 796 814 789 839.5 c 128,-1,29
 782 865 782 865 774 884 c 128,-1,30
 766 903 766 903 756.5 914 c 128,-1,31
 747 925 747 925 738.5 930 c 128,-1,32
 730 935 730 935 722 935 c 0,33,34
 712 935 712 935 688.5 915 c 128,-1,35
 665 895 665 895 631.5 858 c 128,-1,36
 598 821 598 821 554 762 c 128,-1,37
 510 703 510 703 463 632.5 c 128,-1,38
 416 562 416 562 363 466 c 128,-1,39
 310 370 310 370 261 267 c 1,40,-1
 247 115 l 1,20,-1
EndSplineSet
Substitution2: "'ss02' Style Set 2 lookup 36 subtable" up
Substitution2: "'case' Case-Sensitive Forms lookup 28 subtable" B
Substitution2: "'ordn' Ordinals lookup 22 subtable" b.sups
Substitution2: "'sups' Superscript lookup 16 subtable" b.sups
AlternateSubs2: "'aalt' Access All Alternates lookup 1 subtable" b.sups B up
EndChar

StartChar: c
Encoding: 99 99 70
Width: 760
GlyphClass: 2
Flags: W
AnchorPoint: "Anchor-1" 381 0 basechar 0
AnchorPoint: "Anchor-0" 523 1053 basechar 0
LayerCount: 2
Fore
SplineSet
753 1018 m 1,0,-1
 764 998 l 1,1,-1
 733 914 l 1,2,-1
 709 907 l 1,3,4
 629 974 629 974 558 974 c 0,5,6
 391 972 391 972 295 808 c 128,-1,7
 199 644 199 644 199 360 c 0,8,9
 199 213 199 213 236 149.5 c 128,-1,10
 273 86 273 86 351 86 c 0,11,12
 499 86 499 86 614 307 c 1,13,-1
 634 307 l 1,14,-1
 671 252 l 1,15,16
 600 127 600 127 524 68 c 128,-1,17
 448 9 448 9 345 -14 c 1,18,-1
 322 -14 l 1,19,20
 277 -6 277 -6 244.5 6.5 c 128,-1,21
 212 19 212 19 182.5 44.5 c 128,-1,22
 153 70 153 70 134.5 108.5 c 128,-1,23
 116 147 116 147 105.5 206.5 c 128,-1,24
 95 266 95 266 95 347 c 0,25,26
 95 469 95 469 114 575.5 c 128,-1,27
 133 682 133 682 174 772.5 c 128,-1,28
 215 863 215 863 275 927.5 c 128,-1,29
 335 992 335 992 421.5 1028 c 128,-1,30
 508 1064 508 1064 614 1064 c 1,31,-1
 753 1018 l 1,0,-1
EndSplineSet
Substitution2: "Single Substitution lookup 41 subtable" C.ss01
Substitution2: "'ss02' Style Set 2 lookup 36 subtable" right
Substitution2: "'ss01' Style Set 1 lookup 35 subtable" C.ss01
Substitution2: "'case' Case-Sensitive Forms lookup 28 subtable" C
Substitution2: "'ordn' Ordinals lookup 22 subtable" c.sups
Substitution2: "'sups' Superscript lookup 16 subtable" c.sups
AlternateSubs2: "'aalt' Access All Alternates lookup 1 subtable" c.sups C C.ss01 right
EndChar

StartChar: d
Encoding: 100 100 71
Width: 998
GlyphClass: 2
Flags: W
AnchorPoint: "Anchor-1" 757 0 basechar 0
AnchorPoint: "Anchor-0" 759 1053 basechar 0
LayerCount: 2
Fore
SplineSet
951 1627 m 1,0,-1
 764 250 l 1,1,-1
 748 2 l 1,2,-1
 629 -9 l 1,3,-1
 706 544 l 1,4,-1
 687 544 l 1,5,6
 496 199 496 199 267 -14 c 1,7,-1
 236 -14 l 1,8,9
 187 18 187 18 155 62.5 c 128,-1,10
 123 107 123 107 106.5 173 c 128,-1,11
 90 239 90 239 90 329 c 0,12,13
 90 436 90 436 112 538 c 128,-1,14
 134 640 134 640 178.5 730.5 c 128,-1,15
 223 821 223 821 286.5 891 c 128,-1,16
 350 961 350 961 438 1007 c 128,-1,17
 526 1053 526 1053 629 1064 c 1,18,-1
 641 1064 l 1,19,-1
 773 1034 l 1,20,-1
 822 1398 l 1,21,-1
 833 1616 l 1,22,-1
 951 1627 l 1,0,-1
271 115 m 0,23,24
 284 115 284 115 315.5 142.5 c 128,-1,25
 347 170 347 170 395 228 c 128,-1,26
 443 286 443 286 497 363.5 c 128,-1,27
 551 441 551 441 615.5 554 c 128,-1,28
 680 667 680 667 738 791 c 1,29,-1
 759 937 l 1,30,-1
 616 970 l 1,31,32
 519 970 519 970 438 919.5 c 128,-1,33
 357 869 357 869 303.5 784 c 128,-1,34
 250 699 250 699 221 588.5 c 128,-1,35
 192 478 192 478 192 356 c 0,36,37
 192 311 192 311 196 273 c 128,-1,38
 200 235 200 235 206.5 210 c 128,-1,39
 213 185 213 185 221 165.5 c 128,-1,40
 229 146 229 146 238 135.5 c 128,-1,41
 247 125 247 125 255.5 120 c 128,-1,42
 264 115 264 115 271 115 c 0,23,24
EndSplineSet
Substitution2: "Single Substitution lookup 41 subtable" D.ss01
Substitution2: "'ss02' Style Set 2 lookup 36 subtable" down
Substitution2: "'ss01' Style Set 1 lookup 35 subtable" D.ss01
Substitution2: "'case' Case-Sensitive Forms lookup 28 subtable" D
Substitution2: "'ordn' Ordinals lookup 22 subtable" d.sups
Substitution2: "'sups' Superscript lookup 16 subtable" d.sups
AlternateSubs2: "'aalt' Access All Alternates lookup 1 subtable" d.sups D D.ss01 down
EndChar

StartChar: e
Encoding: 101 101 72
Width: 841
GlyphClass: 2
Flags: W
AnchorPoint: "Anchor-1" 375 0 basechar 0
AnchorPoint: "Anchor-0" 541 1053 basechar 0
LayerCount: 2
Fore
SplineSet
676 310 m 1,0,-1
 718 254 l 1,1,2
 641 137 641 137 556.5 71.5 c 128,-1,3
 472 6 472 6 368 -14 c 1,4,-1
 342 -14 l 1,5,6
 213 0 213 0 154 88 c 128,-1,7
 95 176 95 176 95 345 c 0,8,9
 95 548 95 548 156.5 711.5 c 128,-1,10
 218 875 218 875 328.5 969 c 128,-1,11
 439 1063 439 1063 579 1069 c 1,12,-1
 594 1067 l 2,13,14
 654 1060 654 1060 695.5 1037 c 128,-1,15
 737 1014 737 1014 758.5 975.5 c 128,-1,16
 780 937 780 937 780 884 c 0,17,18
 780 751 780 751 636 630.5 c 128,-1,19
 492 510 492 510 201 407 c 1,20,-1
 201 375 l 2,21,22
 201 224 201 224 241.5 155 c 128,-1,23
 282 86 282 86 366 86 c 0,24,25
 446 86 446 86 521.5 145.5 c 128,-1,26
 597 205 597 205 655 310 c 1,27,-1
 676 310 l 1,0,-1
558 981 m 0,28,29
 425 981 425 981 328 847 c 128,-1,30
 231 713 231 713 208 497 c 1,31,32
 434 575 434 575 555 673 c 128,-1,33
 676 771 676 771 676 875 c 0,34,35
 676 924 676 924 647 952.5 c 128,-1,36
 618 981 618 981 558 981 c 0,28,29
EndSplineSet
Substitution2: "'ss02' Style Set 2 lookup 36 subtable" square1
Substitution2: "'case' Case-Sensitive Forms lookup 28 subtable" E
Substitution2: "'ordn' Ordinals lookup 22 subtable" e.sups
Substitution2: "'sups' Superscript lookup 16 subtable" e.sups
AlternateSubs2: "'aalt' Access All Alternates lookup 1 subtable" e.sups E square1
EndChar

StartChar: f
Encoding: 102 102 73
Width: 621
GlyphClass: 2
Flags: W
LayerCount: 2
Fore
SplineSet
937 1590 m 1,0,-1
 905 1502 l 1,1,-1
 886 1500 l 1,2,3
 796 1544 796 1544 713 1544 c 0,4,5
 606 1544 606 1544 539 1470.5 c 128,-1,6
 472 1397 472 1397 455 1259 c 1,7,-1
 426 1040 l 1,8,-1
 685 1040 l 1,9,-1
 696 1027 l 1,10,-1
 683 958 l 1,11,-1
 417 958 l 1,12,-1
 349 451 l 1,13,-1
 282 -44 l 1,14,-1
 269 -289 l 1,15,-1
 150 -303 l 1,16,-1
 250 440 l 1,17,-1
 318 958 l 1,18,-1
 157 958 l 1,19,-1
 146 970 l 1,20,-1
 159 1040 l 1,21,-1
 329 1040 l 1,22,-1
 354 1236 l 1,23,24
 408 1632 408 1632 740 1632 c 1,25,-1
 932 1599 l 1,26,-1
 937 1590 l 1,0,-1
EndSplineSet
Substitution2: "Single Substitution lookup 41 subtable" f.t
Substitution2: "Single Substitution lookup 40 subtable" f.l
Substitution2: "Single Substitution lookup 39 subtable" f.f
Substitution2: "'ss02' Style Set 2 lookup 36 subtable" square2
Substitution2: "'case' Case-Sensitive Forms lookup 28 subtable" F
Substitution2: "'ordn' Ordinals lookup 22 subtable" f.sups
Substitution2: "'sups' Superscript lookup 16 subtable" f.sups
AlternateSubs2: "'aalt' Access All Alternates lookup 1 subtable" f.sups F square2
EndChar

StartChar: g
Encoding: 103 103 74
Width: 989
GlyphClass: 2
Flags: W
AnchorPoint: "Anchor-1" 0 0 basechar 0
AnchorPoint: "Anchor-0" 569 1053 basechar 0
LayerCount: 2
Fore
SplineSet
863 1060 m 1,0,-1
 759 285 l 1,1,-1
 736 86 l 1,2,3
 718 -46 718 -46 671 -149.5 c 128,-1,4
 624 -253 624 -253 555.5 -319.5 c 128,-1,5
 487 -386 487 -386 400.5 -420.5 c 128,-1,6
 314 -455 314 -455 215 -455 c 0,7,8
 75 -455 75 -455 -13.5 -382 c 128,-1,9
 -102 -309 -102 -309 -132 -174 c 1,10,-1
 -125 -155 l 1,11,-1
 210 86 l 1,12,-1
 210 104 l 1,13,14
 166 147 166 147 144.5 211 c 128,-1,15
 123 275 123 275 123 375 c 0,16,17
 123 479 123 479 144 575.5 c 128,-1,18
 165 672 165 672 207 756 c 128,-1,19
 249 840 249 840 308.5 905 c 128,-1,20
 368 970 368 970 449.5 1012 c 128,-1,21
 531 1054 531 1054 627 1064 c 1,22,-1
 636 1064 l 1,23,-1
 773 1032 l 1,24,-1
 845 1069 l 1,25,-1
 863 1060 l 1,0,-1
742 942 m 1,26,-1
 611 972 l 1,27,28
 540 972 540 972 477.5 942 c 128,-1,29
 415 912 415 912 369 859.5 c 128,-1,30
 323 807 323 807 290.5 736 c 128,-1,31
 258 665 258 665 241.5 582 c 128,-1,32
 225 499 225 499 225 409 c 0,33,34
 225 372 225 372 228 340 c 128,-1,35
 231 308 231 308 235.5 285 c 128,-1,36
 240 262 240 262 246.5 243 c 128,-1,37
 253 224 253 224 260 211.5 c 128,-1,38
 267 199 267 199 274 191 c 128,-1,39
 281 183 281 183 287 179.5 c 128,-1,40
 293 176 293 176 298 176 c 0,41,42
 309 176 309 176 336.5 202 c 128,-1,43
 364 228 364 228 407 282 c 128,-1,44
 450 336 450 336 499.5 408 c 128,-1,45
 549 480 549 480 610 583 c 128,-1,46
 671 686 671 686 729 799 c 1,47,-1
 736 842 l 1,48,-1
 742 942 l 1,26,-1
234 -368 m 0,49,50
 390 -368 390 -368 496 -258.5 c 128,-1,51
 602 -149 602 -149 629 58 c 2,52,-1
 698 572 l 1,53,-1
 683 572 l 1,54,55
 573 394 573 394 480.5 270 c 128,-1,56
 388 146 388 146 292 64 c 1,57,-1
 9 -159 l 2,58,59
 -2 -168 -2 -168 -5.5 -174 c 128,-1,60
 -9 -180 -9 -180 -9 -190 c 0,61,62
 -7 -216 -7 -216 9 -246 c 128,-1,63
 25 -276 25 -276 53.5 -304 c 128,-1,64
 82 -332 82 -332 129.5 -350 c 128,-1,65
 177 -368 177 -368 234 -368 c 0,49,50
EndSplineSet
Substitution2: "'ss02' Style Set 2 lookup 36 subtable" circle1
Substitution2: "'case' Case-Sensitive Forms lookup 28 subtable" G
Substitution2: "'ordn' Ordinals lookup 22 subtable" g.sups
Substitution2: "'sups' Superscript lookup 16 subtable" g.sups
AlternateSubs2: "'aalt' Access All Alternates lookup 1 subtable" g.sups G circle1
EndChar

StartChar: h
Encoding: 104 104 75
Width: 1058
GlyphClass: 2
Flags: W
AnchorPoint: "Anchor-1" 0 0 basechar 0
AnchorPoint: "Anchor-0" 381 1620 basechar 0
LayerCount: 2
Fore
SplineSet
755 1071 m 1,0,-1
 780 1071 l 1,1,2
 848 1056 848 1056 889.5 1002 c 128,-1,3
 931 948 931 948 928 872 c 1,4,-1
 925 842 l 1,5,-1
 828 241 l 1,6,-1
 808 2 l 1,7,-1
 689 -9 l 1,8,-1
 822 808 l 1,9,-1
 824 840 l 1,10,11
 824 885 824 885 805.5 916 c 128,-1,12
 787 947 787 947 759 947 c 0,13,14
 695 947 695 947 559.5 763 c 128,-1,15
 424 579 424 579 259 252 c 1,16,-1
 259 250 l 1,17,-1
 243 2 l 1,18,-1
 123 -9 l 1,19,-1
 318 1398 l 1,20,-1
 327 1616 l 1,21,-1
 446 1627 l 1,22,-1
 292 488 l 1,23,-1
 307 488 l 1,24,25
 436 714 436 714 542 854.5 c 128,-1,26
 648 995 648 995 755 1071 c 1,0,-1
EndSplineSet
Substitution2: "'ss02' Style Set 2 lookup 36 subtable" circle2
Substitution2: "'case' Case-Sensitive Forms lookup 28 subtable" H
Substitution2: "'ordn' Ordinals lookup 22 subtable" h.sups
Substitution2: "'sups' Superscript lookup 16 subtable" h.sups
AlternateSubs2: "'aalt' Access All Alternates lookup 1 subtable" h.sups H circle2
EndChar

StartChar: i
Encoding: 105 105 76
Width: 488
GlyphClass: 2
Flags: W
AnchorPoint: "Anchor-1" 0 0 basechar 0
AnchorPoint: "Anchor-0" 305 1053 basechar 0
LayerCount: 2
Fore
SplineSet
351.5 1495 m 128,-1,1
 386 1495 386 1495 405 1475 c 128,-1,2
 424 1455 424 1455 424 1420.5 c 128,-1,3
 424 1386 424 1386 404 1365.5 c 128,-1,4
 384 1345 384 1345 349 1345 c 128,-1,5
 314 1345 314 1345 295 1364 c 128,-1,6
 276 1383 276 1383 276 1418 c 128,-1,7
 276 1453 276 1453 296.5 1474 c 128,-1,0
 317 1495 317 1495 351.5 1495 c 128,-1,1
254 250 m 1,8,-1
 241 2 l 1,9,-1
 120 -9 l 1,10,-1
 236 833 l 1,11,-1
 247 1051 l 1,12,-1
 364 1062 l 1,13,-1
 254 250 l 1,8,-1
EndSplineSet
Substitution2: "Single Substitution lookup 41 subtable" I.ss01
Substitution2: "'ss01' Style Set 1 lookup 35 subtable" I.ss01
Substitution2: "'case' Case-Sensitive Forms lookup 28 subtable" I
Substitution2: "'ordn' Ordinals lookup 22 subtable" i.sups
Substitution2: "'sups' Superscript lookup 16 subtable" i.sups
Substitution2: "'locl' Localized Forms in Latin lookup 9 subtable" idotaccent
Substitution2: "'locl' Localized Forms in Latin lookup 8 subtable" idotaccent
Substitution2: "'locl' Localized Forms in Latin lookup 7 subtable" idotaccent
Substitution2: "'locl' Localized Forms in Latin lookup 6 subtable" idotaccent
Substitution2: "'locl' Localized Forms in Latin lookup 5 subtable" idotaccent
AlternateSubs2: "'aalt' Access All Alternates lookup 1 subtable" idotaccent i.sups I I.ss01
EndChar

StartChar: j
Encoding: 106 106 77
Width: 513
GlyphClass: 2
Flags: W
AnchorPoint: "Anchor-1" 0 0 basechar 0
AnchorPoint: "Anchor-0" 307 1053 basechar 0
LayerCount: 2
Fore
SplineSet
353.5 1495 m 128,-1,1
 388 1495 388 1495 407 1475 c 128,-1,2
 426 1455 426 1455 426 1420.5 c 128,-1,3
 426 1386 426 1386 406 1365.5 c 128,-1,4
 386 1345 386 1345 351.5 1345 c 128,-1,5
 317 1345 317 1345 297.5 1364 c 128,-1,6
 278 1383 278 1383 278 1418 c 128,-1,7
 278 1453 278 1453 298.5 1474 c 128,-1,0
 319 1495 319 1495 353.5 1495 c 128,-1,1
391 1051 m 1,8,-1
 282 234 l 1,9,-1
 259 42 l 1,10,11
 242 -83 242 -83 207 -168 c 128,-1,12
 172 -253 172 -253 111 -317.5 c 128,-1,13
 50 -382 50 -382 -53 -446 c 1,14,-1
 -95 -393 l 1,15,-1
 -93 -377 l 1,16,17
 27 -296 27 -296 80 -209.5 c 128,-1,18
 133 -123 133 -123 153 26 c 2,19,-1
 267 837 l 1,20,-1
 273 958 l 1,21,-1
 90 958 l 1,22,-1
 81 970 l 1,23,-1
 93 1040 l 1,24,-1
 276 1040 l 1,25,-1
 384 1055 l 1,26,-1
 391 1051 l 1,8,-1
EndSplineSet
Substitution2: "'case' Case-Sensitive Forms lookup 28 subtable" J
Substitution2: "'ordn' Ordinals lookup 22 subtable" j.sups
Substitution2: "'sups' Superscript lookup 16 subtable" j.sups
AlternateSubs2: "'aalt' Access All Alternates lookup 1 subtable" j.sups J
EndChar

StartChar: k
Encoding: 107 107 78
Width: 1027
GlyphClass: 2
Flags: W
AnchorPoint: "Anchor-1" 481 0 basechar 0
AnchorPoint: "Anchor-0" 249 1053 basechar 0
LayerCount: 2
Fore
SplineSet
963 866 m 0,0,1
 963 631 963 631 599 424 c 1,2,3
 759 179 759 179 890 7 c 1,4,-1
 886 -2 l 1,5,-1
 797 -26 l 1,6,-1
 782 -20 l 1,7,8
 678 123 678 123 493 415 c 1,9,-1
 497 440 l 1,10,11
 854 649 854 649 854 840 c 0,12,13
 854 868 854 868 847 889.5 c 128,-1,14
 840 911 840 911 828 923 c 128,-1,15
 816 935 816 935 803.5 941 c 128,-1,16
 791 947 791 947 777 947 c 0,17,18
 700 947 700 947 566 770 c 128,-1,19
 432 593 432 593 259 247 c 1,20,-1
 243 2 l 1,21,-1
 125 -9 l 1,22,-1
 318 1398 l 1,23,-1
 329 1616 l 1,24,-1
 446 1627 l 1,25,-1
 294 502 l 1,26,-1
 310 502 l 1,27,28
 378 617 378 617 429 695.5 c 128,-1,29
 480 774 480 774 538.5 851.5 c 128,-1,30
 597 929 597 929 652.5 981 c 128,-1,31
 708 1033 708 1033 764 1064 c 1,32,-1
 801 1067 l 1,33,34
 849 1057 849 1057 884.5 1033.5 c 128,-1,35
 920 1010 920 1010 941.5 967 c 128,-1,36
 963 924 963 924 963 866 c 0,0,1
EndSplineSet
Substitution2: "'case' Case-Sensitive Forms lookup 28 subtable" K
Substitution2: "'ordn' Ordinals lookup 22 subtable" k.sups
Substitution2: "'sups' Superscript lookup 16 subtable" k.sups
AlternateSubs2: "'aalt' Access All Alternates lookup 1 subtable" k.sups K
EndChar

StartChar: l
Encoding: 108 108 79
Width: 497
GlyphClass: 2
Flags: W
AnchorPoint: "Anchor-1" 185 0 basechar 0
AnchorPoint: "Anchor-0" 386 1620 basechar 0
LayerCount: 2
Fore
SplineSet
259 250 m 1,0,-1
 243 2 l 1,1,-1
 125 -9 l 1,2,-1
 318 1398 l 1,3,-1
 329 1616 l 1,4,-1
 446 1627 l 1,5,-1
 259 250 l 1,0,-1
EndSplineSet
Substitution2: "Single Substitution lookup 41 subtable" L.ss01
Substitution2: "'ss01' Style Set 1 lookup 35 subtable" L.ss01
Substitution2: "'case' Case-Sensitive Forms lookup 28 subtable" L
Substitution2: "'ordn' Ordinals lookup 22 subtable" l.sups
Substitution2: "'sups' Superscript lookup 16 subtable" l.sups
AlternateSubs2: "'aalt' Access All Alternates lookup 1 subtable" l.sups L L.ss01
EndChar

StartChar: m
Encoding: 109 109 80
Width: 1630
GlyphClass: 2
Flags: W
AnchorPoint: "Anchor-1" 543 0 basechar 0
AnchorPoint: "Anchor-0" 305 1053 basechar 0
LayerCount: 2
Fore
SplineSet
1329 1071 m 1,0,-1
 1354 1071 l 1,1,2
 1420 1056 1420 1056 1461.5 1002 c 128,-1,3
 1503 948 1503 948 1502 872 c 1,4,-1
 1500 842 l 1,5,-1
 1402 241 l 1,6,-1
 1382 2 l 1,7,-1
 1261 -9 l 1,8,-1
 1393 808 l 1,9,-1
 1396 840 l 1,10,11
 1396 862 1396 862 1392 881.5 c 128,-1,12
 1388 901 1388 901 1379.5 915.5 c 128,-1,13
 1371 930 1371 930 1359 938.5 c 128,-1,14
 1347 947 1347 947 1333 947 c 0,15,16
 1269 947 1269 947 1130.5 759 c 128,-1,17
 992 571 992 571 824 238 c 1,18,-1
 803 2 l 1,19,-1
 685 -9 l 1,20,-1
 817 808 l 1,21,-1
 819 840 l 1,22,23
 819 885 819 885 801 916 c 128,-1,24
 783 947 783 947 755 947 c 0,25,26
 692 947 692 947 557.5 763.5 c 128,-1,27
 423 580 423 580 254 252 c 1,28,-1
 254 250 l 1,29,-1
 241 2 l 1,30,-1
 120 -9 l 1,31,-1
 238 833 l 1,32,-1
 250 1051 l 1,33,-1
 366 1062 l 1,34,-1
 287 488 l 1,35,-1
 303 488 l 1,36,37
 435 717 435 717 539.5 856 c 128,-1,38
 644 995 644 995 750 1071 c 1,39,-1
 775 1071 l 1,40,41
 844 1055 844 1055 886.5 1001.5 c 128,-1,42
 929 948 929 948 925 872 c 1,43,-1
 923 842 l 1,44,-1
 866 488 l 1,45,-1
 881 488 l 1,46,47
 1010 714 1010 714 1116 854.5 c 128,-1,48
 1222 995 1222 995 1329 1071 c 1,0,-1
EndSplineSet
Substitution2: "Single Substitution lookup 41 subtable" M.ss01
Substitution2: "'ss01' Style Set 1 lookup 35 subtable" M.ss01
Substitution2: "'case' Case-Sensitive Forms lookup 28 subtable" M
Substitution2: "'ordn' Ordinals lookup 22 subtable" m.sups
Substitution2: "'sups' Superscript lookup 16 subtable" m.sups
AlternateSubs2: "'aalt' Access All Alternates lookup 1 subtable" m.sups M M.ss01
EndChar

StartChar: n
Encoding: 110 110 81
Width: 1054
GlyphClass: 2
Flags: W
AnchorPoint: "Anchor-1" 472 0 basechar 0
AnchorPoint: "Anchor-0" 601 1053 basechar 0
LayerCount: 2
Fore
SplineSet
753 1071 m 1,0,-1
 777 1071 l 1,1,2
 844 1055 844 1055 886.5 1001.5 c 128,-1,3
 929 948 929 948 925 872 c 1,4,-1
 923 842 l 1,5,-1
 826 241 l 1,6,-1
 806 2 l 1,7,-1
 685 -9 l 1,8,-1
 817 808 l 1,9,-1
 819 840 l 2,10,11
 821 885 821 885 803 916 c 128,-1,12
 785 947 785 947 757 947 c 0,13,14
 694 947 694 947 558 763 c 128,-1,15
 422 579 422 579 254 252 c 1,16,-1
 254 250 l 1,17,-1
 241 2 l 1,18,-1
 120 -9 l 1,19,-1
 238 833 l 1,20,-1
 250 1051 l 1,21,-1
 366 1062 l 1,22,-1
 287 488 l 1,23,-1
 303 488 l 1,24,25
 436 717 436 717 540.5 856 c 128,-1,26
 645 995 645 995 753 1071 c 1,0,-1
EndSplineSet
Substitution2: "'case' Case-Sensitive Forms lookup 28 subtable" N
Substitution2: "'ordn' Ordinals lookup 22 subtable" n.sups
Substitution2: "'sups' Superscript lookup 16 subtable" n.sups
AlternateSubs2: "'aalt' Access All Alternates lookup 1 subtable" n.sups N
EndChar

StartChar: o
Encoding: 111 111 82
Width: 934
GlyphClass: 2
Flags: W
AnchorPoint: "Anchor-1" 0 0 basechar 0
AnchorPoint: "Anchor-0" 548 1053 basechar 0
LayerCount: 2
Fore
SplineSet
585 1069 m 1,0,-1
 601 1069 l 1,1,2
 722 1054 722 1054 779.5 972.5 c 128,-1,3
 837 891 837 891 837 733 c 0,4,5
 837 522 837 522 780 356.5 c 128,-1,6
 723 191 723 191 613 92.5 c 128,-1,7
 503 -6 503 -6 354 -16 c 1,8,-1
 338 -16 l 1,9,10
 215 0 215 0 156 82 c 128,-1,11
 97 164 97 164 97 329 c 0,12,13
 97 538 97 538 155.5 703.5 c 128,-1,14
 214 869 214 869 325.5 966 c 128,-1,15
 437 1063 437 1063 585 1069 c 1,0,-1
570 974 m 0,16,17
 457 974 457 974 373 891.5 c 128,-1,18
 289 809 289 809 245 664 c 128,-1,19
 201 519 201 519 201 331 c 0,20,21
 201 200 201 200 240 138.5 c 128,-1,22
 279 77 279 77 363.5 77 c 128,-1,23
 448 77 448 77 517.5 125.5 c 128,-1,24
 587 174 587 174 633.5 260 c 128,-1,25
 680 346 680 346 705.5 465 c 128,-1,26
 731 584 731 584 731 724 c 0,27,28
 731 855 731 855 692.5 914.5 c 128,-1,29
 654 974 654 974 570 974 c 0,16,17
EndSplineSet
Substitution2: "'case' Case-Sensitive Forms lookup 28 subtable" O
Substitution2: "'ordn' Ordinals lookup 22 subtable" o.sups
Substitution2: "'sups' Superscript lookup 16 subtable" o.sups
AlternateSubs2: "'aalt' Access All Alternates lookup 1 subtable" o.sups O
EndChar

StartChar: p
Encoding: 112 112 83
Width: 994
GlyphClass: 2
Flags: W
AnchorPoint: "Anchor-1" 633 0 basechar 0
AnchorPoint: "Anchor-0" 458 923 basechar 0
LayerCount: 2
Fore
SplineSet
729 1064 m 1,0,-1
 759 1064 l 1,1,2
 834 1012 834 1012 870.5 932.5 c 128,-1,3
 907 853 907 853 907 722 c 0,4,5
 907 633 907 633 891.5 547 c 128,-1,6
 876 461 876 461 846 382 c 128,-1,7
 816 303 816 303 769.5 235.5 c 128,-1,8
 723 168 723 168 664 116 c 128,-1,9
 605 64 605 64 529 30 c 128,-1,10
 453 -4 453 -4 366 -14 c 1,11,-1
 356 -14 l 1,12,-1
 227 18 l 1,13,-1
 201 -179 l 1,14,-1
 185 -428 l 1,15,-1
 67 -440 l 1,16,-1
 241 833 l 1,17,-1
 252 1051 l 1,18,-1
 368 1062 l 1,19,-1
 294 507 l 1,20,-1
 310 507 l 1,21,22
 502 854 502 854 729 1064 c 1,0,-1
241 118 m 1,23,-1
 384 81 l 1,24,25
 480 81 480 81 560 131 c 128,-1,26
 640 181 640 181 693 266 c 128,-1,27
 746 351 746 351 774.5 461.5 c 128,-1,28
 803 572 803 572 803 694 c 0,29,30
 803 747 803 747 797.5 790.5 c 128,-1,31
 792 834 792 834 783.5 860 c 128,-1,32
 775 886 775 886 764 903.5 c 128,-1,33
 753 921 753 921 743.5 928 c 128,-1,34
 734 935 734 935 724 935 c 0,35,36
 711 935 711 935 679.5 907.5 c 128,-1,37
 648 880 648 880 600.5 822 c 128,-1,38
 553 764 553 764 499 686.5 c 128,-1,39
 445 609 445 609 381 496 c 128,-1,40
 317 383 317 383 259 259 c 1,41,-1
 241 118 l 1,23,-1
EndSplineSet
Substitution2: "'case' Case-Sensitive Forms lookup 28 subtable" P
Substitution2: "'ordn' Ordinals lookup 22 subtable" p.sups
Substitution2: "'sups' Superscript lookup 16 subtable" p.sups
AlternateSubs2: "'aalt' Access All Alternates lookup 1 subtable" p.sups P
EndChar

StartChar: q
Encoding: 113 113 84
Width: 994
GlyphClass: 2
Flags: W
LayerCount: 2
Fore
SplineSet
866 1060 m 1,0,-1
 702 -183 l 1,1,-1
 685 -428 l 1,2,-1
 567 -440 l 1,3,-1
 698 544 l 1,4,-1
 683 544 l 1,5,6
 491 197 491 197 267 -14 c 1,7,-1
 236 -14 l 1,8,9
 187 18 187 18 155 62.5 c 128,-1,10
 123 107 123 107 106.5 173 c 128,-1,11
 90 239 90 239 90 328.5 c 128,-1,12
 90 418 90 418 105.5 504 c 128,-1,13
 121 590 121 590 151 669 c 128,-1,14
 181 748 181 748 227 815.5 c 128,-1,15
 273 883 273 883 331.5 935 c 128,-1,16
 390 987 390 987 465.5 1021 c 128,-1,17
 541 1055 541 1055 627 1064 c 1,18,-1
 636 1064 l 1,19,-1
 777 1032 l 1,20,-1
 850 1069 l 1,21,-1
 866 1060 l 1,0,-1
271 115 m 0,22,23
 284 115 284 115 314.5 142.5 c 128,-1,24
 345 170 345 170 392 227.5 c 128,-1,25
 439 285 439 285 492.5 361.5 c 128,-1,26
 546 438 546 438 609.5 550.5 c 128,-1,27
 673 663 673 663 731 786 c 1,28,-1
 738 833 l 1,29,-1
 745 939 l 1,30,-1
 611 970 l 1,31,32
 516 970 516 970 436 919.5 c 128,-1,33
 356 869 356 869 303.5 784.5 c 128,-1,34
 251 700 251 700 221.5 589 c 128,-1,35
 192 478 192 478 192 356 c 0,36,37
 192 311 192 311 196 273 c 128,-1,38
 200 235 200 235 206.5 210 c 128,-1,39
 213 185 213 185 221 165.5 c 128,-1,40
 229 146 229 146 238 135.5 c 128,-1,41
 247 125 247 125 255.5 120 c 128,-1,42
 264 115 264 115 271 115 c 0,22,23
EndSplineSet
Substitution2: "'case' Case-Sensitive Forms lookup 28 subtable" Q
Substitution2: "'ordn' Ordinals lookup 22 subtable" q.sups
Substitution2: "'sups' Superscript lookup 16 subtable" q.sups
AlternateSubs2: "'aalt' Access All Alternates lookup 1 subtable" q.sups Q
EndChar

StartChar: r
Encoding: 114 114 85
Width: 735
GlyphClass: 2
Flags: W
AnchorPoint: "Anchor-1" 187 0 basechar 0
AnchorPoint: "Anchor-0" 516 1053 basechar 0
LayerCount: 2
Fore
SplineSet
782 1053 m 1,0,-1
 762 912 l 1,1,-1
 750 907 l 1,2,-1
 729 910 l 1,3,4
 626 894 626 894 510 730.5 c 128,-1,5
 394 567 394 567 254 223 c 1,6,-1
 241 2 l 1,7,-1
 123 -9 l 1,8,-1
 238 833 l 1,9,-1
 252 1051 l 1,10,-1
 366 1062 l 1,11,-1
 289 493 l 1,12,-1
 305 493 l 1,13,14
 513 945 513 945 736 1058 c 1,15,-1
 782 1053 l 1,0,-1
EndSplineSet
Substitution2: "'case' Case-Sensitive Forms lookup 28 subtable" R
Substitution2: "'ordn' Ordinals lookup 22 subtable" r.sups
Substitution2: "'sups' Superscript lookup 16 subtable" r.sups
AlternateSubs2: "'aalt' Access All Alternates lookup 1 subtable" r.sups R
EndChar

StartChar: s
Encoding: 115 115 86
Width: 720
GlyphClass: 2
Flags: W
AnchorPoint: "Anchor-1" 307 0 basechar 0
AnchorPoint: "Anchor-0" 441 1053 basechar 0
LayerCount: 2
Fore
SplineSet
495 1064 m 1,0,1
 604 1047 604 1047 676 1011 c 1,2,-1
 643 910 l 1,3,-1
 623 905 l 1,4,5
 536 979 536 979 449 979 c 0,6,7
 389 979 389 979 339.5 950 c 128,-1,8
 290 921 290 921 263 876.5 c 128,-1,9
 236 832 236 832 236 784 c 0,10,11
 236 751 236 751 251.5 720 c 128,-1,12
 267 689 267 689 292 665 c 128,-1,13
 317 641 317 641 349.5 615.5 c 128,-1,14
 382 590 382 590 415.5 567 c 128,-1,15
 449 544 449 544 481 514.5 c 128,-1,16
 513 485 513 485 538.5 455 c 128,-1,17
 564 425 564 425 579 383.5 c 128,-1,18
 594 342 594 342 594 296 c 0,19,20
 594 164 594 164 490.5 75 c 128,-1,21
 387 -14 387 -14 223 -16 c 1,22,23
 105 0 105 0 7 62 c 1,24,-1
 33 166 l 1,25,-1
 53 179 l 1,26,27
 151 69 151 69 269 69 c 0,28,29
 365 69 365 69 427.5 129.5 c 128,-1,30
 490 190 490 190 490 271 c 0,31,32
 490 309 490 309 475 342.5 c 128,-1,33
 460 376 460 376 434.5 401.5 c 128,-1,34
 409 427 409 427 377 453 c 128,-1,35
 345 479 345 479 311.5 501.5 c 128,-1,36
 278 524 278 524 245.5 552.5 c 128,-1,37
 213 581 213 581 188 610 c 128,-1,38
 163 639 163 639 147.5 679 c 128,-1,39
 132 719 132 719 132 764 c 0,40,41
 132 849 132 849 180 918.5 c 128,-1,42
 228 988 228 988 311 1027 c 128,-1,43
 394 1066 394 1066 495 1064 c 1,0,1
EndSplineSet
Substitution2: "'case' Case-Sensitive Forms lookup 28 subtable" S
Substitution2: "'ordn' Ordinals lookup 22 subtable" s.sups
Substitution2: "'sups' Superscript lookup 16 subtable" s.sups
AlternateSubs2: "'aalt' Access All Alternates lookup 1 subtable" s.sups S
EndChar

StartChar: t
Encoding: 116 116 87
Width: 740
GlyphClass: 2
Flags: W
AnchorPoint: "Anchor-1" 384 0 basechar 0
AnchorPoint: "Anchor-0" 0 0 basechar 0
LayerCount: 2
Fore
SplineSet
292 238 m 1,0,-1
 287 194 l 1,1,2
 287 148 287 148 308 123.5 c 128,-1,3
 329 99 329 99 366 99 c 0,4,5
 395 99 395 99 429.5 121.5 c 128,-1,6
 464 144 464 144 505 191 c 128,-1,7
 546 238 546 238 588 307 c 1,8,-1
 611 305 l 1,9,-1
 647 254 l 1,10,11
 571 144 571 144 503 80 c 128,-1,12
 435 16 435 16 360 -16 c 1,13,-1
 336 -16 l 1,14,15
 265 -2 265 -2 224.5 45 c 128,-1,16
 184 92 184 92 185 166 c 1,17,-1
 188 210 l 1,18,-1
 294 835 l 1,19,-1
 310 958 l 1,20,-1
 153 958 l 1,21,-1
 141 970 l 1,22,-1
 150 1040 l 1,23,-1
 320 1040 l 1,24,-1
 354 1316 l 1,25,-1
 463 1365 l 1,26,-1
 477 1356 l 1,27,-1
 424 1040 l 1,28,-1
 733 1040 l 1,29,-1
 742 1027 l 1,30,-1
 733 958 l 1,31,-1
 412 958 l 1,32,-1
 292 238 l 1,0,-1
EndSplineSet
Substitution2: "'case' Case-Sensitive Forms lookup 28 subtable" T
Substitution2: "'ordn' Ordinals lookup 22 subtable" t.sups
Substitution2: "'sups' Superscript lookup 16 subtable" t.sups
AlternateSubs2: "'aalt' Access All Alternates lookup 1 subtable" t.sups T
EndChar

StartChar: u
Encoding: 117 117 88
Width: 1071
GlyphClass: 2
Flags: W
AnchorPoint: "Anchor-1" 0 0 basechar 0
AnchorPoint: "Anchor-0" 601 1053 basechar 0
LayerCount: 2
Fore
SplineSet
942 1062 m 1,0,-1
 831 250 l 1,1,-1
 817 2 l 1,2,-1
 698 -9 l 1,3,-1
 775 563 l 1,4,-1
 762 563 l 1,5,6
 632 337 632 337 527 197.5 c 128,-1,7
 422 58 422 58 315 -18 c 1,8,-1
 289 -18 l 1,9,10
 222 0 222 0 180 53.5 c 128,-1,11
 138 107 138 107 141 181 c 1,12,-1
 144 210 l 1,13,-1
 241 812 l 1,14,-1
 263 1051 l 1,15,-1
 380 1064 l 1,16,-1
 250 254 l 1,17,-1
 247 212 l 1,18,19
 246 167 246 167 264.5 137.5 c 128,-1,20
 283 108 283 108 310 108 c 0,21,22
 373 108 373 108 507 290.5 c 128,-1,23
 641 473 641 473 808 799 c 1,24,-1
 812 833 l 1,25,-1
 826 1051 l 1,26,-1
 942 1062 l 1,0,-1
EndSplineSet
Substitution2: "'case' Case-Sensitive Forms lookup 28 subtable" U
Substitution2: "'ordn' Ordinals lookup 22 subtable" u.sups
Substitution2: "'sups' Superscript lookup 16 subtable" u.sups
AlternateSubs2: "'aalt' Access All Alternates lookup 1 subtable" u.sups U
EndChar

StartChar: v
Encoding: 118 118 89
Width: 913
GlyphClass: 2
Flags: W
LayerCount: 2
Fore
SplineSet
722 1037 m 1,0,-1
 824 1062 l 1,1,2
 884 972 884 972 884 875 c 0,3,4
 884 756 884 756 784 592 c 2,5,-1
 421 0 l 1,6,-1
 301 0 l 1,7,-1
 188 1049 l 1,8,-1
 301 1062 l 1,9,-1
 312 884 l 1,10,-1
 382 130 l 1,11,-1
 393 130 l 1,12,-1
 696 629 l 1,13,14
 777 770 777 770 777 861 c 0,15,16
 777 935 777 935 718 1020 c 1,17,-1
 722 1037 l 1,0,-1
EndSplineSet
Substitution2: "Single Substitution lookup 41 subtable" V.ss01
Substitution2: "'ss01' Style Set 1 lookup 35 subtable" V.ss01
Substitution2: "'case' Case-Sensitive Forms lookup 28 subtable" V
Substitution2: "'ordn' Ordinals lookup 22 subtable" v.sups
Substitution2: "'sups' Superscript lookup 16 subtable" v.sups
AlternateSubs2: "'aalt' Access All Alternates lookup 1 subtable" v.sups V V.ss01
EndChar

StartChar: w
Encoding: 119 119 90
Width: 1550
GlyphClass: 2
Flags: W
AnchorPoint: "Anchor-1" 0 0 basechar 0
AnchorPoint: "Anchor-0" 841 1053 basechar 0
LayerCount: 2
Fore
SplineSet
1086 0 m 1,0,-1
 970 0 l 1,1,-1
 870 896 l 1,2,-1
 857 896 l 1,3,-1
 437 0 l 1,4,-1
 312 0 l 1,5,-1
 188 1049 l 1,6,-1
 298 1062 l 1,7,-1
 305 939 l 1,8,-1
 393 134 l 1,9,-1
 407 134 l 1,10,-1
 777 932 l 1,11,-1
 828 1053 l 1,12,-1
 949 1053 l 1,13,-1
 958 939 l 1,14,-1
 1046 134 l 1,15,-1
 1058 134 l 1,16,-1
 1336 629 l 1,17,18
 1416 775 1416 775 1416 861 c 0,19,20
 1416 935 1416 935 1356 1020 c 1,21,-1
 1361 1037 l 1,22,-1
 1462 1062 l 1,23,24
 1523 970 1523 970 1523 875 c 0,25,26
 1523 764 1523 764 1426 592 c 1,27,-1
 1086 0 l 1,0,-1
EndSplineSet
Substitution2: "'case' Case-Sensitive Forms lookup 28 subtable" W
Substitution2: "'ordn' Ordinals lookup 22 subtable" w.sups
Substitution2: "'sups' Superscript lookup 16 subtable" w.sups
AlternateSubs2: "'aalt' Access All Alternates lookup 1 subtable" w.sups W
EndChar

StartChar: x
Encoding: 120 120 91
Width: 987
GlyphClass: 2
Flags: W
LayerCount: 2
Fore
SplineSet
842 9 m 1,0,-1
 724 -11 l 1,1,-1
 683 93 l 1,2,-1
 490 463 l 1,3,-1
 194 88 l 1,4,-1
 141 0 l 1,5,-1
 11 0 l 1,6,-1
 431 544 l 1,7,-1
 181 1044 l 1,8,-1
 296 1064 l 1,9,-1
 329 979 l 1,10,-1
 512 620 l 1,11,-1
 789 967 l 1,12,-1
 845 1053 l 1,13,-1
 970 1053 l 1,14,-1
 567 532 l 1,15,-1
 842 9 l 1,0,-1
EndSplineSet
Substitution2: "Single Substitution lookup 41 subtable" X.ss01
Substitution2: "'ss01' Style Set 1 lookup 35 subtable" X.ss01
Substitution2: "'case' Case-Sensitive Forms lookup 28 subtable" X
Substitution2: "'ordn' Ordinals lookup 22 subtable" x.sups
Substitution2: "'sups' Superscript lookup 16 subtable" x.sups
AlternateSubs2: "'aalt' Access All Alternates lookup 1 subtable" x.sups X X.ss01
EndChar

StartChar: y
Encoding: 121 121 92
Width: 908
GlyphClass: 2
Flags: W
AnchorPoint: "Anchor-1" 0 0 basechar 0
AnchorPoint: "Anchor-0" 490 1053 basechar 0
LayerCount: 2
Fore
SplineSet
718 1037 m 1,0,-1
 819 1062 l 1,1,2
 879 976 879 976 879 875 c 0,3,4
 879 745 879 745 777 570 c 2,5,-1
 479 55 l 2,6,7
 323 -215 323 -215 188.5 -332 c 128,-1,8
 54 -449 54 -449 -88 -449 c 0,9,10
 -172 -449 -172 -449 -259 -415 c 1,11,-1
 -263 -318 l 1,12,-1
 -247 -307 l 1,13,14
 -155 -342 -155 -342 -88 -342 c 0,15,16
 128 -342 128 -342 347 7 c 1,17,-1
 150 1049 l 1,18,-1
 263 1062 l 1,19,-1
 289 884 l 1,20,-1
 412 153 l 1,21,-1
 433 153 l 1,22,-1
 689 611 l 2,23,24
 773 762 773 762 773 861 c 0,25,26
 773 940 773 940 713 1020 c 1,27,-1
 718 1037 l 1,0,-1
EndSplineSet
Substitution2: "'case' Case-Sensitive Forms lookup 28 subtable" Y
Substitution2: "'ordn' Ordinals lookup 22 subtable" y.sups
Substitution2: "'sups' Superscript lookup 16 subtable" y.sups
AlternateSubs2: "'aalt' Access All Alternates lookup 1 subtable" y.sups Y
EndChar

StartChar: z
Encoding: 122 122 93
Width: 925
GlyphClass: 2
Flags: W
AnchorPoint: "Anchor-1" 0 0 basechar 0
AnchorPoint: "Anchor-0" 529 1053 basechar 0
LayerCount: 2
Fore
SplineSet
859 1049 m 1,0,-1
 170 134 l 1,1,-1
 234 148 l 1,2,3
 278 148 278 148 373.5 114.5 c 128,-1,4
 469 81 469 81 512 81 c 0,5,6
 623 81 623 81 677.5 160 c 128,-1,7
 732 239 732 239 742 412 c 1,8,-1
 766 419 l 1,9,-1
 822 384 l 1,10,11
 811 181 811 181 731 79 c 128,-1,12
 651 -23 651 -23 507 -23 c 0,13,14
 460 -23 460 -23 398 -4 c 128,-1,15
 336 15 336 15 275.5 34 c 128,-1,16
 215 53 215 53 172 53 c 0,17,18
 131 53 131 53 97.5 38.5 c 128,-1,19
 64 24 64 24 28 -11 c 1,20,-1
 16 -11 l 1,21,-1
 -20 20 l 1,22,-1
 680 958 l 1,23,-1
 292 956 l 1,24,-1
 162 947 l 1,25,-1
 153 958 l 1,26,-1
 174 1055 l 1,27,-1
 185 1064 l 1,28,-1
 312 1055 l 1,29,-1
 771 1053 l 1,30,-1
 817 1086 l 1,31,-1
 859 1049 l 1,0,-1
EndSplineSet
Substitution2: "'case' Case-Sensitive Forms lookup 28 subtable" Z
Substitution2: "'ordn' Ordinals lookup 22 subtable" z.sups
Substitution2: "'sups' Superscript lookup 16 subtable" z.sups
AlternateSubs2: "'aalt' Access All Alternates lookup 1 subtable" z.sups Z
EndChar

StartChar: braceleft
Encoding: 123 123 94
Width: 658
GlyphClass: 2
Flags: W
LayerCount: 2
Fore
SplineSet
623 1513 m 0,0,1
 659 1513 659 1513 720 1500 c 1,2,-1
 727 1488 l 1,3,-1
 706 1420 l 1,4,5
 642 1433 642 1433 618 1433 c 0,6,7
 555 1433 555 1433 515.5 1405.5 c 128,-1,8
 476 1378 476 1378 455.5 1315 c 128,-1,9
 435 1252 435 1252 435 1150 c 0,10,11
 435 1114 435 1114 438.5 1028 c 128,-1,12
 442 942 442 942 442 912 c 0,13,14
 442 784 442 784 395.5 709 c 128,-1,15
 349 634 349 634 254 597 c 1,16,-1
 254 590 l 1,17,18
 317 564 317 564 349.5 512 c 128,-1,19
 382 460 382 460 382 389 c 0,20,21
 382 335 382 335 356 243 c 128,-1,22
 330 151 330 151 304 56.5 c 128,-1,23
 278 -38 278 -38 278 -97 c 0,24,25
 278 -245 278 -245 415 -245 c 0,26,27
 443 -245 443 -245 502 -234 c 1,28,-1
 510 -301 l 1,29,-1
 497 -310 l 1,30,31
 444 -324 444 -324 393 -324 c 0,32,33
 289 -324 289 -324 236 -271 c 128,-1,34
 183 -218 183 -218 183 -115 c 0,35,36
 183 -50 183 -50 208.5 49 c 128,-1,37
 234 148 234 148 259.5 240 c 128,-1,38
 285 332 285 332 285 380 c 0,39,40
 285 458 285 458 241.5 502.5 c 128,-1,41
 198 547 198 547 106 560 c 1,42,-1
 113 627 l 1,43,44
 236 644 236 644 291.5 712 c 128,-1,45
 347 780 347 780 347 921 c 0,46,47
 347 951 347 951 344.5 1035 c 128,-1,48
 342 1119 342 1119 342 1153 c 0,49,50
 342 1340 342 1340 412.5 1426.5 c 128,-1,51
 483 1513 483 1513 623 1513 c 0,0,1
EndSplineSet
EndChar

StartChar: bar
Encoding: 124 124 95
Width: 733
GlyphClass: 2
Flags: W
LayerCount: 2
Fore
SplineSet
574 1828 m 1,0,-1
 431 662 l 1,1,-1
 273 -607 l 1,2,-1
 192 -611 l 1,3,-1
 183 -597 l 1,4,-1
 338 658 l 1,5,-1
 481 1831 l 1,6,-1
 567 1837 l 1,7,-1
 574 1828 l 1,0,-1
EndSplineSet
EndChar

StartChar: braceright
Encoding: 125 125 96
Width: 658
GlyphClass: 2
Flags: W
LayerCount: 2
Fore
SplineSet
55 -324 m 0,0,1
 6 -324 6 -324 -44 -310 c 1,2,-1
 -51 -301 l 1,3,-1
 -31 -232 l 1,4,5
 28 -243 28 -243 58 -243 c 0,6,7
 152 -243 152 -243 196.5 -177.5 c 128,-1,8
 241 -112 241 -112 241 40 c 0,9,10
 241 75 241 75 237.5 161.5 c 128,-1,11
 234 248 234 248 234 278 c 0,12,13
 234 405 234 405 281 479.5 c 128,-1,14
 328 554 328 554 421 590 c 1,15,-1
 424 597 l 1,16,17
 296 652 296 652 296 801 c 0,18,19
 296 854 296 854 321.5 946 c 128,-1,20
 347 1038 347 1038 372.5 1133 c 128,-1,21
 398 1228 398 1228 398 1287 c 0,22,23
 398 1361 398 1361 364.5 1397 c 128,-1,24
 331 1433 331 1433 263 1433 c 0,25,26
 242 1433 242 1433 174 1420 c 1,27,-1
 170 1488 l 1,28,-1
 179 1500 l 1,29,30
 228 1513 228 1513 282 1513 c 0,31,32
 387 1513 387 1513 440 1460 c 128,-1,33
 493 1407 493 1407 493 1303 c 0,34,35
 493 1238 493 1238 467.5 1139.5 c 128,-1,36
 442 1041 442 1041 416.5 949 c 128,-1,37
 391 857 391 857 391 808 c 0,38,39
 391 731 391 731 435 686 c 128,-1,40
 479 641 479 641 572 627 c 1,41,-1
 563 563 l 1,42,43
 439 543 439 543 384 476 c 128,-1,44
 329 409 329 409 329 269 c 0,45,46
 329 238 329 238 331 153.5 c 128,-1,47
 333 69 333 69 333 35 c 0,48,49
 333 -151 333 -151 263.5 -237.5 c 128,-1,50
 194 -324 194 -324 55 -324 c 0,0,1
EndSplineSet
EndChar

StartChar: asciitilde
Encoding: 126 126 97
Width: 1110
GlyphClass: 2
Flags: W
LayerCount: 2
Fore
SplineSet
345 623 m 0,0,1
 334 623 334 623 323 618 c 128,-1,2
 312 613 312 613 296 601 c 128,-1,3
 280 589 280 589 267.5 578.5 c 128,-1,4
 255 568 255 568 230 546 c 128,-1,5
 205 524 205 524 188 510 c 1,6,-1
 172 510 l 1,7,-1
 144 550 l 1,8,-1
 144 565 l 1,9,-1
 310 711 l 1,10,-1
 329 720 l 1,11,12
 378 713 378 713 557.5 662 c 128,-1,13
 737 611 737 611 775 611 c 0,14,15
 785 611 785 611 796 615.5 c 128,-1,16
 807 620 807 620 824 632 c 128,-1,17
 841 644 841 644 852 653 c 128,-1,18
 863 662 863 662 890.5 686 c 128,-1,19
 918 710 918 710 932 722 c 1,20,-1
 951 722 l 1,21,-1
 979 680 l 1,22,-1
 976 667 l 1,23,-1
 810 519 l 1,24,-1
 789 514 l 1,25,26
 737 520 737 520 560 571.5 c 128,-1,27
 383 623 383 623 345 623 c 0,0,1
EndSplineSet
EndChar

StartChar: exclamdown
Encoding: 161 161 99
Width: 589
GlyphClass: 2
Flags: W
LayerCount: 2
Fore
SplineSet
338 921 m 0,0,1
 322 921 322 921 308.5 926.5 c 128,-1,2
 295 932 295 932 286 942 c 128,-1,3
 277 952 277 952 272 965.5 c 128,-1,4
 267 979 267 979 267 996 c 0,5,6
 267 1030 267 1030 287.5 1050.5 c 128,-1,7
 308 1071 308 1071 342 1071 c 256,8,9
 376 1071 376 1071 395.5 1051.5 c 128,-1,10
 415 1032 415 1032 415 998 c 256,11,12
 415 964 415 964 394.5 942.5 c 128,-1,13
 374 921 374 921 338 921 c 0,0,1
95 -442 m 1,14,-1
 254 585 l 1,15,-1
 327 590 l 1,16,-1
 340 574 l 1,17,-1
 206 -437 l 1,18,-1
 192 -451 l 1,19,-1
 106 -455 l 1,20,-1
 95 -442 l 1,14,-1
EndSplineSet
EndChar

StartChar: cent
Encoding: 162 162 100
Width: 888
GlyphClass: 2
Flags: W
LayerCount: 2
Fore
SplineSet
819 1102 m 1,0,-1
 791 1027 l 1,1,-1
 771 1020 l 1,2,3
 680 1086 680 1086 607 1086 c 2,4,-1
 594 1086 l 1,5,-1
 440 183 l 1,6,7
 570 220 570 220 671 400 c 1,8,-1
 689 398 l 1,9,-1
 722 354 l 1,10,11
 678 279 678 279 630 227.5 c 128,-1,12
 582 176 582 176 533 146.5 c 128,-1,13
 484 117 484 117 426 102 c 1,14,-1
 364 -271 l 1,15,-1
 301 -271 l 1,16,-1
 292 -257 l 1,17,-1
 349 90 l 1,18,19
 317 96 317 96 291.5 103 c 128,-1,20
 266 110 266 110 240.5 123.5 c 128,-1,21
 215 137 215 137 196.5 155.5 c 128,-1,22
 178 174 178 174 161.5 201.5 c 128,-1,23
 145 229 145 229 135 264.5 c 128,-1,24
 125 300 125 300 119 348 c 128,-1,25
 113 396 113 396 113 455 c 0,26,27
 113 521 113 521 119 583 c 128,-1,28
 125 645 125 645 137.5 702.5 c 128,-1,29
 150 760 150 760 169 812.5 c 128,-1,30
 188 865 188 865 213 911 c 128,-1,31
 238 957 238 957 270.5 996 c 128,-1,32
 303 1035 303 1035 342 1065.5 c 128,-1,33
 381 1096 381 1096 428 1118.5 c 128,-1,34
 475 1141 475 1141 528 1153 c 1,35,-1
 588 1506 l 1,36,-1
 650 1506 l 1,37,-1
 664 1493 l 1,38,-1
 609 1164 l 1,39,-1
 658 1166 l 1,40,-1
 806 1120 l 1,41,-1
 819 1102 l 1,0,-1
364 174 m 1,42,-1
 514 1074 l 1,43,44
 367 1034 367 1034 285 875 c 128,-1,45
 203 716 203 716 203 468 c 0,46,47
 203 368 203 368 222 303 c 128,-1,48
 241 238 241 238 276 207.5 c 128,-1,49
 311 177 311 177 364 174 c 1,42,-1
EndSplineSet
EndChar

StartChar: sterling
Encoding: 163 163 101
Width: 927
GlyphClass: 2
Flags: W
LayerCount: 2
Fore
SplineSet
673 1370 m 0,0,1
 787 1370 787 1370 907 1329 c 1,2,-1
 888 1238 l 1,3,-1
 879 1232 l 1,4,5
 784 1289 784 1289 664 1289 c 0,6,7
 431 1289 431 1289 400 1027 c 1,8,-1
 368 766 l 1,9,-1
 660 766 l 1,10,-1
 667 757 l 1,11,-1
 650 694 l 1,12,-1
 358 694 l 1,13,-1
 312 336 l 1,14,15
 302 249 302 249 272.5 190.5 c 128,-1,16
 243 132 243 132 190 93 c 1,17,-1
 190 88 l 1,18,-1
 601 88 l 1,19,-1
 784 95 l 1,20,-1
 791 81 l 1,21,-1
 771 -2 l 1,22,-1
 576 0 l 1,23,-1
 14 0 l 1,24,-1
 7 11 l 1,25,-1
 23 75 l 1,26,27
 104 86 104 86 154.5 151 c 128,-1,28
 205 216 205 216 218 327 c 2,29,-1
 261 694 l 1,30,-1
 104 694 l 1,31,-1
 97 706 l 1,32,-1
 111 766 l 1,33,-1
 271 766 l 1,34,-1
 301 1016 l 2,35,36
 315 1130 315 1130 362 1209 c 128,-1,37
 409 1288 409 1288 488 1329 c 128,-1,38
 567 1370 567 1370 673 1370 c 0,0,1
EndSplineSet
EndChar

StartChar: currency
Encoding: 164 164 102
Width: 1007
GlyphClass: 2
Flags: W
LayerCount: 2
Fore
SplineSet
985 1192 m 1,0,-1
 983 1177 l 1,1,-1
 815 1029 l 1,2,3
 861 957 861 957 861 870 c 0,4,5
 861 749 861 749 768 653 c 1,6,-1
 905 504 l 1,7,-1
 903 488 l 1,8,-1
 845 437 l 1,9,-1
 831 440 l 1,10,-1
 702 592 l 1,11,12
 661 559 661 559 608.5 541 c 128,-1,13
 556 523 556 523 504 523 c 0,14,15
 398 523 398 523 324 590 c 1,16,-1
 157 435 l 1,17,-1
 141 437 l 1,18,-1
 97 488 l 1,19,-1
 102 502 l 1,20,-1
 271 650 l 1,21,22
 225 713 225 713 225 810 c 0,23,24
 225 931 225 931 318 1027 c 1,25,-1
 181 1175 l 1,26,-1
 185 1192 l 1,27,-1
 238 1243 l 1,28,-1
 254 1243 l 1,29,-1
 386 1088 l 1,30,31
 475 1155 475 1155 581 1155 c 0,32,33
 684 1155 684 1155 759 1090 c 1,34,-1
 925 1243 l 1,35,-1
 942 1243 l 1,36,-1
 985 1192 l 1,0,-1
572 1080 m 0,37,38
 502 1080 502 1080 439.5 1044.5 c 128,-1,39
 377 1009 377 1009 339 947.5 c 128,-1,40
 301 886 301 886 301 815 c 0,41,42
 301 724 301 724 361 661.5 c 128,-1,43
 421 599 421 599 514 599 c 0,44,45
 585 599 585 599 648 634.5 c 128,-1,46
 711 670 711 670 748.5 731 c 128,-1,47
 786 792 786 792 786 863 c 0,48,49
 786 954 786 954 725.5 1017 c 128,-1,50
 665 1080 665 1080 572 1080 c 0,37,38
EndSplineSet
EndChar

StartChar: yen
Encoding: 165 165 103
Width: 1128
GlyphClass: 2
Flags: W
LayerCount: 2
Fore
SplineSet
1064 662 m 1,0,-1
 1071 655 l 1,1,-1
 1058 594 l 1,2,-1
 704 594 l 1,3,-1
 579 415 l 1,4,-1
 572 358 l 1,5,-1
 1025 358 l 1,6,-1
 1034 349 l 1,7,-1
 1020 292 l 1,8,-1
 565 292 l 1,9,-1
 528 0 l 1,10,-1
 433 0 l 1,11,-1
 472 292 l 1,12,-1
 55 292 l 1,13,-1
 49 301 l 1,14,-1
 60 358 l 1,15,-1
 481 358 l 1,16,-1
 488 424 l 1,17,-1
 419 594 l 1,18,-1
 93 594 l 1,19,-1
 86 605 l 1,20,-1
 97 662 l 1,21,-1
 391 662 l 1,22,-1
 194 1144 l 1,23,-1
 303 1144 l 1,24,-1
 318 1088 l 1,25,-1
 544 537 l 1,26,-1
 556 537 l 1,27,-1
 947 1086 l 1,28,-1
 981 1144 l 1,29,-1
 1088 1144 l 1,30,-1
 753 662 l 1,31,-1
 1064 662 l 1,0,-1
EndSplineSet
EndChar

StartChar: brokenbar
Encoding: 166 166 104
Width: 733
GlyphClass: 2
Flags: W
LayerCount: 2
Fore
SplineSet
574 1828 m 1,0,-1
 453 857 l 1,1,-1
 373 848 l 1,2,-1
 360 857 l 1,3,-1
 481 1831 l 1,4,-1
 567 1837 l 1,5,-1
 574 1828 l 1,0,-1
393 354 m 1,6,-1
 273 -607 l 1,7,-1
 192 -611 l 1,8,-1
 183 -597 l 1,9,-1
 301 358 l 1,10,-1
 382 371 l 1,11,-1
 393 354 l 1,6,-1
EndSplineSet
EndChar

StartChar: section
Encoding: 167 167 105
Width: 954
GlyphClass: 2
Flags: W
LayerCount: 2
Fore
SplineSet
683 1488 m 0,0,1
 798 1488 798 1488 907 1440 c 1,2,-1
 879 1342 l 1,3,-1
 861 1340 l 1,4,5
 757 1405 757 1405 658 1405 c 0,6,7
 603 1405 603 1405 554.5 1386 c 128,-1,8
 506 1367 506 1367 474.5 1337 c 128,-1,9
 443 1307 443 1307 425 1270 c 128,-1,10
 407 1233 407 1233 407 1197 c 0,11,12
 407 1164 407 1164 422 1131 c 128,-1,13
 437 1098 437 1098 463 1069 c 128,-1,14
 489 1040 489 1040 522.5 1010.5 c 128,-1,15
 556 981 556 981 593.5 952 c 128,-1,16
 631 923 631 923 668 892.5 c 128,-1,17
 705 862 705 862 738.5 828 c 128,-1,18
 772 794 772 794 798 758.5 c 128,-1,19
 824 723 824 723 839 680 c 128,-1,20
 854 637 854 637 854 592 c 0,21,22
 854 495 854 495 789 412 c 128,-1,23
 724 329 724 329 605 276 c 1,24,25
 689 180 689 180 689 79 c 0,26,27
 689 -5 689 -5 638.5 -78 c 128,-1,28
 588 -151 588 -151 498 -194.5 c 128,-1,29
 408 -238 408 -238 301 -238 c 0,30,31
 229 -238 229 -238 155 -218 c 128,-1,32
 81 -198 81 -198 26 -162 c 1,33,-1
 51 -67 l 1,34,-1
 67 -55 l 1,35,36
 179 -157 179 -157 320 -157 c 0,37,38
 367 -157 367 -157 410.5 -144.5 c 128,-1,39
 454 -132 454 -132 486 -111 c 128,-1,40
 518 -90 518 -90 542 -63 c 128,-1,41
 566 -36 566 -36 578 -5 c 128,-1,42
 590 26 590 26 590 58 c 0,43,44
 590 102 590 102 565 145 c 128,-1,45
 540 188 540 188 500.5 225 c 128,-1,46
 461 262 461 262 412.5 300 c 128,-1,47
 364 338 364 338 316 378 c 128,-1,48
 268 418 268 418 228.5 460 c 128,-1,49
 189 502 189 502 164 555 c 128,-1,50
 139 608 139 608 139 664 c 0,51,52
 139 761 139 761 208 846.5 c 128,-1,53
 277 932 277 932 391 985 c 1,54,55
 307 1081 307 1081 307 1177 c 0,56,57
 307 1260 307 1260 356 1331 c 128,-1,58
 405 1402 405 1402 492 1445 c 128,-1,59
 579 1488 579 1488 683 1488 c 0,0,1
755 567 m 0,60,61
 755 609 755 609 737 648 c 128,-1,62
 719 687 719 687 683 724.5 c 128,-1,63
 647 762 647 762 613.5 791 c 128,-1,64
 580 820 580 820 529 860.5 c 128,-1,65
 478 901 478 901 449 928 c 1,66,67
 348 880 348 880 294.5 816.5 c 128,-1,68
 241 753 241 753 241 687 c 0,69,70
 241 647 241 647 259 609.5 c 128,-1,71
 277 572 277 572 312.5 535 c 128,-1,72
 348 498 348 498 381.5 470 c 128,-1,73
 415 442 415 442 466.5 401 c 128,-1,74
 518 360 518 360 548 333 c 1,75,76
 755 426 755 426 755 567 c 0,60,61
EndSplineSet
EndChar

StartChar: dieresis
Encoding: 168 168 106
Width: 901
GlyphClass: 2
Flags: W
LayerCount: 2
Fore
SplineSet
380 1464 m 0,0,1
 412 1464 412 1464 430.5 1444.5 c 128,-1,2
 449 1425 449 1425 449 1393 c 0,3,4
 449 1359 449 1359 430 1339 c 128,-1,5
 411 1319 411 1319 377 1319 c 0,6,7
 355 1319 355 1319 339 1327 c 128,-1,8
 323 1335 323 1335 314 1351.5 c 128,-1,9
 305 1368 305 1368 305 1391 c 0,10,11
 305 1424 305 1424 325 1444 c 128,-1,12
 345 1464 345 1464 380 1464 c 0,0,1
738 1462 m 0,13,14
 753 1462 753 1462 766 1457 c 128,-1,15
 779 1452 779 1452 788.5 1443.5 c 128,-1,16
 798 1435 798 1435 803 1422 c 128,-1,17
 808 1409 808 1409 808 1393 c 0,18,19
 808 1359 808 1359 787.5 1337.5 c 128,-1,20
 767 1316 767 1316 736 1316 c 0,21,22
 701 1316 701 1316 682.5 1335.5 c 128,-1,23
 664 1355 664 1355 664 1389 c 0,24,25
 664 1412 664 1412 673 1428.5 c 128,-1,26
 682 1445 682 1445 698.5 1453.5 c 128,-1,27
 715 1462 715 1462 738 1462 c 0,13,14
EndSplineSet
EndChar

StartChar: copyright
Encoding: 169 169 107
Width: 1594
GlyphClass: 2
Flags: W
LayerCount: 2
Fore
SplineSet
815 1384 m 128,-1,1
 966 1384 966 1384 1092.5 1333 c 128,-1,2
 1219 1282 1219 1282 1307.5 1190.5 c 128,-1,3
 1396 1099 1396 1099 1445.5 967 c 128,-1,4
 1495 835 1495 835 1495 678 c 128,-1,5
 1495 521 1495 521 1445.5 389 c 128,-1,6
 1396 257 1396 257 1307.5 165.5 c 128,-1,7
 1219 74 1219 74 1092.5 23 c 128,-1,8
 966 -28 966 -28 815 -28 c 128,-1,9
 664 -28 664 -28 537.5 23 c 128,-1,10
 411 74 411 74 323 165.5 c 128,-1,11
 235 257 235 257 186 389 c 128,-1,12
 137 521 137 521 137 678 c 128,-1,13
 137 835 137 835 186 967 c 128,-1,14
 235 1099 235 1099 323 1190.5 c 128,-1,15
 411 1282 411 1282 537.5 1333 c 128,-1,0
 664 1384 664 1384 815 1384 c 128,-1,1
815 1323 m 0,16,17
 630 1323 630 1323 489.5 1243 c 128,-1,18
 349 1163 349 1163 273 1016.5 c 128,-1,19
 197 870 197 870 197 678 c 0,20,21
 197 535 197 535 241 414.5 c 128,-1,22
 285 294 285 294 365.5 210 c 128,-1,23
 446 126 446 126 561.5 79.5 c 128,-1,24
 677 33 677 33 815 33 c 0,25,26
 998 33 998 33 1138.5 113 c 128,-1,27
 1279 193 1279 193 1356 340 c 128,-1,28
 1433 487 1433 487 1433 678 c 128,-1,29
 1433 869 1433 869 1356 1016 c 128,-1,30
 1279 1163 1279 1163 1138.5 1243 c 128,-1,31
 998 1323 998 1323 815 1323 c 0,16,17
842 1076 m 0,32,33
 961 1076 961 1076 1064 1016 c 1,34,-1
 1046 945 l 1,35,-1
 1034 942 l 1,36,37
 957 1000 957 1000 840 1000 c 0,38,39
 752 1000 752 1000 691.5 964.5 c 128,-1,40
 631 929 631 929 600.5 859.5 c 128,-1,41
 570 790 570 790 570 687 c 0,42,43
 570 609 570 609 587 549 c 128,-1,44
 604 489 604 489 637 448.5 c 128,-1,45
 670 408 670 408 719.5 387 c 128,-1,46
 769 366 769 366 833 366 c 0,47,48
 949 366 949 366 1049 431 c 1,49,-1
 1060 428 l 1,50,-1
 1051 354 l 1,51,52
 942 289 942 289 828 289 c 0,53,54
 659 289 659 289 570 391 c 128,-1,55
 481 493 481 493 481 683 c 0,56,57
 481 872 481 872 574 974 c 128,-1,58
 667 1076 667 1076 842 1076 c 0,32,33
EndSplineSet
EndChar

StartChar: ordfeminine
Encoding: 170 170 108
Width: 705
GlyphClass: 2
Flags: W
AnchorPoint: "Anchor-1" 0 0 basechar 0
AnchorPoint: "Anchor-0" 284 458 basechar 0
LayerCount: 2
Fore
SplineSet
696 1488 m 1,0,-1
 625 958 l 1,1,-1
 614 797 l 1,2,-1
 516 786 l 1,3,-1
 563 1146 l 1,4,-1
 560 1139 l 1,5,-1
 548 1139 l 1,6,7
 424 912 424 912 289 786 c 1,8,-1
 269 786 l 1,9,10
 237 801 237 801 215 820.5 c 128,-1,11
 193 840 193 840 179.5 867.5 c 128,-1,12
 166 895 166 895 160.5 929.5 c 128,-1,13
 155 964 155 964 155 1011 c 0,14,15
 155 1062 155 1062 162 1110 c 128,-1,16
 169 1158 169 1158 184 1203 c 128,-1,17
 199 1248 199 1248 220.5 1288 c 128,-1,18
 242 1328 242 1328 271.5 1362 c 128,-1,19
 301 1396 301 1396 336 1422 c 128,-1,20
 371 1448 371 1448 415 1466 c 128,-1,21
 459 1484 459 1484 507 1490 c 1,22,-1
 514 1490 l 1,23,-1
 623 1477 l 1,24,-1
 683 1497 l 1,25,-1
 696 1488 l 1,0,-1
296 879 m 0,26,27
 304 879 304 879 323 896 c 128,-1,28
 342 913 342 913 370.5 948.5 c 128,-1,29
 399 984 399 984 431.5 1031.5 c 128,-1,30
 464 1079 464 1079 504 1147 c 128,-1,31
 544 1215 544 1215 581 1289 c 1,32,-1
 585 1336 l 1,33,-1
 592 1405 l 1,34,-1
 497 1418 l 1,35,36
 420 1417 420 1417 361 1364.5 c 128,-1,37
 302 1312 302 1312 272.5 1228.5 c 128,-1,38
 243 1145 243 1145 243 1044 c 0,39,40
 243 1019 243 1019 245 996.5 c 128,-1,41
 247 974 247 974 250.5 957.5 c 128,-1,42
 254 941 254 941 258.5 927.5 c 128,-1,43
 263 914 263 914 267.5 905 c 128,-1,44
 272 896 272 896 277.5 890 c 128,-1,45
 283 884 283 884 287.5 881.5 c 128,-1,46
 292 879 292 879 296 879 c 0,26,27
EndSplineSet
EndChar

StartChar: guillemetleft
Encoding: 171 171 109
Width: 879
GlyphClass: 2
Flags: W
LayerCount: 2
Fore
SplineSet
97 510 m 1,0,-1
 102 541 l 1,1,-1
 497 928 l 1,2,-1
 550 894 l 1,3,-1
 548 875 l 1,4,-1
 192 519 l 1,5,-1
 463 164 l 1,6,-1
 459 146 l 1,7,-1
 398 111 l 1,8,-1
 97 510 l 1,0,-1
455 510 m 1,9,-1
 461 541 l 1,10,-1
 857 928 l 1,11,-1
 910 894 l 1,12,-1
 907 875 l 1,13,-1
 550 519 l 1,14,-1
 822 164 l 1,15,-1
 817 146 l 1,16,-1
 757 111 l 1,17,-1
 455 510 l 1,9,-1
EndSplineSet
EndChar

StartChar: logicalnot
Encoding: 172 172 110
Width: 1110
GlyphClass: 2
Flags: W
LayerCount: 2
Fore
SplineSet
985 647 m 1,0,-1
 925 153 l 1,1,-1
 852 146 l 1,2,-1
 840 155 l 1,3,-1
 890 576 l 1,4,-1
 90 576 l 1,5,-1
 84 588 l 1,6,-1
 99 662 l 1,7,-1
 974 662 l 1,8,-1
 985 647 l 1,0,-1
EndSplineSet
EndChar

StartChar: softhyphen
Encoding: 173 173 111
Width: 716
GlyphClass: 2
Flags: W
LayerCount: 2
Fore
SplineSet
662 660 m 1,0,-1
 653 583 l 1,1,-1
 81 507 l 1,2,-1
 69 519 l 1,3,-1
 79 594 l 1,4,-1
 650 671 l 1,5,-1
 662 660 l 1,0,-1
EndSplineSet
EndChar

StartChar: registered
Encoding: 174 174 112
Width: 1005
GlyphClass: 2
Flags: W
LayerCount: 2
Fore
SplineSet
504 1625 m 0,0,1
 597 1625 597 1625 674 1595 c 128,-1,2
 751 1565 751 1565 805 1511.5 c 128,-1,3
 859 1458 859 1458 889 1381 c 128,-1,4
 919 1304 919 1304 919 1212 c 0,5,6
 919 1025 919 1025 805 911 c 128,-1,7
 691 797 691 797 504 797 c 128,-1,8
 317 797 317 797 203.5 911 c 128,-1,9
 90 1025 90 1025 90 1212 c 0,10,11
 90 1398 90 1398 203.5 1511.5 c 128,-1,12
 317 1625 317 1625 504 1625 c 0,0,1
507 850 m 0,13,14
 669 850 669 850 768.5 949 c 128,-1,15
 868 1048 868 1048 868 1212 c 256,16,17
 868 1376 868 1376 768.5 1475 c 128,-1,18
 669 1574 669 1574 507 1574 c 0,19,20
 344 1574 344 1574 244 1475 c 128,-1,21
 144 1376 144 1376 144 1212 c 256,22,23
 144 1048 144 1048 243.5 949 c 128,-1,24
 343 850 343 850 507 850 c 0,13,14
658 1321 m 0,25,26
 658 1276 658 1276 634 1240 c 128,-1,27
 610 1204 610 1204 565 1183 c 1,28,29
 629 1088 629 1088 687 1018 c 1,30,-1
 685 1009 l 1,31,32
 673 1004 673 1004 623 998 c 1,33,-1
 616 1002 l 1,34,35
 576 1052 576 1052 507 1168 c 1,36,-1
 426 1168 l 1,37,-1
 426 1146 l 1,38,-1
 428 1005 l 1,39,-1
 364 1005 l 1,40,-1
 364 1451 l 1,41,-1
 514 1451 l 2,42,43
 658 1451 658 1451 658 1321 c 0,25,26
428 1224 m 1,44,-1
 514 1222 l 1,45,46
 592 1246 592 1246 592 1314 c 0,47,48
 592 1354 592 1354 567 1376 c 128,-1,49
 542 1398 542 1398 495 1400 c 1,50,-1
 431 1398 l 1,51,-1
 428 1224 l 1,44,-1
EndSplineSet
EndChar

StartChar: macron
Encoding: 175 175 113
Width: 901
GlyphClass: 2
Flags: W
LayerCount: 2
Fore
SplineSet
896 1426 m 1,0,-1
 888 1351 l 1,1,-1
 229 1351 l 1,2,-1
 220 1363 l 1,3,-1
 227 1435 l 1,4,-1
 886 1435 l 1,5,-1
 896 1426 l 1,0,-1
EndSplineSet
EndChar

StartChar: degree
Encoding: 176 176 114
Width: 680
GlyphClass: 2
Flags: W
LayerCount: 2
Fore
SplineSet
461 1493 m 0,0,1
 570 1493 570 1493 641.5 1420 c 128,-1,2
 713 1347 713 1347 713 1238 c 0,3,4
 713 1155 713 1155 668 1083 c 128,-1,5
 623 1011 623 1011 549 969.5 c 128,-1,6
 475 928 475 928 391 928 c 0,7,8
 317 928 317 928 258 961 c 128,-1,9
 199 994 199 994 166.5 1051.5 c 128,-1,10
 134 1109 134 1109 134 1180 c 0,11,12
 134 1264 134 1264 179.5 1336.5 c 128,-1,13
 225 1409 225 1409 300 1451 c 128,-1,14
 375 1493 375 1493 461 1493 c 0,0,1
451 1426 m 0,15,16
 354 1426 354 1426 278.5 1354.5 c 128,-1,17
 203 1283 203 1283 203 1190 c 0,18,19
 203 1137 203 1137 228.5 1092.5 c 128,-1,20
 254 1048 254 1048 299 1022 c 128,-1,21
 344 996 344 996 398 996 c 0,22,23
 493 996 493 996 568 1065.5 c 128,-1,24
 643 1135 643 1135 643 1228 c 0,25,26
 643 1310 643 1310 587.5 1368 c 128,-1,27
 532 1426 532 1426 451 1426 c 0,15,16
EndSplineSet
EndChar

StartChar: plusminus
Encoding: 177 177 115
Width: 1105
GlyphClass: 2
Flags: W
LayerCount: 2
Fore
SplineSet
664 1083 m 1,0,-1
 611 662 l 1,1,-1
 1029 662 l 1,2,-1
 1042 653 l 1,3,-1
 1023 576 l 1,4,-1
 599 576 l 1,5,-1
 548 153 l 1,6,-1
 472 146 l 1,7,-1
 463 155 l 1,8,-1
 514 576 l 1,9,-1
 95 576 l 1,10,-1
 86 588 l 1,11,-1
 102 662 l 1,12,-1
 525 662 l 1,13,-1
 579 1086 l 1,14,-1
 653 1095 l 1,15,-1
 664 1083 l 1,0,-1
947 -104 m 1,16,-1
 939 -179 l 1,17,-1
 9 -179 l 1,18,-1
 -2 -170 l 1,19,-1
 7 -95 l 1,20,-1
 935 -95 l 1,21,-1
 947 -104 l 1,16,-1
EndSplineSet
EndChar

StartChar: twosuperior
Encoding: 178 178 116
Width: 790
GlyphClass: 2
Flags: W
LayerCount: 2
Fore
SplineSet
499 1627 m 0,0,1
 592 1627 592 1627 652.5 1579 c 128,-1,2
 713 1531 713 1531 713 1455 c 0,3,4
 713 1418 713 1418 698.5 1380 c 128,-1,5
 684 1342 684 1342 647.5 1292.5 c 128,-1,6
 611 1243 611 1243 572 1198 c 128,-1,7
 533 1153 533 1153 461 1076 c 2,8,-1
 241 842 l 1,9,-1
 245 837 l 1,10,-1
 599 837 l 1,11,-1
 745 842 l 1,12,-1
 748 831 l 1,13,-1
 727 753 l 1,14,-1
 560 757 l 1,15,-1
 172 757 l 1,16,-1
 106 755 l 1,17,-1
 99 759 l 1,18,-1
 108 822 l 1,19,-1
 382 1106 l 2,20,21
 508 1238 508 1238 559.5 1307.5 c 128,-1,22
 611 1377 611 1377 611 1435 c 0,23,24
 611 1482 611 1482 577 1513 c 128,-1,25
 543 1544 543 1544 479 1544 c 0,26,27
 417 1544 417 1544 351 1511 c 128,-1,28
 285 1478 285 1478 227 1418 c 1,29,-1
 212 1418 l 1,30,-1
 206 1495 l 1,31,32
 349 1627 349 1627 499 1627 c 0,0,1
EndSplineSet
EndChar

StartChar: threesuperior
Encoding: 179 179 117
Width: 696
GlyphClass: 2
Flags: W
LayerCount: 2
Fore
SplineSet
444 1629 m 0,0,1
 539 1629 539 1629 601.5 1581 c 128,-1,2
 664 1533 664 1533 664 1455 c 0,3,4
 664 1388 664 1388 614.5 1325 c 128,-1,5
 565 1262 565 1262 479 1226 c 1,6,-1
 479 1222 l 1,7,8
 535 1207 535 1207 573 1181 c 128,-1,9
 611 1155 611 1155 630.5 1117.5 c 128,-1,10
 650 1080 650 1080 650 1032 c 0,11,12
 650 909 650 909 543 829.5 c 128,-1,13
 436 750 436 750 271 750 c 0,14,15
 190 750 190 750 125 766 c 1,16,-1
 128 837 l 1,17,-1
 134 842 l 1,18,19
 236 828 236 828 282 828 c 0,20,21
 363 828 363 828 425 852.5 c 128,-1,22
 487 877 487 877 521.5 922 c 128,-1,23
 556 967 556 967 556 1025 c 0,24,25
 556 1094 556 1094 504 1132 c 128,-1,26
 452 1170 452 1170 356 1173 c 1,27,-1
 271 1173 l 1,28,-1
 263 1180 l 1,29,-1
 276 1248 l 1,30,-1
 345 1248 l 1,31,32
 391 1249 391 1249 441 1273.5 c 128,-1,33
 491 1298 491 1298 527 1342.5 c 128,-1,34
 563 1387 563 1387 563 1437 c 0,35,36
 563 1489 563 1489 526.5 1518.5 c 128,-1,37
 490 1548 490 1548 428 1548 c 0,38,39
 338 1548 338 1548 225 1464 c 1,40,-1
 212 1464 l 1,41,-1
 206 1537 l 1,42,43
 272 1585 272 1585 327.5 1607 c 128,-1,44
 383 1629 383 1629 444 1629 c 0,0,1
EndSplineSet
EndChar

StartChar: acute
Encoding: 180 180 118
Width: 901
GlyphClass: 2
Flags: W
LayerCount: 2
Fore
SplineSet
720 1576 m 1,0,-1
 766 1518 l 1,1,-1
 762 1504 l 1,2,3
 618 1375 618 1375 400 1199 c 1,4,-1
 384 1201 l 1,5,-1
 347 1252 l 1,6,7
 537 1412 537 1412 706 1579 c 1,8,-1
 720 1576 l 1,0,-1
EndSplineSet
EndChar

StartChar: micro
Encoding: 181 181 119
Width: 1084
GlyphClass: 2
Flags: W
LayerCount: 2
Fore
SplineSet
958 1062 m 1,0,-1
 848 250 l 1,1,-1
 831 2 l 1,2,-1
 718 -9 l 1,3,-1
 797 570 l 1,4,-1
 780 570 l 1,5,6
 641 334 641 334 536.5 195.5 c 128,-1,7
 432 57 432 57 324 -18 c 1,8,-1
 298 -18 l 1,9,10
 257 -8 257 -8 227 18 c 1,11,-1
 199 -188 l 1,12,-1
 183 -437 l 1,13,-1
 69 -449 l 1,14,-1
 243 833 l 1,15,-1
 254 1051 l 1,16,-1
 366 1062 l 1,17,-1
 252 218 l 2,18,19
 248 182 248 182 257.5 155 c 128,-1,20
 267 128 267 128 283 116 c 128,-1,21
 299 104 299 104 318 104 c 0,22,23
 382 104 382 104 521.5 293 c 128,-1,24
 661 482 661 482 831 819 c 1,25,-1
 833 833 l 1,26,-1
 845 1051 l 1,27,-1
 958 1062 l 1,0,-1
EndSplineSet
EndChar

StartChar: paragraph
Encoding: 182 182 120
Width: 1078
GlyphClass: 2
Flags: W
LayerCount: 2
Fore
SplineSet
1122 1464 m 1,0,-1
 1102 1387 l 1,1,-1
 921 1387 l 1,2,-1
 799 405 l 1,3,-1
 784 289 l 1,4,5
 767 149 767 149 676.5 39.5 c 128,-1,6
 586 -70 586 -70 402 -166 c 1,7,-1
 373 -113 l 1,8,-1
 375 -97 l 1,9,10
 518 -12 518 -12 591 79 c 128,-1,11
 664 170 664 170 678 280 c 1,12,-1
 689 380 l 1,13,-1
 812 1387 l 1,14,-1
 662 1387 l 1,15,16
 543 1379 543 1379 457.5 1328.5 c 128,-1,17
 372 1278 372 1278 327 1191 c 128,-1,18
 282 1104 282 1104 282 988 c 0,19,20
 282 848 282 848 362.5 756 c 128,-1,21
 443 664 443 664 597 629 c 1,22,-1
 556 556 l 1,23,24
 368 591 368 591 267 698 c 128,-1,25
 166 805 166 805 166 976 c 0,26,27
 166 1210 166 1210 310.5 1344.5 c 128,-1,28
 455 1479 455 1479 709 1479 c 2,29,-1
 1111 1479 l 1,30,-1
 1122 1464 l 1,0,-1
EndSplineSet
EndChar

StartChar: periodcentered
Encoding: 183 183 121
Width: 532
GlyphClass: 2
Flags: W
LayerCount: 2
Fore
SplineSet
271 634 m 256,0,1
 306 634 306 634 324 614.5 c 128,-1,2
 342 595 342 595 342 560 c 0,3,4
 342 537 342 537 333.5 520 c 128,-1,5
 325 503 325 503 308.5 493.5 c 128,-1,6
 292 484 292 484 269 484 c 0,7,8
 234 484 234 484 214 503.5 c 128,-1,9
 194 523 194 523 194 558 c 128,-1,10
 194 593 194 593 215 613.5 c 128,-1,11
 236 634 236 634 271 634 c 256,0,1
EndSplineSet
EndChar

StartChar: cedilla
Encoding: 184 184 122
Width: 901
GlyphClass: 2
Flags: W
LayerCount: 2
Fore
SplineSet
345 -123 m 1,0,-1
 419 -170 l 1,1,2
 448 -187 448 -187 466 -205.5 c 128,-1,3
 484 -224 484 -224 493 -245 c 128,-1,4
 502 -266 502 -266 502 -292 c 0,5,6
 502 -353 502 -353 455.5 -390.5 c 128,-1,7
 409 -428 409 -428 340 -428 c 0,8,9
 249 -428 249 -428 188 -354 c 1,10,-1
 203 -289 l 1,11,-1
 215 -287 l 1,12,13
 242 -322 242 -322 269.5 -340 c 128,-1,14
 297 -358 297 -358 335.5 -358 c 128,-1,15
 374 -358 374 -358 396.5 -340 c 128,-1,16
 419 -322 419 -322 419 -289 c 0,17,18
 419 -267 419 -267 407 -252.5 c 128,-1,19
 395 -238 395 -238 368 -223 c 1,20,-1
 261 -155 l 1,21,-1
 318 35 l 1,22,-1
 393 35 l 1,23,-1
 345 -123 l 1,0,-1
EndSplineSet
EndChar

StartChar: onesuperior
Encoding: 185 185 123
Width: 575
GlyphClass: 2
Flags: W
LayerCount: 2
Fore
SplineSet
488 1620 m 1,0,-1
 417 1062 l 1,1,-1
 382 757 l 1,2,-1
 285 757 l 1,3,-1
 322 1049 l 1,4,-1
 380 1518 l 1,5,-1
 159 1462 l 1,6,-1
 150 1469 l 1,7,-1
 159 1544 l 1,8,-1
 477 1632 l 1,9,-1
 488 1620 l 1,0,-1
EndSplineSet
EndChar

StartChar: ordmasculine
Encoding: 186 186 124
Width: 667
GlyphClass: 2
Flags: W
LayerCount: 2
Fore
SplineSet
486 1495 m 1,0,-1
 497 1495 l 1,1,2
 552 1488 552 1488 588.5 1462 c 128,-1,3
 625 1436 625 1436 643.5 1388 c 128,-1,4
 662 1340 662 1340 662 1270 c 0,5,6
 662 1058 662 1058 573 925.5 c 128,-1,7
 484 793 484 793 331 784 c 1,8,-1
 320 784 l 1,9,10
 153 798 153 798 153 1016 c 0,11,12
 153 1153 153 1153 192.5 1259.5 c 128,-1,13
 232 1366 232 1366 308 1428.5 c 128,-1,14
 384 1491 384 1491 486 1495 c 1,0,-1
472 1420 m 0,15,16
 366 1420 366 1420 304.5 1308.5 c 128,-1,17
 243 1197 243 1197 243 1018 c 0,18,19
 243 933 243 933 267 895 c 128,-1,20
 291 857 291 857 345 857 c 0,21,22
 449 857 449 857 509.5 967.5 c 128,-1,23
 570 1078 570 1078 570 1261 c 0,24,25
 570 1343 570 1343 547 1381.5 c 128,-1,26
 524 1420 524 1420 472 1420 c 0,15,16
EndSplineSet
EndChar

StartChar: guillemetright
Encoding: 187 187 125
Width: 862
GlyphClass: 2
Flags: W
LayerCount: 2
Fore
SplineSet
431 530 m 1,0,-1
 426 497 l 1,1,-1
 31 111 l 1,2,-1
 -23 146 l 1,3,-1
 -20 164 l 1,4,-1
 336 521 l 1,5,-1
 64 875 l 1,6,-1
 69 894 l 1,7,-1
 130 928 l 1,8,-1
 431 530 l 1,0,-1
789 530 m 1,9,-1
 784 497 l 1,10,-1
 389 111 l 1,11,-1
 338 146 l 1,12,-1
 338 164 l 1,13,-1
 694 521 l 1,14,-1
 424 875 l 1,15,-1
 428 894 l 1,16,-1
 488 928 l 1,17,-1
 789 530 l 1,9,-1
EndSplineSet
EndChar

StartChar: onequarter
Encoding: 188 188 126
Width: 1568
GlyphClass: 2
Flags: W
LayerCount: 2
Fore
SplineSet
1377 1504 m 1,0,-1
 55 -208 l 1,1,-1
 11 -183 l 1,2,-1
 5 -157 l 1,3,-1
 1323 1557 l 1,4,-1
 1370 1530 l 1,5,-1
 1377 1504 l 1,0,-1
144 1321 m 1,6,-1
 134 1329 l 1,7,-1
 144 1402 l 1,8,-1
 461 1490 l 1,9,-1
 472 1479 l 1,10,-1
 400 921 l 1,11,-1
 366 616 l 1,12,-1
 269 616 l 1,13,-1
 305 907 l 1,14,-1
 364 1377 l 1,15,-1
 144 1321 l 1,6,-1
1458 324 m 1,16,-1
 1442 252 l 1,17,-1
 1307 257 l 1,18,-1
 1292 257 l 1,19,-1
 1266 7 l 1,20,-1
 1259 0 l 1,21,-1
 1180 -5 l 1,22,-1
 1175 0 l 1,23,-1
 1208 257 l 1,24,-1
 907 257 l 1,25,-1
 815 252 l 1,26,-1
 808 263 l 1,27,-1
 815 329 l 1,28,-1
 1277 863 l 1,29,-1
 1367 863 l 1,30,-1
 1301 333 l 1,31,-1
 1449 333 l 1,32,-1
 1458 324 l 1,16,-1
910 333 m 1,33,-1
 1217 333 l 1,34,-1
 1270 742 l 1,35,-1
 1261 742 l 1,36,-1
 910 333 l 1,33,-1
EndSplineSet
EndChar

StartChar: onehalf
Encoding: 189 189 127
Width: 1581
GlyphClass: 2
Flags: W
LayerCount: 2
Fore
SplineSet
1370 1530 m 1,0,-1
 1377 1504 l 1,1,-1
 55 -208 l 1,2,-1
 11 -183 l 1,3,-1
 5 -157 l 1,4,-1
 1323 1557 l 1,5,-1
 1370 1530 l 1,0,-1
472 1479 m 1,6,-1
 400 921 l 1,7,-1
 366 616 l 1,8,-1
 269 616 l 1,9,-1
 305 907 l 1,10,-1
 364 1377 l 1,11,-1
 144 1321 l 1,12,-1
 134 1329 l 1,13,-1
 144 1402 l 1,14,-1
 461 1490 l 1,15,-1
 472 1479 l 1,6,-1
1222 870 m 0,16,17
 1314 870 1314 870 1374.5 822 c 128,-1,18
 1435 774 1435 774 1435 698 c 0,19,20
 1435 668 1435 668 1424 636 c 128,-1,21
 1413 604 1413 604 1395.5 574 c 128,-1,22
 1378 544 1378 544 1342.5 500 c 128,-1,23
 1307 456 1307 456 1274 419 c 128,-1,24
 1241 382 1241 382 1183 320 c 2,25,-1
 963 86 l 1,26,-1
 967 81 l 1,27,-1
 1321 81 l 1,28,-1
 1467 86 l 1,29,-1
 1469 75 l 1,30,-1
 1449 -5 l 1,31,-1
 1283 0 l 1,32,-1
 894 0 l 1,33,-1
 828 -2 l 1,34,-1
 822 2 l 1,35,-1
 831 64 l 1,36,-1
 1104 349 l 2,37,38
 1168 416 1168 416 1203 455 c 128,-1,39
 1238 494 1238 494 1272 538 c 128,-1,40
 1306 582 1306 582 1319.5 614.5 c 128,-1,41
 1333 647 1333 647 1333 678 c 0,42,43
 1333 701 1333 701 1325 720.5 c 128,-1,44
 1317 740 1317 740 1300.5 755 c 128,-1,45
 1284 770 1284 770 1258.5 778 c 128,-1,46
 1233 786 1233 786 1201 786 c 0,47,48
 1138 786 1138 786 1072.5 754 c 128,-1,49
 1007 722 1007 722 949 662 c 1,50,-1
 935 662 l 1,51,-1
 928 738 l 1,52,53
 1071 870 1071 870 1222 870 c 0,16,17
EndSplineSet
EndChar

StartChar: threequarters
Encoding: 190 190 128
Width: 1649
GlyphClass: 2
Flags: W
LayerCount: 2
Fore
SplineSet
1458 1504 m 1,0,-1
 137 -208 l 1,1,-1
 93 -183 l 1,2,-1
 86 -157 l 1,3,-1
 1405 1557 l 1,4,-1
 1451 1530 l 1,5,-1
 1458 1504 l 1,0,-1
625 890 m 0,6,7
 625 768 625 768 518 688.5 c 128,-1,8
 411 609 411 609 245 609 c 0,9,10
 164 609 164 609 99 625 c 1,11,-1
 102 696 l 1,12,-1
 108 702 l 1,13,14
 219 687 219 687 257 687 c 0,15,16
 378 687 378 687 454 741.5 c 128,-1,17
 530 796 530 796 530 884 c 0,18,19
 530 953 530 953 478.5 990.5 c 128,-1,20
 427 1028 427 1028 331 1032 c 1,21,-1
 245 1032 l 1,22,-1
 238 1040 l 1,23,-1
 250 1106 l 1,24,-1
 320 1106 l 1,25,26
 354 1107 354 1107 392 1122 c 128,-1,27
 430 1137 430 1137 462 1161.5 c 128,-1,28
 494 1186 494 1186 515.5 1222 c 128,-1,29
 537 1258 537 1258 537 1296 c 0,30,31
 537 1347 537 1347 500.5 1377 c 128,-1,32
 464 1407 464 1407 402 1407 c 0,33,34
 312 1407 312 1407 199 1323 c 1,35,-1
 188 1323 l 1,36,-1
 181 1396 l 1,37,38
 225 1428 225 1428 262.5 1447.5 c 128,-1,39
 300 1467 300 1467 339 1477.5 c 128,-1,40
 378 1488 378 1488 419 1488 c 0,41,42
 514 1488 514 1488 576 1439.5 c 128,-1,43
 638 1391 638 1391 638 1314 c 0,44,45
 638 1247 638 1247 589 1184.5 c 128,-1,46
 540 1122 540 1122 453 1086 c 1,47,-1
 453 1080 l 1,48,49
 509 1066 509 1066 547 1040 c 128,-1,50
 585 1014 585 1014 605 976.5 c 128,-1,51
 625 939 625 939 625 890 c 0,6,7
1541 324 m 1,52,-1
 1526 252 l 1,53,-1
 1391 257 l 1,54,-1
 1375 257 l 1,55,-1
 1349 7 l 1,56,-1
 1342 0 l 1,57,-1
 1263 -5 l 1,58,-1
 1259 0 l 1,59,-1
 1292 257 l 1,60,-1
 991 257 l 1,61,-1
 898 252 l 1,62,-1
 890 263 l 1,63,-1
 898 329 l 1,64,-1
 1361 863 l 1,65,-1
 1451 863 l 1,66,-1
 1384 333 l 1,67,-1
 1532 333 l 1,68,-1
 1541 324 l 1,52,-1
993 333 m 1,69,-1
 1301 333 l 1,70,-1
 1354 742 l 1,71,-1
 1345 742 l 1,72,-1
 993 333 l 1,69,-1
EndSplineSet
EndChar

StartChar: questiondown
Encoding: 191 191 129
Width: 755
GlyphClass: 2
Flags: W
LayerCount: 2
Fore
SplineSet
486 921 m 0,0,1
 470 921 470 921 456.5 926.5 c 128,-1,2
 443 932 443 932 434 942 c 128,-1,3
 425 952 425 952 420 965.5 c 128,-1,4
 415 979 415 979 415 996 c 0,5,6
 415 1030 415 1030 435.5 1050.5 c 128,-1,7
 456 1071 456 1071 490 1071 c 256,8,9
 524 1071 524 1071 543.5 1051.5 c 128,-1,10
 563 1032 563 1032 563 998 c 256,11,12
 563 964 563 964 542.5 942.5 c 128,-1,13
 522 921 522 921 486 921 c 0,0,1
475 -449 m 1,14,-1
 453 -455 l 1,15,16
 293 -445 293 -445 179 -403 c 128,-1,17
 65 -361 65 -361 6 -291 c 128,-1,18
 -53 -221 -53 -221 -53 -128 c 0,19,20
 -53 -32 -53 -32 6 53.5 c 128,-1,21
 65 139 65 139 174 206 c 2,22,-1
 398 345 l 1,23,-1
 402 354 l 1,24,-1
 419 590 l 1,25,-1
 502 599 l 1,26,-1
 512 585 l 1,27,-1
 495 324 l 1,28,-1
 481 303 l 1,29,-1
 236 155 l 2,30,31
 149 103 149 103 101 37.5 c 128,-1,32
 53 -28 53 -28 53 -104 c 0,33,34
 53 -181 53 -181 102 -237 c 128,-1,35
 151 -293 151 -293 251 -327.5 c 128,-1,36
 351 -362 351 -362 497 -371 c 1,37,-1
 504 -384 l 1,38,-1
 475 -449 l 1,14,-1
EndSplineSet
EndChar

StartChar: Agrave
Encoding: 192 192 130
Width: 1239
GlyphClass: 2
Flags: W
AnchorPoint: "Anchor-1" 0 0 basechar 0
AnchorPoint: "Anchor-0" 750 1479 basechar 0
LayerCount: 2
Fore
SplineSet
1005 1683 m 1,0,-1
 988 1676 l 1,1,2
 695 1812 695 1812 563 1881 c 1,3,-1
 556 1897 l 1,4,-1
 588 1963 l 1,5,-1
 601 1967 l 1,6,7
 782 1862 782 1862 1027 1740 c 1,8,-1
 1005 1683 l 1,0,-1
1122 0 m 1,9,-1
 1007 0 l 1,10,-1
 993 123 l 1,11,-1
 925 451 l 1,12,-1
 597 453 l 1,13,-1
 298 451 l 1,14,-1
 141 128 l 1,15,-1
 90 0 l 1,16,-1
 -26 0 l 1,17,-1
 694 1479 l 1,18,-1
 822 1479 l 1,19,-1
 1122 0 l 1,9,-1
905 550 m 1,20,-1
 742 1347 l 1,21,-1
 733 1347 l 1,22,-1
 347 550 l 1,23,-1
 620 546 l 1,24,-1
 905 550 l 1,20,-1
EndSplineSet
Position2: "'cpsp' Capital Spacing lookup 0 subtable" dx=16 dy=0 dh=33 dv=0
EndChar

StartChar: Aacute
Encoding: 193 193 131
Width: 1239
GlyphClass: 2
Flags: W
AnchorPoint: "Anchor-1" 0 0 basechar 0
AnchorPoint: "Anchor-0" 750 1479 basechar 0
LayerCount: 2
Fore
SplineSet
605 1680 m 1,0,-1
 579 1738 l 1,1,2
 770 1828 770 1828 1005 1965 c 1,3,-1
 1020 1961 l 1,4,-1
 1051 1895 l 1,5,-1
 1046 1879 l 1,6,7
 866 1785 866 1785 620 1674 c 1,8,-1
 605 1680 l 1,0,-1
1122 0 m 1,9,-1
 1007 0 l 1,10,-1
 993 123 l 1,11,-1
 925 451 l 1,12,-1
 597 453 l 1,13,-1
 298 451 l 1,14,-1
 141 128 l 1,15,-1
 90 0 l 1,16,-1
 -26 0 l 1,17,-1
 694 1479 l 1,18,-1
 822 1479 l 1,19,-1
 1122 0 l 1,9,-1
905 550 m 1,20,-1
 742 1347 l 1,21,-1
 733 1347 l 1,22,-1
 347 550 l 1,23,-1
 620 546 l 1,24,-1
 905 550 l 1,20,-1
EndSplineSet
Position2: "'cpsp' Capital Spacing lookup 0 subtable" dx=16 dy=0 dh=33 dv=0
EndChar

StartChar: Acircumflex
Encoding: 194 194 132
Width: 1239
GlyphClass: 2
Flags: W
AnchorPoint: "Anchor-1" 0 0 basechar 0
AnchorPoint: "Anchor-0" 750 1479 basechar 0
LayerCount: 2
Fore
SplineSet
541 1701 m 1,0,-1
 521 1754 l 1,1,2
 639 1827 639 1827 789 1946 c 1,3,-1
 833 1946 l 1,4,5
 936 1850 936 1850 1062 1754 c 1,6,-1
 1029 1701 l 1,7,-1
 1014 1701 l 1,8,9
 916 1767 916 1767 806 1859 c 1,10,11
 674 1769 674 1769 558 1701 c 1,12,-1
 541 1701 l 1,0,-1
1122 0 m 1,13,-1
 1007 0 l 1,14,-1
 993 123 l 1,15,-1
 925 451 l 1,16,-1
 597 453 l 1,17,-1
 298 451 l 1,18,-1
 141 128 l 1,19,-1
 90 0 l 1,20,-1
 -26 0 l 1,21,-1
 694 1479 l 1,22,-1
 822 1479 l 1,23,-1
 1122 0 l 1,13,-1
905 550 m 1,24,-1
 742 1347 l 1,25,-1
 733 1347 l 1,26,-1
 347 550 l 1,27,-1
 620 546 l 1,28,-1
 905 550 l 1,24,-1
EndSplineSet
Position2: "'cpsp' Capital Spacing lookup 0 subtable" dx=16 dy=0 dh=33 dv=0
EndChar

StartChar: Atilde
Encoding: 195 195 133
Width: 1239
GlyphClass: 2
Flags: W
AnchorPoint: "Anchor-1" 0 0 basechar 0
AnchorPoint: "Anchor-0" 750 1479 basechar 0
LayerCount: 2
Fore
SplineSet
1135 1884 m 1,0,-1
 1135 1872 l 1,1,-1
 1005 1738 l 1,2,-1
 985 1731 l 1,3,4
 942 1737 942 1737 799 1778 c 128,-1,5
 656 1819 656 1819 625 1819 c 0,6,7
 616 1819 616 1819 606.5 1814.5 c 128,-1,8
 597 1810 597 1810 585 1799.5 c 128,-1,9
 573 1789 573 1789 562.5 1779 c 128,-1,10
 552 1769 552 1769 534 1750 c 128,-1,11
 516 1731 516 1731 502 1718 c 1,12,-1
 488 1718 l 1,13,-1
 449 1758 l 1,14,-1
 449 1773 l 1,15,-1
 581 1905 l 1,16,-1
 597 1912 l 1,17,18
 627 1908 627 1908 683.5 1893.5 c 128,-1,19
 740 1879 740 1879 790.5 1864.5 c 128,-1,20
 841 1850 841 1850 890 1838 c 128,-1,21
 939 1826 939 1826 958 1826 c 0,22,23
 967 1826 967 1826 976.5 1830.5 c 128,-1,24
 986 1835 986 1835 998 1845 c 128,-1,25
 1010 1855 1010 1855 1020.5 1865 c 128,-1,26
 1031 1875 1031 1875 1049.5 1893.5 c 128,-1,27
 1068 1912 1068 1912 1083 1926 c 1,28,-1
 1097 1926 l 1,29,-1
 1135 1884 l 1,0,-1
822 1479 m 1,30,-1
 1122 0 l 1,31,-1
 1007 0 l 1,32,-1
 993 123 l 1,33,-1
 925 451 l 1,34,-1
 597 453 l 1,35,-1
 298 451 l 1,36,-1
 141 128 l 1,37,-1
 90 0 l 1,38,-1
 -26 0 l 1,39,-1
 694 1479 l 1,40,-1
 822 1479 l 1,30,-1
905 550 m 1,41,-1
 742 1347 l 1,42,-1
 733 1347 l 1,43,-1
 347 550 l 1,44,-1
 620 546 l 1,45,-1
 905 550 l 1,41,-1
EndSplineSet
Position2: "'cpsp' Capital Spacing lookup 0 subtable" dx=16 dy=0 dh=33 dv=0
EndChar

StartChar: Adieresis
Encoding: 196 196 134
Width: 1239
GlyphClass: 2
Flags: W
AnchorPoint: "Anchor-1" 0 0 basechar 0
AnchorPoint: "Anchor-0" 750 1479 basechar 0
LayerCount: 2
Fore
SplineSet
614 1745 m 0,0,1
 592 1745 592 1745 575.5 1753 c 128,-1,2
 559 1761 559 1761 550 1777.5 c 128,-1,3
 541 1794 541 1794 541 1817 c 0,4,5
 541 1850 541 1850 561 1870 c 128,-1,6
 581 1890 581 1890 616 1890 c 0,7,8
 637 1890 637 1890 653 1881 c 128,-1,9
 669 1872 669 1872 677 1856 c 128,-1,10
 685 1840 685 1840 685 1819 c 0,11,12
 685 1785 685 1785 666 1765 c 128,-1,13
 647 1745 647 1745 614 1745 c 0,0,1
972 1742 m 0,14,15
 938 1742 938 1742 919.5 1761.5 c 128,-1,16
 901 1781 901 1781 901 1815 c 0,17,18
 901 1850 901 1850 920 1869 c 128,-1,19
 939 1888 939 1888 974 1888 c 0,20,21
 1006 1888 1006 1888 1025 1869.5 c 128,-1,22
 1044 1851 1044 1851 1044 1819 c 0,23,24
 1044 1785 1044 1785 1023.5 1763.5 c 128,-1,25
 1003 1742 1003 1742 972 1742 c 0,14,15
1122 0 m 1,26,-1
 1007 0 l 1,27,-1
 993 123 l 1,28,-1
 925 451 l 1,29,-1
 597 453 l 1,30,-1
 298 451 l 1,31,-1
 141 128 l 1,32,-1
 90 0 l 1,33,-1
 -26 0 l 1,34,-1
 694 1479 l 1,35,-1
 822 1479 l 1,36,-1
 1122 0 l 1,26,-1
905 550 m 1,37,-1
 742 1347 l 1,38,-1
 733 1347 l 1,39,-1
 347 550 l 1,40,-1
 620 546 l 1,41,-1
 905 550 l 1,37,-1
EndSplineSet
Position2: "'cpsp' Capital Spacing lookup 0 subtable" dx=16 dy=0 dh=33 dv=0
EndChar

StartChar: Aring
Encoding: 197 197 135
Width: 1239
GlyphClass: 2
Flags: W
AnchorPoint: "Anchor-1" 0 0 basechar 0
AnchorPoint: "Anchor-0" 750 1479 basechar 0
LayerCount: 2
Fore
SplineSet
789 1652 m 0,0,1
 754 1652 754 1652 722.5 1664 c 128,-1,2
 691 1676 691 1676 667.5 1698.5 c 128,-1,3
 644 1721 644 1721 630 1754.5 c 128,-1,4
 616 1788 616 1788 616 1828 c 0,5,6
 616 1906 616 1906 664.5 1955.5 c 128,-1,7
 713 2005 713 2005 793 2005 c 0,8,9
 876 2005 876 2005 923 1954.5 c 128,-1,10
 970 1904 970 1904 970 1831 c 0,11,12
 970 1749 970 1749 916.5 1700.5 c 128,-1,13
 863 1652 863 1652 789 1652 c 0,0,1
791 1937 m 0,14,15
 740 1937 740 1937 710 1907.5 c 128,-1,16
 680 1878 680 1878 680 1831 c 0,17,18
 680 1779 680 1779 711.5 1749.5 c 128,-1,19
 743 1720 743 1720 791 1720 c 0,20,21
 840 1720 840 1720 872.5 1748 c 128,-1,22
 905 1776 905 1776 905 1826 c 0,23,24
 905 1875 905 1875 875.5 1906 c 128,-1,25
 846 1937 846 1937 791 1937 c 0,14,15
1122 0 m 1,26,-1
 1007 0 l 1,27,-1
 993 123 l 1,28,-1
 925 451 l 1,29,-1
 597 453 l 1,30,-1
 298 451 l 1,31,-1
 141 128 l 1,32,-1
 90 0 l 1,33,-1
 -26 0 l 1,34,-1
 694 1479 l 1,35,-1
 822 1479 l 1,36,-1
 1122 0 l 1,26,-1
905 550 m 1,37,-1
 742 1347 l 1,38,-1
 733 1347 l 1,39,-1
 347 550 l 1,40,-1
 620 546 l 1,41,-1
 905 550 l 1,37,-1
EndSplineSet
Position2: "'cpsp' Capital Spacing lookup 0 subtable" dx=16 dy=0 dh=33 dv=0
EndChar

StartChar: AE
Encoding: 198 198 136
Width: 1746
GlyphClass: 2
Flags: W
AnchorPoint: "Anchor-1" 0 0 basechar 0
AnchorPoint: "Anchor-0" 1203 1479 basechar 0
LayerCount: 2
Fore
SplineSet
1650 88 m 1,0,-1
 1627 0 l 1,1,-1
 914 0 l 1,2,-1
 919 123 l 1,3,-1
 905 638 l 1,4,-1
 349 528 l 1,5,-1
 93 128 l 1,6,-1
 23 0 l 1,7,-1
 -97 0 l 1,8,-1
 859 1479 l 1,9,-1
 1597 1479 l 1,10,-1
 1606 1464 l 1,11,-1
 1581 1377 l 1,12,-1
 1224 1382 l 1,13,-1
 998 1382 l 1,14,-1
 1011 753 l 1,15,-1
 1518 850 l 1,16,-1
 1526 837 l 1,17,-1
 1518 755 l 1,18,-1
 1014 662 l 1,19,-1
 1025 95 l 1,20,-1
 1285 95 l 1,21,-1
 1643 102 l 1,22,-1
 1650 88 l 1,0,-1
905 731 m 1,23,-1
 888 1345 l 1,24,-1
 877 1345 l 1,25,-1
 421 636 l 1,26,-1
 905 731 l 1,23,-1
EndSplineSet
Position2: "'cpsp' Capital Spacing lookup 0 subtable" dx=16 dy=0 dh=33 dv=0
EndChar

StartChar: Ccedilla
Encoding: 199 199 137
Width: 1153
GlyphClass: 2
Flags: W
AnchorPoint: "Anchor-1" 666 0 basechar 0
AnchorPoint: "Anchor-0" 777 1479 basechar 0
LayerCount: 2
Fore
SplineSet
822 1490 m 0,0,1
 930 1490 930 1490 1026.5 1457.5 c 128,-1,2
 1123 1425 1123 1425 1197 1365 c 1,3,-1
 1157 1263 l 1,4,-1
 1141 1261 l 1,5,6
 1004 1391 1004 1391 810 1391 c 0,7,8
 537 1391 537 1391 385.5 1182.5 c 128,-1,9
 234 974 234 974 234 601 c 0,10,11
 234 351 234 351 335.5 218.5 c 128,-1,12
 437 86 437 86 629 86 c 0,13,14
 732 86 732 86 835.5 124 c 128,-1,15
 939 162 939 162 1032 234 c 1,16,-1
 1051 227 l 1,17,-1
 1027 120 l 1,18,19
 854 6 854 6 678 -11 c 1,20,-1
 643 -123 l 1,21,-1
 718 -170 l 2,22,23
 739 -183 739 -183 755 -196.5 c 128,-1,24
 771 -210 771 -210 781 -224.5 c 128,-1,25
 791 -239 791 -239 796 -255.5 c 128,-1,26
 801 -272 801 -272 801 -292 c 0,27,28
 801 -353 801 -353 754.5 -390.5 c 128,-1,29
 708 -428 708 -428 638 -428 c 0,30,31
 547 -428 547 -428 486 -354 c 1,32,-1
 502 -289 l 1,33,-1
 514 -287 l 1,34,35
 533 -310 533 -310 548 -324.5 c 128,-1,36
 563 -339 563 -339 585 -348.5 c 128,-1,37
 607 -358 607 -358 634 -358 c 0,38,39
 659 -358 659 -358 678 -350 c 128,-1,40
 697 -342 697 -342 707.5 -326.5 c 128,-1,41
 718 -311 718 -311 718 -289 c 0,42,43
 718 -274 718 -274 711 -261.5 c 128,-1,44
 704 -249 704 -249 694 -241 c 128,-1,45
 684 -233 684 -233 667 -223 c 2,46,-1
 560 -155 l 1,47,-1
 601 -14 l 1,48,49
 368 -8 368 -8 243 147 c 128,-1,50
 118 302 118 302 118 585 c 0,51,52
 118 866 118 866 201 1069.5 c 128,-1,53
 284 1273 284 1273 442.5 1381.5 c 128,-1,54
 601 1490 601 1490 822 1490 c 0,0,1
EndSplineSet
Position2: "'cpsp' Capital Spacing lookup 0 subtable" dx=16 dy=0 dh=33 dv=0
EndChar

StartChar: Egrave
Encoding: 200 200 138
Width: 1033
GlyphClass: 2
Flags: W
AnchorPoint: "Anchor-1" 598 0 basechar 0
AnchorPoint: "Anchor-0" 719 1479 basechar 0
LayerCount: 2
Fore
SplineSet
972 1683 m 1,0,-1
 956 1676 l 1,1,2
 654 1816 654 1816 530 1881 c 1,3,-1
 523 1897 l 1,4,-1
 556 1963 l 1,5,-1
 570 1967 l 1,6,7
 750 1862 750 1862 996 1740 c 1,8,-1
 972 1683 l 1,0,-1
449 1380 m 1,9,-1
 377 810 l 1,10,-1
 650 808 l 1,11,-1
 884 812 l 1,12,-1
 894 799 l 1,13,-1
 870 713 l 1,14,-1
 625 715 l 1,15,-1
 364 713 l 1,16,-1
 331 455 l 1,17,-1
 287 97 l 1,18,-1
 574 95 l 1,19,-1
 914 102 l 1,20,-1
 921 88 l 1,21,-1
 898 0 l 1,22,-1
 164 0 l 1,23,-1
 227 449 l 1,24,-1
 349 1479 l 1,25,-1
 1086 1479 l 1,26,-1
 1090 1464 l 1,27,-1
 1069 1377 l 1,28,-1
 742 1382 l 1,29,-1
 449 1380 l 1,9,-1
EndSplineSet
Position2: "'cpsp' Capital Spacing lookup 0 subtable" dx=16 dy=0 dh=33 dv=0
EndChar

StartChar: Eacute
Encoding: 201 201 139
Width: 1033
GlyphClass: 2
Flags: W
AnchorPoint: "Anchor-1" 598 0 basechar 0
AnchorPoint: "Anchor-0" 719 1479 basechar 0
LayerCount: 2
Fore
SplineSet
574 1680 m 1,0,-1
 548 1738 l 1,1,2
 740 1828 740 1828 974 1965 c 1,3,-1
 991 1961 l 1,4,-1
 1020 1895 l 1,5,-1
 1016 1879 l 1,6,7
 835 1785 835 1785 590 1674 c 1,8,-1
 574 1680 l 1,0,-1
449 1380 m 1,9,-1
 377 810 l 1,10,-1
 650 808 l 1,11,-1
 884 812 l 1,12,-1
 894 799 l 1,13,-1
 870 713 l 1,14,-1
 625 715 l 1,15,-1
 364 713 l 1,16,-1
 331 455 l 1,17,-1
 287 97 l 1,18,-1
 574 95 l 1,19,-1
 914 102 l 1,20,-1
 921 88 l 1,21,-1
 898 0 l 1,22,-1
 164 0 l 1,23,-1
 227 449 l 1,24,-1
 349 1479 l 1,25,-1
 1086 1479 l 1,26,-1
 1090 1464 l 1,27,-1
 1069 1377 l 1,28,-1
 742 1382 l 1,29,-1
 449 1380 l 1,9,-1
EndSplineSet
Position2: "'cpsp' Capital Spacing lookup 0 subtable" dx=16 dy=0 dh=33 dv=0
EndChar

StartChar: Ecircumflex
Encoding: 202 202 140
Width: 1033
GlyphClass: 2
Flags: W
AnchorPoint: "Anchor-1" 598 0 basechar 0
AnchorPoint: "Anchor-0" 719 1479 basechar 0
LayerCount: 2
Fore
SplineSet
512 1701 m 1,0,-1
 490 1754 l 1,1,2
 614 1830 614 1830 759 1946 c 1,3,-1
 803 1946 l 1,4,5
 911 1845 911 1845 1032 1754 c 1,6,-1
 1000 1701 l 1,7,-1
 983 1701 l 1,8,9
 886 1767 886 1767 775 1859 c 1,10,11
 643 1769 643 1769 528 1701 c 1,12,-1
 512 1701 l 1,0,-1
449 1380 m 1,13,-1
 377 810 l 1,14,-1
 650 808 l 1,15,-1
 884 812 l 1,16,-1
 894 799 l 1,17,-1
 870 713 l 1,18,-1
 625 715 l 1,19,-1
 364 713 l 1,20,-1
 331 455 l 1,21,-1
 287 97 l 1,22,-1
 574 95 l 1,23,-1
 914 102 l 1,24,-1
 921 88 l 1,25,-1
 898 0 l 1,26,-1
 164 0 l 1,27,-1
 227 449 l 1,28,-1
 349 1479 l 1,29,-1
 1086 1479 l 1,30,-1
 1090 1464 l 1,31,-1
 1069 1377 l 1,32,-1
 742 1382 l 1,33,-1
 449 1380 l 1,13,-1
EndSplineSet
Position2: "'cpsp' Capital Spacing lookup 0 subtable" dx=16 dy=0 dh=33 dv=0
EndChar

StartChar: Edieresis
Encoding: 203 203 141
Width: 1033
GlyphClass: 2
Flags: W
AnchorPoint: "Anchor-1" 598 0 basechar 0
AnchorPoint: "Anchor-0" 719 1479 basechar 0
LayerCount: 2
Fore
SplineSet
580.5 1745 m 128,-1,1
 547 1745 547 1745 528.5 1764 c 128,-1,2
 510 1783 510 1783 510 1817 c 256,3,4
 510 1851 510 1851 529.5 1870.5 c 128,-1,5
 549 1890 549 1890 583 1890 c 0,6,7
 616 1890 616 1890 634.5 1870.5 c 128,-1,8
 653 1851 653 1851 653 1819 c 0,9,10
 653 1785 653 1785 633.5 1765 c 128,-1,0
 614 1745 614 1745 580.5 1745 c 128,-1,1
939 1742 m 0,11,12
 922 1742 922 1742 908.5 1747.5 c 128,-1,13
 895 1753 895 1753 886 1762.5 c 128,-1,14
 877 1772 877 1772 872.5 1785 c 128,-1,15
 868 1798 868 1798 868 1815 c 0,16,17
 868 1838 868 1838 877 1854.5 c 128,-1,18
 886 1871 886 1871 902.5 1879.5 c 128,-1,19
 919 1888 919 1888 942 1888 c 0,20,21
 974 1888 974 1888 992.5 1869.5 c 128,-1,22
 1011 1851 1011 1851 1011 1819 c 0,23,24
 1011 1785 1011 1785 991 1763.5 c 128,-1,25
 971 1742 971 1742 939 1742 c 0,11,12
449 1380 m 1,26,-1
 377 810 l 1,27,-1
 650 808 l 1,28,-1
 884 812 l 1,29,-1
 894 799 l 1,30,-1
 870 713 l 1,31,-1
 625 715 l 1,32,-1
 364 713 l 1,33,-1
 331 455 l 1,34,-1
 287 97 l 1,35,-1
 574 95 l 1,36,-1
 914 102 l 1,37,-1
 921 88 l 1,38,-1
 898 0 l 1,39,-1
 164 0 l 1,40,-1
 227 449 l 1,41,-1
 349 1479 l 1,42,-1
 1086 1479 l 1,43,-1
 1090 1464 l 1,44,-1
 1069 1377 l 1,45,-1
 742 1382 l 1,46,-1
 449 1380 l 1,26,-1
EndSplineSet
Position2: "'cpsp' Capital Spacing lookup 0 subtable" dx=16 dy=0 dh=33 dv=0
EndChar

StartChar: Igrave
Encoding: 204 204 142
Width: 570
GlyphClass: 2
Flags: W
AnchorPoint: "Anchor-1" 0 0 basechar 0
AnchorPoint: "Anchor-0" 402 1479 basechar 0
LayerCount: 2
Fore
SplineSet
241 1963 m 1,0,-1
 254 1967 l 1,1,2
 435 1862 435 1862 680 1740 c 1,3,-1
 658 1683 l 1,4,-1
 641 1676 l 1,5,6
 339 1816 339 1816 215 1881 c 1,7,-1
 208 1897 l 1,8,-1
 241 1963 l 1,0,-1
329 455 m 1,9,-1
 276 0 l 1,10,-1
 164 0 l 1,11,-1
 227 449 l 1,12,-1
 349 1479 l 1,13,-1
 461 1479 l 1,14,-1
 329 455 l 1,9,-1
EndSplineSet
Position2: "'cpsp' Capital Spacing lookup 0 subtable" dx=16 dy=0 dh=33 dv=0
EndChar

StartChar: Iacute
Encoding: 205 205 143
Width: 570
GlyphClass: 2
Flags: W
AnchorPoint: "Anchor-1" 0 0 basechar 0
AnchorPoint: "Anchor-0" 402 1479 basechar 0
LayerCount: 2
Fore
SplineSet
673 1961 m 1,0,-1
 704 1895 l 1,1,-1
 698 1879 l 1,2,3
 509 1781 509 1781 273 1674 c 1,4,-1
 257 1680 l 1,5,-1
 232 1738 l 1,6,7
 423 1828 423 1828 658 1965 c 1,8,-1
 673 1961 l 1,0,-1
329 455 m 1,9,-1
 276 0 l 1,10,-1
 164 0 l 1,11,-1
 227 449 l 1,12,-1
 349 1479 l 1,13,-1
 461 1479 l 1,14,-1
 329 455 l 1,9,-1
EndSplineSet
Position2: "'cpsp' Capital Spacing lookup 0 subtable" dx=16 dy=0 dh=33 dv=0
EndChar

StartChar: Icircumflex
Encoding: 206 206 144
Width: 570
GlyphClass: 2
Flags: W
AnchorPoint: "Anchor-1" 0 0 basechar 0
AnchorPoint: "Anchor-0" 402 1479 basechar 0
LayerCount: 2
Fore
SplineSet
197 1701 m 1,0,-1
 176 1754 l 1,1,2
 295 1827 295 1827 444 1946 c 1,3,-1
 488 1946 l 1,4,5
 591 1850 591 1850 718 1754 c 1,6,-1
 685 1701 l 1,7,-1
 669 1701 l 1,8,9
 572 1767 572 1767 461 1859 c 1,10,11
 337 1774 337 1774 212 1701 c 1,12,-1
 197 1701 l 1,0,-1
329 455 m 1,13,-1
 276 0 l 1,14,-1
 164 0 l 1,15,-1
 227 449 l 1,16,-1
 349 1479 l 1,17,-1
 461 1479 l 1,18,-1
 329 455 l 1,13,-1
EndSplineSet
Position2: "'cpsp' Capital Spacing lookup 0 subtable" dx=16 dy=0 dh=33 dv=0
EndChar

StartChar: Idieresis
Encoding: 207 207 145
Width: 570
GlyphClass: 2
Flags: W
AnchorPoint: "Anchor-1" 0 0 basechar 0
AnchorPoint: "Anchor-0" 402 1479 basechar 0
LayerCount: 2
Fore
SplineSet
318 1888 m 0,0,1
 349 1888 349 1888 367.5 1869.5 c 128,-1,2
 386 1851 386 1851 386 1819 c 0,3,4
 386 1785 386 1785 365.5 1763.5 c 128,-1,5
 345 1742 345 1742 312 1742 c 256,6,7
 279 1742 279 1742 261 1761.5 c 128,-1,8
 243 1781 243 1781 243 1815 c 0,9,10
 243 1838 243 1838 252 1854.5 c 128,-1,11
 261 1871 261 1871 277.5 1879.5 c 128,-1,12
 294 1888 294 1888 318 1888 c 0,0,1
579 1888 m 0,13,14
 611 1888 611 1888 629 1869.5 c 128,-1,15
 647 1851 647 1851 647 1819 c 0,16,17
 647 1784 647 1784 628 1763 c 128,-1,18
 609 1742 609 1742 576 1742 c 256,19,20
 543 1742 543 1742 523.5 1762 c 128,-1,21
 504 1782 504 1782 504 1815 c 0,22,23
 504 1849 504 1849 524.5 1868.5 c 128,-1,24
 545 1888 545 1888 579 1888 c 0,13,14
329 455 m 1,25,-1
 276 0 l 1,26,-1
 164 0 l 1,27,-1
 227 449 l 1,28,-1
 349 1479 l 1,29,-1
 461 1479 l 1,30,-1
 329 455 l 1,25,-1
EndSplineSet
Ligature2: "'liga' Standard Ligatures lookup 30 subtable" dieresis I
Position2: "'cpsp' Capital Spacing lookup 0 subtable" dx=16 dy=0 dh=33 dv=0
EndChar

StartChar: Eth
Encoding: 208 208 146
Width: 1473
GlyphClass: 2
Flags: W
AnchorPoint: "Anchor-1" 0 0 basechar 0
AnchorPoint: "Anchor-0" 819 1479 basechar 0
LayerCount: 2
Fore
SplineSet
402 1479 m 1,0,-1
 870 1488 l 1,1,2
 1132 1488 1132 1488 1273 1338.5 c 128,-1,3
 1414 1189 1414 1189 1414 912 c 0,4,5
 1414 629 1414 629 1327 422 c 128,-1,6
 1240 215 1240 215 1069.5 102 c 128,-1,7
 899 -11 899 -11 660 -11 c 0,8,9
 489 -11 489 -11 218 0 c 1,10,-1
 215 0 l 1,11,-1
 278 449 l 1,12,-1
 310 713 l 1,13,-1
 77 713 l 1,14,-1
 71 724 l 1,15,-1
 81 799 l 1,16,-1
 320 799 l 1,17,-1
 402 1479 l 1,0,-1
680 84 m 0,18,19
 972 84 972 84 1134 297 c 128,-1,20
 1296 510 1296 510 1296 890 c 0,21,22
 1296 1136 1296 1136 1185 1263.5 c 128,-1,23
 1074 1391 1074 1391 859 1391 c 0,24,25
 680 1391 680 1391 499 1382 c 1,26,-1
 424 799 l 1,27,-1
 815 799 l 1,28,-1
 819 789 l 1,29,-1
 810 713 l 1,30,-1
 415 713 l 1,31,-1
 380 455 l 1,32,-1
 338 97 l 1,33,34
 546 84 546 84 680 84 c 0,18,19
EndSplineSet
Position2: "'cpsp' Capital Spacing lookup 0 subtable" dx=16 dy=0 dh=33 dv=0
EndChar

StartChar: Ntilde
Encoding: 209 209 147
Width: 1497
GlyphClass: 2
Flags: W
AnchorPoint: "Anchor-1" 684 0 basechar 0
AnchorPoint: "Anchor-0" 867 1479 basechar 0
LayerCount: 2
Fore
SplineSet
1250 1884 m 1,0,-1
 1250 1872 l 1,1,-1
 1120 1738 l 1,2,-1
 1102 1731 l 1,3,4
 1058 1737 1058 1737 914.5 1778 c 128,-1,5
 771 1819 771 1819 740 1819 c 0,6,7
 731 1819 731 1819 722 1814.5 c 128,-1,8
 713 1810 713 1810 701 1799.5 c 128,-1,9
 689 1789 689 1789 678.5 1778.5 c 128,-1,10
 668 1768 668 1768 650 1749.5 c 128,-1,11
 632 1731 632 1731 618 1718 c 1,12,-1
 605 1718 l 1,13,-1
 565 1758 l 1,14,-1
 565 1773 l 1,15,-1
 696 1905 l 1,16,-1
 713 1912 l 1,17,18
 751 1907 751 1907 830.5 1885.5 c 128,-1,19
 910 1864 910 1864 979.5 1845 c 128,-1,20
 1049 1826 1049 1826 1074 1826 c 0,21,22
 1082 1826 1082 1826 1091.5 1830.5 c 128,-1,23
 1101 1835 1101 1835 1113.5 1845 c 128,-1,24
 1126 1855 1126 1855 1136 1865 c 128,-1,25
 1146 1875 1146 1875 1165.5 1893.5 c 128,-1,26
 1185 1912 1185 1912 1199 1926 c 1,27,-1
 1212 1926 l 1,28,-1
 1250 1884 l 1,0,-1
1248 421 m 1,29,-1
 1199 0 l 1,30,-1
 1083 0 l 1,31,-1
 442 1289 l 1,32,-1
 431 1289 l 1,33,-1
 327 475 l 1,34,-1
 271 0 l 1,35,-1
 164 0 l 1,36,-1
 225 440 l 1,37,-1
 351 1479 l 1,38,-1
 466 1479 l 1,39,-1
 1106 190 l 1,40,-1
 1120 190 l 1,41,-1
 1283 1472 l 1,42,-1
 1389 1481 l 1,43,-1
 1248 421 l 1,29,-1
EndSplineSet
Position2: "'cpsp' Capital Spacing lookup 0 subtable" dx=16 dy=0 dh=33 dv=0
EndChar

StartChar: Ograve
Encoding: 210 210 148
Width: 1400
GlyphClass: 2
Flags: W
AnchorPoint: "Anchor-1" 0 0 basechar 0
AnchorPoint: "Anchor-0" 816 1479 basechar 0
LayerCount: 2
Fore
SplineSet
655 1963 m 1,0,-1
 669 1967 l 1,1,2
 850 1862 850 1862 1095 1740 c 1,3,-1
 1071 1683 l 1,4,-1
 1055 1676 l 1,5,6
 753 1816 753 1816 629 1881 c 1,7,-1
 623 1897 l 1,8,-1
 655 1963 l 1,0,-1
826 1493 m 0,9,10
 990 1493 990 1493 1106 1423.5 c 128,-1,11
 1222 1354 1222 1354 1281 1222.5 c 128,-1,12
 1340 1091 1340 1091 1340 905 c 0,13,14
 1340 622 1340 622 1257.5 415.5 c 128,-1,15
 1175 209 1175 209 1013.5 97.5 c 128,-1,16
 852 -14 852 -14 627 -14 c 0,17,18
 466 -14 466 -14 351.5 56.5 c 128,-1,19
 237 127 237 127 177.5 262.5 c 128,-1,20
 118 398 118 398 118 588 c 0,21,22
 118 869 118 869 200 1072 c 128,-1,23
 282 1275 282 1275 442 1384 c 128,-1,24
 602 1493 602 1493 826 1493 c 0,9,10
817 1396 m 0,25,26
 533 1396 533 1396 383.5 1186.5 c 128,-1,27
 234 977 234 977 234 597 c 0,28,29
 234 346 234 346 336.5 215 c 128,-1,30
 439 84 439 84 636 84 c 0,31,32
 825 84 825 84 957.5 180 c 128,-1,33
 1090 276 1090 276 1157 456 c 128,-1,34
 1224 636 1224 636 1224 888 c 0,35,36
 1224 1137 1224 1137 1121 1266.5 c 128,-1,37
 1018 1396 1018 1396 817 1396 c 0,25,26
EndSplineSet
Position2: "'cpsp' Capital Spacing lookup 0 subtable" dx=16 dy=0 dh=33 dv=0
EndChar

StartChar: Oacute
Encoding: 211 211 149
Width: 1400
GlyphClass: 2
Flags: W
AnchorPoint: "Anchor-1" 0 0 basechar 0
AnchorPoint: "Anchor-0" 816 1479 basechar 0
LayerCount: 2
Fore
SplineSet
1088 1961 m 1,0,-1
 1118 1895 l 1,1,-1
 1113 1879 l 1,2,3
 932 1785 932 1785 687 1674 c 1,4,-1
 671 1680 l 1,5,-1
 645 1738 l 1,6,7
 837 1828 837 1828 1071 1965 c 1,8,-1
 1088 1961 l 1,0,-1
826 1493 m 0,9,10
 990 1493 990 1493 1106 1423.5 c 128,-1,11
 1222 1354 1222 1354 1281 1222.5 c 128,-1,12
 1340 1091 1340 1091 1340 905 c 0,13,14
 1340 622 1340 622 1257.5 415.5 c 128,-1,15
 1175 209 1175 209 1013.5 97.5 c 128,-1,16
 852 -14 852 -14 627 -14 c 0,17,18
 466 -14 466 -14 351.5 56.5 c 128,-1,19
 237 127 237 127 177.5 262.5 c 128,-1,20
 118 398 118 398 118 588 c 0,21,22
 118 869 118 869 200 1072 c 128,-1,23
 282 1275 282 1275 442 1384 c 128,-1,24
 602 1493 602 1493 826 1493 c 0,9,10
817 1396 m 0,25,26
 533 1396 533 1396 383.5 1186.5 c 128,-1,27
 234 977 234 977 234 597 c 0,28,29
 234 346 234 346 336.5 215 c 128,-1,30
 439 84 439 84 636 84 c 0,31,32
 825 84 825 84 957.5 180 c 128,-1,33
 1090 276 1090 276 1157 456 c 128,-1,34
 1224 636 1224 636 1224 888 c 0,35,36
 1224 1137 1224 1137 1121 1266.5 c 128,-1,37
 1018 1396 1018 1396 817 1396 c 0,25,26
EndSplineSet
Position2: "'cpsp' Capital Spacing lookup 0 subtable" dx=16 dy=0 dh=33 dv=0
EndChar

StartChar: Ocircumflex
Encoding: 212 212 150
Width: 1400
GlyphClass: 2
Flags: W
AnchorPoint: "Anchor-1" 0 0 basechar 0
AnchorPoint: "Anchor-0" 816 1479 basechar 0
LayerCount: 2
Fore
SplineSet
611 1701 m 1,0,-1
 590 1754 l 1,1,2
 713 1830 713 1830 859 1946 c 1,3,-1
 903 1946 l 1,4,5
 1010 1845 1010 1845 1131 1754 c 1,6,-1
 1099 1701 l 1,7,-1
 1083 1701 l 1,8,9
 985 1767 985 1767 875 1859 c 1,10,11
 743 1769 743 1769 627 1701 c 1,12,-1
 611 1701 l 1,0,-1
826 1493 m 0,13,14
 990 1493 990 1493 1106 1423.5 c 128,-1,15
 1222 1354 1222 1354 1281 1222.5 c 128,-1,16
 1340 1091 1340 1091 1340 905 c 0,17,18
 1340 622 1340 622 1257.5 415.5 c 128,-1,19
 1175 209 1175 209 1013.5 97.5 c 128,-1,20
 852 -14 852 -14 627 -14 c 0,21,22
 466 -14 466 -14 351.5 56.5 c 128,-1,23
 237 127 237 127 177.5 262.5 c 128,-1,24
 118 398 118 398 118 588 c 0,25,26
 118 869 118 869 200 1072 c 128,-1,27
 282 1275 282 1275 442 1384 c 128,-1,28
 602 1493 602 1493 826 1493 c 0,13,14
817 1396 m 0,29,30
 533 1396 533 1396 383.5 1186.5 c 128,-1,31
 234 977 234 977 234 597 c 0,32,33
 234 346 234 346 336.5 215 c 128,-1,34
 439 84 439 84 636 84 c 0,35,36
 825 84 825 84 957.5 180 c 128,-1,37
 1090 276 1090 276 1157 456 c 128,-1,38
 1224 636 1224 636 1224 888 c 0,39,40
 1224 1137 1224 1137 1121 1266.5 c 128,-1,41
 1018 1396 1018 1396 817 1396 c 0,29,30
EndSplineSet
Position2: "'cpsp' Capital Spacing lookup 0 subtable" dx=16 dy=0 dh=33 dv=0
EndChar

StartChar: Otilde
Encoding: 213 213 151
Width: 1400
GlyphClass: 2
Flags: W
AnchorPoint: "Anchor-1" 0 0 basechar 0
AnchorPoint: "Anchor-0" 816 1479 basechar 0
LayerCount: 2
Fore
SplineSet
1201 1884 m 1,0,-1
 1201 1872 l 1,1,-1
 1071 1738 l 1,2,-1
 1053 1731 l 1,3,4
 1010 1737 1010 1737 866.5 1778 c 128,-1,5
 723 1819 723 1819 692 1819 c 0,6,7
 685 1819 685 1819 678.5 1816.5 c 128,-1,8
 672 1814 672 1814 664.5 1809 c 128,-1,9
 657 1804 657 1804 650 1797.5 c 128,-1,10
 643 1791 643 1791 633 1781.5 c 128,-1,11
 623 1772 623 1772 614.5 1763 c 128,-1,12
 606 1754 606 1754 593.5 1741 c 128,-1,13
 581 1728 581 1728 570 1718 c 1,14,-1
 556 1718 l 1,15,-1
 516 1758 l 1,16,-1
 516 1773 l 1,17,-1
 647 1905 l 1,18,-1
 664 1912 l 1,19,20
 710 1906 710 1906 852.5 1866 c 128,-1,21
 995 1826 995 1826 1025 1826 c 0,22,23
 1034 1826 1034 1826 1043.5 1830.5 c 128,-1,24
 1053 1835 1053 1835 1065 1845 c 128,-1,25
 1077 1855 1077 1855 1087.5 1865 c 128,-1,26
 1098 1875 1098 1875 1117 1893.5 c 128,-1,27
 1136 1912 1136 1912 1150 1926 c 1,28,-1
 1164 1926 l 1,29,-1
 1201 1884 l 1,0,-1
826 1493 m 0,30,31
 990 1493 990 1493 1106 1423.5 c 128,-1,32
 1222 1354 1222 1354 1281 1222.5 c 128,-1,33
 1340 1091 1340 1091 1340 905 c 0,34,35
 1340 622 1340 622 1257.5 415.5 c 128,-1,36
 1175 209 1175 209 1013.5 97.5 c 128,-1,37
 852 -14 852 -14 627 -14 c 0,38,39
 466 -14 466 -14 351.5 56.5 c 128,-1,40
 237 127 237 127 177.5 262.5 c 128,-1,41
 118 398 118 398 118 588 c 0,42,43
 118 869 118 869 200 1072 c 128,-1,44
 282 1275 282 1275 442 1384 c 128,-1,45
 602 1493 602 1493 826 1493 c 0,30,31
817 1396 m 0,46,47
 533 1396 533 1396 383.5 1186.5 c 128,-1,48
 234 977 234 977 234 597 c 0,49,50
 234 346 234 346 336.5 215 c 128,-1,51
 439 84 439 84 636 84 c 0,52,53
 825 84 825 84 957.5 180 c 128,-1,54
 1090 276 1090 276 1157 456 c 128,-1,55
 1224 636 1224 636 1224 888 c 0,56,57
 1224 1137 1224 1137 1121 1266.5 c 128,-1,58
 1018 1396 1018 1396 817 1396 c 0,46,47
EndSplineSet
Position2: "'cpsp' Capital Spacing lookup 0 subtable" dx=16 dy=0 dh=33 dv=0
EndChar

StartChar: Odieresis
Encoding: 214 214 152
Width: 1400
GlyphClass: 2
Flags: W
AnchorPoint: "Anchor-1" 0 0 basechar 0
AnchorPoint: "Anchor-0" 816 1479 basechar 0
LayerCount: 2
Fore
SplineSet
683 1890 m 0,0,1
 715 1890 715 1890 734 1870.5 c 128,-1,2
 753 1851 753 1851 753 1819 c 0,3,4
 753 1796 753 1796 744 1779.5 c 128,-1,5
 735 1763 735 1763 718.5 1754 c 128,-1,6
 702 1745 702 1745 680 1745 c 0,7,8
 647 1745 647 1745 628 1764 c 128,-1,9
 609 1783 609 1783 609 1817 c 0,10,11
 609 1834 609 1834 614 1847.5 c 128,-1,12
 619 1861 619 1861 628.5 1870.5 c 128,-1,13
 638 1880 638 1880 651.5 1885 c 128,-1,14
 665 1890 665 1890 683 1890 c 0,0,1
1042 1888 m 0,15,16
 1063 1888 1063 1888 1078.5 1879.5 c 128,-1,17
 1094 1871 1094 1871 1102.5 1855.5 c 128,-1,18
 1111 1840 1111 1840 1111 1819 c 0,19,20
 1111 1785 1111 1785 1091 1763.5 c 128,-1,21
 1071 1742 1071 1742 1040 1742 c 0,22,23
 1005 1742 1005 1742 986 1761.5 c 128,-1,24
 967 1781 967 1781 967 1815 c 0,25,26
 967 1838 967 1838 976 1854.5 c 128,-1,27
 985 1871 985 1871 1002 1879.5 c 128,-1,28
 1019 1888 1019 1888 1042 1888 c 0,15,16
826 1493 m 0,29,30
 990 1493 990 1493 1106 1423.5 c 128,-1,31
 1222 1354 1222 1354 1281 1222.5 c 128,-1,32
 1340 1091 1340 1091 1340 905 c 0,33,34
 1340 622 1340 622 1257.5 415.5 c 128,-1,35
 1175 209 1175 209 1013.5 97.5 c 128,-1,36
 852 -14 852 -14 627 -14 c 0,37,38
 466 -14 466 -14 351.5 56.5 c 128,-1,39
 237 127 237 127 177.5 262.5 c 128,-1,40
 118 398 118 398 118 588 c 0,41,42
 118 869 118 869 200 1072 c 128,-1,43
 282 1275 282 1275 442 1384 c 128,-1,44
 602 1493 602 1493 826 1493 c 0,29,30
817 1396 m 0,45,46
 533 1396 533 1396 383.5 1186.5 c 128,-1,47
 234 977 234 977 234 597 c 0,48,49
 234 346 234 346 336.5 215 c 128,-1,50
 439 84 439 84 636 84 c 0,51,52
 825 84 825 84 957.5 180 c 128,-1,53
 1090 276 1090 276 1157 456 c 128,-1,54
 1224 636 1224 636 1224 888 c 0,55,56
 1224 1137 1224 1137 1121 1266.5 c 128,-1,57
 1018 1396 1018 1396 817 1396 c 0,45,46
EndSplineSet
Ligature2: "'liga' Standard Ligatures lookup 30 subtable" dieresis O
Position2: "'cpsp' Capital Spacing lookup 0 subtable" dx=16 dy=0 dh=33 dv=0
EndChar

StartChar: multiply
Encoding: 215 215 153
Width: 1113
GlyphClass: 2
Flags: W
LayerCount: 2
Fore
SplineSet
965 932 m 1,0,-1
 963 916 l 1,1,-1
 629 620 l 1,2,-1
 888 322 l 1,3,-1
 886 307 l 1,4,-1
 824 259 l 1,5,-1
 560 558 l 1,6,-1
 223 259 l 1,7,-1
 172 307 l 1,8,-1
 172 322 l 1,9,-1
 510 620 l 1,10,-1
 245 916 l 1,11,-1
 247 932 l 1,12,-1
 310 981 l 1,13,-1
 574 680 l 1,14,-1
 912 981 l 1,15,-1
 965 932 l 1,0,-1
EndSplineSet
EndChar

StartChar: Oslash
Encoding: 216 216 154
Width: 1402
GlyphClass: 2
Flags: W
AnchorPoint: "Anchor-1" 0 0 basechar 0
AnchorPoint: "Anchor-0" 816 1479 basechar 0
LayerCount: 2
Fore
SplineSet
1283 1618 m 1,0,-1
 1153 1391 l 1,1,2
 1340 1240 1340 1240 1340 905 c 0,3,4
 1340 622 1340 622 1257.5 415.5 c 128,-1,5
 1175 209 1175 209 1013.5 97.5 c 128,-1,6
 852 -14 852 -14 627 -14 c 0,7,8
 493 -14 493 -14 386 37 c 1,9,-1
 243 -218 l 1,10,-1
 174 -194 l 1,11,-1
 170 -183 l 1,12,-1
 318 81 l 1,13,14
 252 130 252 130 207.5 203 c 128,-1,15
 163 276 163 276 140.5 373 c 128,-1,16
 118 470 118 470 118 588 c 0,17,18
 118 869 118 869 200 1072 c 128,-1,19
 282 1275 282 1275 442 1384 c 128,-1,20
 602 1493 602 1493 826 1493 c 0,21,22
 977 1493 977 1493 1083 1437 c 1,23,-1
 1208 1657 l 1,24,-1
 1277 1634 l 1,25,-1
 1283 1618 l 1,0,-1
234 597 m 0,26,27
 234 305 234 305 373 176 c 1,28,-1
 1032 1345 l 1,29,30
 939 1396 939 1396 817 1396 c 0,31,32
 533 1396 533 1396 383.5 1186.5 c 128,-1,33
 234 977 234 977 234 597 c 0,26,27
636 84 m 0,34,35
 825 84 825 84 957.5 180 c 128,-1,36
 1090 276 1090 276 1157 456 c 128,-1,37
 1224 636 1224 636 1224 888 c 0,38,39
 1224 1168 1224 1168 1097 1292 c 1,40,-1
 440 128 l 1,41,42
 522 84 522 84 636 84 c 0,34,35
EndSplineSet
Position2: "'cpsp' Capital Spacing lookup 0 subtable" dx=16 dy=0 dh=33 dv=0
EndChar

StartChar: Ugrave
Encoding: 217 217 155
Width: 1365
GlyphClass: 2
Flags: W
AnchorPoint: "Anchor-1" 0 0 basechar 0
AnchorPoint: "Anchor-0" 801 1479 basechar 0
LayerCount: 2
Fore
SplineSet
638 1963 m 1,0,-1
 653 1967 l 1,1,2
 840 1858 840 1858 1078 1740 c 1,3,-1
 1055 1683 l 1,4,-1
 1040 1676 l 1,5,6
 737 1816 737 1816 614 1881 c 1,7,-1
 607 1897 l 1,8,-1
 638 1963 l 1,0,-1
1208 724 m 1,9,-1
 1188 544 l 2,10,11
 1159 278 1159 278 1013.5 133.5 c 128,-1,12
 868 -11 868 -11 623 -11 c 0,13,14
 409 -11 409 -11 291.5 99 c 128,-1,15
 174 209 174 209 174 412 c 0,16,17
 174 478 174 478 183 537 c 2,18,-1
 212 745 l 1,19,-1
 303 1479 l 1,20,-1
 412 1479 l 1,21,-1
 289 546 l 2,22,23
 282 490 282 490 282 437 c 0,24,25
 282 266 282 266 370 177 c 128,-1,26
 458 88 458 88 627 88 c 0,27,28
 822 88 822 88 938.5 202.5 c 128,-1,29
 1055 317 1055 317 1083 537 c 1,30,-1
 1194 1479 l 1,31,-1
 1305 1479 l 1,32,-1
 1208 724 l 1,9,-1
EndSplineSet
Position2: "'cpsp' Capital Spacing lookup 0 subtable" dx=16 dy=0 dh=33 dv=0
EndChar

StartChar: Uacute
Encoding: 218 218 156
Width: 1365
GlyphClass: 2
Flags: W
AnchorPoint: "Anchor-1" 0 0 basechar 0
AnchorPoint: "Anchor-0" 801 1479 basechar 0
LayerCount: 2
Fore
SplineSet
1071 1961 m 1,0,-1
 1102 1895 l 1,1,-1
 1097 1879 l 1,2,3
 917 1785 917 1785 671 1674 c 1,4,-1
 655 1680 l 1,5,-1
 629 1738 l 1,6,7
 821 1828 821 1828 1055 1965 c 1,8,-1
 1071 1961 l 1,0,-1
1208 724 m 1,9,-1
 1188 544 l 2,10,11
 1159 278 1159 278 1013.5 133.5 c 128,-1,12
 868 -11 868 -11 623 -11 c 0,13,14
 409 -11 409 -11 291.5 99 c 128,-1,15
 174 209 174 209 174 412 c 0,16,17
 174 478 174 478 183 537 c 2,18,-1
 212 745 l 1,19,-1
 303 1479 l 1,20,-1
 412 1479 l 1,21,-1
 289 546 l 2,22,23
 282 490 282 490 282 437 c 0,24,25
 282 266 282 266 370 177 c 128,-1,26
 458 88 458 88 627 88 c 0,27,28
 822 88 822 88 938.5 202.5 c 128,-1,29
 1055 317 1055 317 1083 537 c 1,30,-1
 1194 1479 l 1,31,-1
 1305 1479 l 1,32,-1
 1208 724 l 1,9,-1
EndSplineSet
Position2: "'cpsp' Capital Spacing lookup 0 subtable" dx=16 dy=0 dh=33 dv=0
EndChar

StartChar: Ucircumflex
Encoding: 219 219 157
Width: 1365
GlyphClass: 2
Flags: W
AnchorPoint: "Anchor-1" 0 0 basechar 0
AnchorPoint: "Anchor-0" 801 1479 basechar 0
LayerCount: 2
Fore
SplineSet
592 1701 m 1,0,-1
 572 1754 l 1,1,2
 690 1827 690 1827 840 1946 c 1,3,-1
 884 1946 l 1,4,5
 986 1850 986 1850 1113 1754 c 1,6,-1
 1080 1701 l 1,7,-1
 1064 1701 l 1,8,9
 967 1767 967 1767 857 1859 c 1,10,11
 725 1769 725 1769 609 1701 c 1,12,-1
 592 1701 l 1,0,-1
1208 724 m 1,13,-1
 1188 544 l 2,14,15
 1159 278 1159 278 1013.5 133.5 c 128,-1,16
 868 -11 868 -11 623 -11 c 0,17,18
 409 -11 409 -11 291.5 99 c 128,-1,19
 174 209 174 209 174 412 c 0,20,21
 174 478 174 478 183 537 c 2,22,-1
 212 745 l 1,23,-1
 303 1479 l 1,24,-1
 412 1479 l 1,25,-1
 289 546 l 2,26,27
 282 490 282 490 282 437 c 0,28,29
 282 266 282 266 370 177 c 128,-1,30
 458 88 458 88 627 88 c 0,31,32
 822 88 822 88 938.5 202.5 c 128,-1,33
 1055 317 1055 317 1083 537 c 1,34,-1
 1194 1479 l 1,35,-1
 1305 1479 l 1,36,-1
 1208 724 l 1,13,-1
EndSplineSet
Position2: "'cpsp' Capital Spacing lookup 0 subtable" dx=16 dy=0 dh=33 dv=0
EndChar

StartChar: Udieresis
Encoding: 220 220 158
Width: 1365
GlyphClass: 2
Flags: W
AnchorPoint: "Anchor-1" 0 0 basechar 0
AnchorPoint: "Anchor-0" 801 1479 basechar 0
LayerCount: 2
Fore
SplineSet
667 1890 m 0,0,1
 699 1890 699 1890 717.5 1870.5 c 128,-1,2
 736 1851 736 1851 736 1819 c 0,3,4
 736 1802 736 1802 731 1788 c 128,-1,5
 726 1774 726 1774 716.5 1764.5 c 128,-1,6
 707 1755 707 1755 694 1750 c 128,-1,7
 681 1745 681 1745 664 1745 c 0,8,9
 642 1745 642 1745 626 1753 c 128,-1,10
 610 1761 610 1761 601 1777.5 c 128,-1,11
 592 1794 592 1794 592 1817 c 0,12,13
 592 1850 592 1850 612 1870 c 128,-1,14
 632 1890 632 1890 667 1890 c 0,0,1
1025 1888 m 0,15,16
 1040 1888 1040 1888 1053 1883 c 128,-1,17
 1066 1878 1066 1878 1075.5 1869.5 c 128,-1,18
 1085 1861 1085 1861 1090 1848 c 128,-1,19
 1095 1835 1095 1835 1095 1819 c 0,20,21
 1095 1797 1095 1797 1085.5 1779 c 128,-1,22
 1076 1761 1076 1761 1059.5 1751.5 c 128,-1,23
 1043 1742 1043 1742 1023 1742 c 0,24,25
 1006 1742 1006 1742 992.5 1747.5 c 128,-1,26
 979 1753 979 1753 970 1762.5 c 128,-1,27
 961 1772 961 1772 956 1785 c 128,-1,28
 951 1798 951 1798 951 1815 c 0,29,30
 951 1850 951 1850 970.5 1869 c 128,-1,31
 990 1888 990 1888 1025 1888 c 0,15,16
1208 724 m 1,32,-1
 1188 544 l 2,33,34
 1159 278 1159 278 1013.5 133.5 c 128,-1,35
 868 -11 868 -11 623 -11 c 0,36,37
 409 -11 409 -11 291.5 99 c 128,-1,38
 174 209 174 209 174 412 c 0,39,40
 174 478 174 478 183 537 c 2,41,-1
 212 745 l 1,42,-1
 303 1479 l 1,43,-1
 412 1479 l 1,44,-1
 289 546 l 2,45,46
 282 490 282 490 282 437 c 0,47,48
 282 266 282 266 370 177 c 128,-1,49
 458 88 458 88 627 88 c 0,50,51
 822 88 822 88 938.5 202.5 c 128,-1,52
 1055 317 1055 317 1083 537 c 1,53,-1
 1194 1479 l 1,54,-1
 1305 1479 l 1,55,-1
 1208 724 l 1,32,-1
EndSplineSet
Position2: "'cpsp' Capital Spacing lookup 0 subtable" dx=16 dy=0 dh=33 dv=0
EndChar

StartChar: Yacute
Encoding: 221 221 159
Width: 1124
GlyphClass: 2
Flags: W
AnchorPoint: "Anchor-1" 0 0 basechar 0
AnchorPoint: "Anchor-0" 680 1479 basechar 0
LayerCount: 2
Fore
SplineSet
534 1680 m 1,0,-1
 510 1738 l 1,1,2
 695 1825 695 1825 935 1965 c 1,3,-1
 951 1961 l 1,4,-1
 981 1895 l 1,5,-1
 976 1879 l 1,6,7
 796 1785 796 1785 550 1674 c 1,8,-1
 534 1680 l 1,0,-1
599 558 m 1,9,-1
 583 442 l 1,10,-1
 530 0 l 1,11,-1
 419 0 l 1,12,-1
 481 442 l 1,13,-1
 493 544 l 1,14,-1
 164 1479 l 1,15,-1
 285 1479 l 1,16,-1
 301 1407 l 1,17,-1
 553 685 l 1,18,-1
 570 685 l 1,19,-1
 1029 1405 l 1,20,-1
 1069 1479 l 1,21,-1
 1194 1479 l 1,22,-1
 599 558 l 1,9,-1
EndSplineSet
Ligature2: "'liga' Standard Ligatures lookup 30 subtable" acute Y
Position2: "'cpsp' Capital Spacing lookup 0 subtable" dx=16 dy=0 dh=33 dv=0
EndChar

StartChar: Thorn
Encoding: 222 222 160
Width: 1122
GlyphClass: 2
Flags: W
LayerCount: 2
Fore
SplineSet
428 1208 m 1,0,-1
 680 1210 l 1,1,2
 859 1210 859 1210 957 1117 c 128,-1,3
 1055 1024 1055 1024 1055 845 c 0,4,5
 1055 675 1055 675 989.5 547.5 c 128,-1,6
 924 420 924 420 796 349 c 128,-1,7
 668 278 668 278 493 278 c 2,8,-1
 310 278 l 1,9,-1
 278 0 l 1,10,-1
 166 0 l 1,11,-1
 227 449 l 1,12,-1
 351 1479 l 1,13,-1
 463 1479 l 1,14,-1
 428 1208 l 1,0,-1
322 377 m 1,15,-1
 581 373 l 1,16,17
 747 392 747 392 844.5 516 c 128,-1,18
 942 640 942 640 942 828 c 0,19,20
 942 1100 942 1100 667 1113 c 1,21,-1
 415 1109 l 1,22,-1
 331 455 l 1,23,-1
 322 377 l 1,15,-1
EndSplineSet
Position2: "'cpsp' Capital Spacing lookup 0 subtable" dx=16 dy=0 dh=33 dv=0
EndChar

StartChar: germandbls
Encoding: 223 223 161
Width: 1232
GlyphClass: 2
Flags: W
LayerCount: 2
Fore
SplineSet
782 819 m 0,0,1
 782 777 782 777 801 738.5 c 128,-1,2
 820 700 820 700 850 669 c 128,-1,3
 880 638 880 638 916.5 607 c 128,-1,4
 953 576 953 576 989.5 542.5 c 128,-1,5
 1026 509 1026 509 1056.5 473.5 c 128,-1,6
 1087 438 1087 438 1105.5 390.5 c 128,-1,7
 1124 343 1124 343 1124 289 c 0,8,9
 1124 160 1124 160 1020.5 73 c 128,-1,10
 917 -14 917 -14 757 -16 c 1,11,12
 630 0 630 0 537 62 c 1,13,-1
 560 162 l 1,14,-1
 579 172 l 1,15,16
 676 67 676 67 799 67 c 0,17,18
 895 67 895 67 959 127 c 128,-1,19
 1023 187 1023 187 1023 271 c 0,20,21
 1023 314 1023 314 1004 353 c 128,-1,22
 985 392 985 392 954.5 422.5 c 128,-1,23
 924 453 924 453 887.5 483.5 c 128,-1,24
 851 514 851 514 814.5 547 c 128,-1,25
 778 580 778 580 748 615.5 c 128,-1,26
 718 651 718 651 699 699 c 128,-1,27
 680 747 680 747 680 801 c 0,28,29
 680 857 680 857 697.5 905 c 128,-1,30
 715 953 715 953 743 988.5 c 128,-1,31
 771 1024 771 1024 804.5 1056 c 128,-1,32
 838 1088 838 1088 871.5 1119 c 128,-1,33
 905 1150 905 1150 933 1183 c 128,-1,34
 961 1216 961 1216 978.5 1259 c 128,-1,35
 996 1302 996 1302 996 1351 c 0,36,37
 996 1446 996 1446 935.5 1491.5 c 128,-1,38
 875 1537 875 1537 766 1537 c 0,39,40
 635 1537 635 1537 555.5 1467 c 128,-1,41
 476 1397 476 1397 459 1272 c 2,42,-1
 349 451 l 1,43,-1
 285 -44 l 1,44,-1
 269 -289 l 1,45,-1
 150 -303 l 1,46,-1
 250 440 l 1,47,-1
 318 958 l 1,48,-1
 157 958 l 1,49,-1
 146 970 l 1,50,-1
 159 1040 l 1,51,-1
 329 1040 l 1,52,-1
 356 1252 l 2,53,54
 379 1432 379 1432 488.5 1530.5 c 128,-1,55
 598 1629 598 1629 775 1629 c 0,56,57
 872 1629 872 1629 944 1600.5 c 128,-1,58
 1016 1572 1016 1572 1056.5 1511.5 c 128,-1,59
 1097 1451 1097 1451 1097 1365 c 0,60,61
 1097 1319 1097 1319 1086.5 1278 c 128,-1,62
 1076 1237 1076 1237 1057.5 1205.5 c 128,-1,63
 1039 1174 1039 1174 1015.5 1145 c 128,-1,64
 992 1116 992 1116 966 1091 c 128,-1,65
 940 1066 940 1066 913.5 1042 c 128,-1,66
 887 1018 887 1018 863.5 993.5 c 128,-1,67
 840 969 840 969 822 943 c 128,-1,68
 804 917 804 917 793 885.5 c 128,-1,69
 782 854 782 854 782 819 c 0,0,1
EndSplineSet
Substitution2: "Single Substitution lookup 41 subtable" germandbls.calt
Substitution2: "'case' Case-Sensitive Forms lookup 28 subtable" Germandbls
Substitution2: "'aalt' Access All Alternates lookup 0 subtable" Germandbls
EndChar

StartChar: agrave
Encoding: 224 224 162
Width: 996
GlyphClass: 2
Flags: W
AnchorPoint: "Anchor-1" 0 0 basechar 0
AnchorPoint: "Anchor-0" 578 1053 basechar 0
LayerCount: 2
Fore
SplineSet
768 1201 m 1,0,-1
 753 1199 l 1,1,2
 534 1375 534 1375 391 1504 c 1,3,-1
 389 1518 l 1,4,-1
 433 1576 l 1,5,-1
 449 1579 l 1,6,7
 611 1416 611 1416 806 1252 c 1,8,-1
 768 1201 l 1,0,-1
868 1060 m 1,9,-1
 759 250 l 1,10,-1
 742 2 l 1,11,-1
 625 -9 l 1,12,-1
 702 544 l 1,13,-1
 685 544 l 1,14,15
 490 192 490 192 271 -14 c 1,16,-1
 241 -14 l 1,17,18
 165 36 165 36 129 117 c 128,-1,19
 93 198 93 198 93 331 c 0,20,21
 93 439 93 439 114.5 540.5 c 128,-1,22
 136 642 136 642 180 732.5 c 128,-1,23
 224 823 224 823 286.5 893 c 128,-1,24
 349 963 349 963 436 1009 c 128,-1,25
 523 1055 523 1055 625 1067 c 1,26,-1
 636 1067 l 1,27,-1
 780 1032 l 1,28,-1
 852 1069 l 1,29,-1
 868 1060 l 1,9,-1
276 115 m 0,30,31
 288 115 288 115 318.5 142.5 c 128,-1,32
 349 170 349 170 396 227.5 c 128,-1,33
 443 285 443 285 496 361.5 c 128,-1,34
 549 438 549 438 612.5 550.5 c 128,-1,35
 676 663 676 663 733 786 c 1,36,-1
 740 833 l 1,37,-1
 748 939 l 1,38,-1
 611 972 l 1,39,40
 516 971 516 971 436.5 920.5 c 128,-1,41
 357 870 357 870 304.5 785.5 c 128,-1,42
 252 701 252 701 223 590.5 c 128,-1,43
 194 480 194 480 194 358 c 0,44,45
 194 305 194 305 200 261.5 c 128,-1,46
 206 218 206 218 215 191.5 c 128,-1,47
 224 165 224 165 235 147 c 128,-1,48
 246 129 246 129 256.5 122 c 128,-1,49
 267 115 267 115 276 115 c 0,30,31
EndSplineSet
Substitution2: "'case' Case-Sensitive Forms lookup 28 subtable" Agrave
Substitution2: "'aalt' Access All Alternates lookup 0 subtable" Agrave
EndChar

StartChar: aacute
Encoding: 225 225 163
Width: 996
GlyphClass: 2
Flags: W
AnchorPoint: "Anchor-1" 0 0 basechar 0
AnchorPoint: "Anchor-0" 578 1053 basechar 0
LayerCount: 2
Fore
SplineSet
451 1201 m 1,0,-1
 415 1252 l 1,1,2
 597 1406 597 1406 773 1579 c 1,3,-1
 786 1576 l 1,4,-1
 833 1518 l 1,5,-1
 828 1504 l 1,6,7
 675 1366 675 1366 468 1199 c 1,8,-1
 451 1201 l 1,0,-1
868 1060 m 1,9,-1
 759 250 l 1,10,-1
 742 2 l 1,11,-1
 625 -9 l 1,12,-1
 702 544 l 1,13,-1
 685 544 l 1,14,15
 490 192 490 192 271 -14 c 1,16,-1
 241 -14 l 1,17,18
 165 36 165 36 129 117 c 128,-1,19
 93 198 93 198 93 331 c 0,20,21
 93 439 93 439 114.5 540.5 c 128,-1,22
 136 642 136 642 180 732.5 c 128,-1,23
 224 823 224 823 286.5 893 c 128,-1,24
 349 963 349 963 436 1009 c 128,-1,25
 523 1055 523 1055 625 1067 c 1,26,-1
 636 1067 l 1,27,-1
 780 1032 l 1,28,-1
 852 1069 l 1,29,-1
 868 1060 l 1,9,-1
276 115 m 0,30,31
 288 115 288 115 318.5 142.5 c 128,-1,32
 349 170 349 170 396 227.5 c 128,-1,33
 443 285 443 285 496 361.5 c 128,-1,34
 549 438 549 438 612.5 550.5 c 128,-1,35
 676 663 676 663 733 786 c 1,36,-1
 740 833 l 1,37,-1
 748 939 l 1,38,-1
 611 972 l 1,39,40
 516 971 516 971 436.5 920.5 c 128,-1,41
 357 870 357 870 304.5 785.5 c 128,-1,42
 252 701 252 701 223 590.5 c 128,-1,43
 194 480 194 480 194 358 c 0,44,45
 194 305 194 305 200 261.5 c 128,-1,46
 206 218 206 218 215 191.5 c 128,-1,47
 224 165 224 165 235 147 c 128,-1,48
 246 129 246 129 256.5 122 c 128,-1,49
 267 115 267 115 276 115 c 0,30,31
EndSplineSet
Substitution2: "'case' Case-Sensitive Forms lookup 28 subtable" Aacute
Substitution2: "'aalt' Access All Alternates lookup 0 subtable" Aacute
EndChar

StartChar: acircumflex
Encoding: 226 226 164
Width: 996
GlyphClass: 2
Flags: W
AnchorPoint: "Anchor-1" 0 0 basechar 0
AnchorPoint: "Anchor-0" 578 1053 basechar 0
LayerCount: 2
Fore
SplineSet
366 1194 m 1,0,-1
 338 1243 l 1,1,2
 456 1355 456 1355 629 1544 c 1,3,-1
 676 1544 l 1,4,5
 786 1376 786 1376 896 1243 c 1,6,-1
 857 1194 l 1,7,-1
 840 1194 l 1,8,9
 737 1313 737 1313 643 1451 c 1,10,11
 491 1291 491 1291 382 1194 c 1,12,-1
 366 1194 l 1,0,-1
852 1069 m 1,13,-1
 868 1060 l 1,14,-1
 759 250 l 1,15,-1
 742 2 l 1,16,-1
 625 -9 l 1,17,-1
 702 544 l 1,18,-1
 685 544 l 1,19,20
 490 192 490 192 271 -14 c 1,21,-1
 241 -14 l 1,22,23
 165 36 165 36 129 117 c 128,-1,24
 93 198 93 198 93 331 c 0,25,26
 93 439 93 439 114.5 540.5 c 128,-1,27
 136 642 136 642 180 732.5 c 128,-1,28
 224 823 224 823 286.5 893 c 128,-1,29
 349 963 349 963 436 1009 c 128,-1,30
 523 1055 523 1055 625 1067 c 1,31,-1
 636 1067 l 1,32,-1
 780 1032 l 1,33,-1
 852 1069 l 1,13,-1
276 115 m 0,34,35
 288 115 288 115 318.5 142.5 c 128,-1,36
 349 170 349 170 396 227.5 c 128,-1,37
 443 285 443 285 496 361.5 c 128,-1,38
 549 438 549 438 612.5 550.5 c 128,-1,39
 676 663 676 663 733 786 c 1,40,-1
 740 833 l 1,41,-1
 748 939 l 1,42,-1
 611 972 l 1,43,44
 516 971 516 971 436.5 920.5 c 128,-1,45
 357 870 357 870 304.5 785.5 c 128,-1,46
 252 701 252 701 223 590.5 c 128,-1,47
 194 480 194 480 194 358 c 0,48,49
 194 305 194 305 200 261.5 c 128,-1,50
 206 218 206 218 215 191.5 c 128,-1,51
 224 165 224 165 235 147 c 128,-1,52
 246 129 246 129 256.5 122 c 128,-1,53
 267 115 267 115 276 115 c 0,34,35
EndSplineSet
Substitution2: "'case' Case-Sensitive Forms lookup 28 subtable" Acircumflex
Substitution2: "'aalt' Access All Alternates lookup 0 subtable" Acircumflex
EndChar

StartChar: atilde
Encoding: 227 227 165
Width: 996
GlyphClass: 2
Flags: W
AnchorPoint: "Anchor-1" 0 0 basechar 0
AnchorPoint: "Anchor-0" 578 1053 basechar 0
LayerCount: 2
Fore
SplineSet
960 1458 m 1,0,-1
 960 1446 l 1,1,-1
 831 1312 l 1,2,-1
 812 1305 l 1,3,4
 769 1311 769 1311 625.5 1352 c 128,-1,5
 482 1393 482 1393 451 1393 c 0,6,7
 443 1393 443 1393 435 1389.5 c 128,-1,8
 427 1386 427 1386 419 1380 c 128,-1,9
 411 1374 411 1374 400.5 1364 c 128,-1,10
 390 1354 390 1354 380.5 1344 c 128,-1,11
 371 1334 371 1334 356 1319 c 128,-1,12
 341 1304 341 1304 329 1292 c 1,13,-1
 315 1292 l 1,14,-1
 276 1333 l 1,15,-1
 276 1347 l 1,16,-1
 407 1479 l 1,17,-1
 424 1486 l 1,18,19
 469 1480 469 1480 612 1440 c 128,-1,20
 755 1400 755 1400 784 1400 c 0,21,22
 793 1400 793 1400 802.5 1404.5 c 128,-1,23
 812 1409 812 1409 824.5 1419 c 128,-1,24
 837 1429 837 1429 847 1439 c 128,-1,25
 857 1449 857 1449 876 1467.5 c 128,-1,26
 895 1486 895 1486 910 1500 c 1,27,-1
 923 1500 l 1,28,-1
 960 1458 l 1,0,-1
852 1069 m 1,29,-1
 868 1060 l 1,30,-1
 759 250 l 1,31,-1
 742 2 l 1,32,-1
 625 -9 l 1,33,-1
 702 544 l 1,34,-1
 685 544 l 1,35,36
 490 192 490 192 271 -14 c 1,37,-1
 241 -14 l 1,38,39
 165 36 165 36 129 117 c 128,-1,40
 93 198 93 198 93 331 c 0,41,42
 93 439 93 439 114.5 540.5 c 128,-1,43
 136 642 136 642 180 732.5 c 128,-1,44
 224 823 224 823 286.5 893 c 128,-1,45
 349 963 349 963 436 1009 c 128,-1,46
 523 1055 523 1055 625 1067 c 1,47,-1
 636 1067 l 1,48,-1
 780 1032 l 1,49,-1
 852 1069 l 1,29,-1
276 115 m 0,50,51
 288 115 288 115 318.5 142.5 c 128,-1,52
 349 170 349 170 396 227.5 c 128,-1,53
 443 285 443 285 496 361.5 c 128,-1,54
 549 438 549 438 612.5 550.5 c 128,-1,55
 676 663 676 663 733 786 c 1,56,-1
 740 833 l 1,57,-1
 748 939 l 1,58,-1
 611 972 l 1,59,60
 516 971 516 971 436.5 920.5 c 128,-1,61
 357 870 357 870 304.5 785.5 c 128,-1,62
 252 701 252 701 223 590.5 c 128,-1,63
 194 480 194 480 194 358 c 0,64,65
 194 305 194 305 200 261.5 c 128,-1,66
 206 218 206 218 215 191.5 c 128,-1,67
 224 165 224 165 235 147 c 128,-1,68
 246 129 246 129 256.5 122 c 128,-1,69
 267 115 267 115 276 115 c 0,50,51
EndSplineSet
Substitution2: "'case' Case-Sensitive Forms lookup 28 subtable" Atilde
Substitution2: "'aalt' Access All Alternates lookup 0 subtable" Atilde
EndChar

StartChar: adieresis
Encoding: 228 228 166
Width: 996
GlyphClass: 2
Flags: W
AnchorPoint: "Anchor-1" 0 0 basechar 0
AnchorPoint: "Anchor-0" 578 1053 basechar 0
LayerCount: 2
Fore
SplineSet
439.5 1319 m 128,-1,1
 406 1319 406 1319 387 1338 c 128,-1,2
 368 1357 368 1357 368 1391 c 0,3,4
 368 1424 368 1424 387.5 1444 c 128,-1,5
 407 1464 407 1464 442 1464 c 0,6,7
 463 1464 463 1464 479 1455 c 128,-1,8
 495 1446 495 1446 503.5 1430 c 128,-1,9
 512 1414 512 1414 512 1393 c 0,10,11
 512 1359 512 1359 492.5 1339 c 128,-1,0
 473 1319 473 1319 439.5 1319 c 128,-1,1
799 1316 m 0,12,13
 765 1316 765 1316 746 1335.5 c 128,-1,14
 727 1355 727 1355 727 1389 c 0,15,16
 727 1412 727 1412 736 1428.5 c 128,-1,17
 745 1445 745 1445 761.5 1453.5 c 128,-1,18
 778 1462 778 1462 801 1462 c 0,19,20
 817 1462 817 1462 829.5 1457 c 128,-1,21
 842 1452 842 1452 851 1443.5 c 128,-1,22
 860 1435 860 1435 865 1422 c 128,-1,23
 870 1409 870 1409 870 1393 c 0,24,25
 870 1359 870 1359 850 1337.5 c 128,-1,26
 830 1316 830 1316 799 1316 c 0,12,13
852 1069 m 1,27,-1
 868 1060 l 1,28,-1
 759 250 l 1,29,-1
 742 2 l 1,30,-1
 625 -9 l 1,31,-1
 702 544 l 1,32,-1
 685 544 l 1,33,34
 490 192 490 192 271 -14 c 1,35,-1
 241 -14 l 1,36,37
 165 36 165 36 129 117 c 128,-1,38
 93 198 93 198 93 331 c 0,39,40
 93 439 93 439 114.5 540.5 c 128,-1,41
 136 642 136 642 180 732.5 c 128,-1,42
 224 823 224 823 286.5 893 c 128,-1,43
 349 963 349 963 436 1009 c 128,-1,44
 523 1055 523 1055 625 1067 c 1,45,-1
 636 1067 l 1,46,-1
 780 1032 l 1,47,-1
 852 1069 l 1,27,-1
276 115 m 0,48,49
 288 115 288 115 318.5 142.5 c 128,-1,50
 349 170 349 170 396 227.5 c 128,-1,51
 443 285 443 285 496 361.5 c 128,-1,52
 549 438 549 438 612.5 550.5 c 128,-1,53
 676 663 676 663 733 786 c 1,54,-1
 740 833 l 1,55,-1
 748 939 l 1,56,-1
 611 972 l 1,57,58
 516 971 516 971 436.5 920.5 c 128,-1,59
 357 870 357 870 304.5 785.5 c 128,-1,60
 252 701 252 701 223 590.5 c 128,-1,61
 194 480 194 480 194 358 c 0,62,63
 194 305 194 305 200 261.5 c 128,-1,64
 206 218 206 218 215 191.5 c 128,-1,65
 224 165 224 165 235 147 c 128,-1,66
 246 129 246 129 256.5 122 c 128,-1,67
 267 115 267 115 276 115 c 0,48,49
EndSplineSet
Substitution2: "'case' Case-Sensitive Forms lookup 28 subtable" Adieresis
Substitution2: "'aalt' Access All Alternates lookup 0 subtable" Adieresis
EndChar

StartChar: aring
Encoding: 229 229 167
Width: 996
GlyphClass: 2
Flags: W
AnchorPoint: "Anchor-1" 0 0 basechar 0
AnchorPoint: "Anchor-0" 578 1053 basechar 0
LayerCount: 2
Fore
SplineSet
616 1226 m 0,0,1
 543 1226 543 1226 492.5 1274 c 128,-1,2
 442 1322 442 1322 442 1402 c 0,3,4
 442 1480 442 1480 491 1529.5 c 128,-1,5
 540 1579 540 1579 620 1579 c 0,6,7
 703 1579 703 1579 750 1528.5 c 128,-1,8
 797 1478 797 1478 797 1405 c 0,9,10
 797 1350 797 1350 771 1308.5 c 128,-1,11
 745 1267 745 1267 704.5 1246.5 c 128,-1,12
 664 1226 664 1226 616 1226 c 0,0,1
618 1511 m 0,13,14
 567 1511 567 1511 537 1481.5 c 128,-1,15
 507 1452 507 1452 507 1405 c 0,16,17
 507 1353 507 1353 538.5 1323.5 c 128,-1,18
 570 1294 570 1294 618 1294 c 0,19,20
 667 1294 667 1294 699 1322 c 128,-1,21
 731 1350 731 1350 731 1400 c 0,22,23
 731 1449 731 1449 702 1480 c 128,-1,24
 673 1511 673 1511 618 1511 c 0,13,14
868 1060 m 1,25,-1
 759 250 l 1,26,-1
 742 2 l 1,27,-1
 625 -9 l 1,28,-1
 702 544 l 1,29,-1
 685 544 l 1,30,31
 490 192 490 192 271 -14 c 1,32,-1
 241 -14 l 1,33,34
 165 36 165 36 129 117 c 128,-1,35
 93 198 93 198 93 331 c 0,36,37
 93 439 93 439 114.5 540.5 c 128,-1,38
 136 642 136 642 180 732.5 c 128,-1,39
 224 823 224 823 286.5 893 c 128,-1,40
 349 963 349 963 436 1009 c 128,-1,41
 523 1055 523 1055 625 1067 c 1,42,-1
 636 1067 l 1,43,-1
 780 1032 l 1,44,-1
 852 1069 l 1,45,-1
 868 1060 l 1,25,-1
276 115 m 0,46,47
 288 115 288 115 318.5 142.5 c 128,-1,48
 349 170 349 170 396 227.5 c 128,-1,49
 443 285 443 285 496 361.5 c 128,-1,50
 549 438 549 438 612.5 550.5 c 128,-1,51
 676 663 676 663 733 786 c 1,52,-1
 740 833 l 1,53,-1
 748 939 l 1,54,-1
 611 972 l 1,55,56
 516 971 516 971 436.5 920.5 c 128,-1,57
 357 870 357 870 304.5 785.5 c 128,-1,58
 252 701 252 701 223 590.5 c 128,-1,59
 194 480 194 480 194 358 c 0,60,61
 194 305 194 305 200 261.5 c 128,-1,62
 206 218 206 218 215 191.5 c 128,-1,63
 224 165 224 165 235 147 c 128,-1,64
 246 129 246 129 256.5 122 c 128,-1,65
 267 115 267 115 276 115 c 0,46,47
EndSplineSet
Substitution2: "'case' Case-Sensitive Forms lookup 28 subtable" Aring
Substitution2: "'aalt' Access All Alternates lookup 0 subtable" Aring
EndChar

StartChar: ae
Encoding: 230 230 168
Width: 1367
GlyphClass: 2
Flags: W
AnchorPoint: "Anchor-1" 1406 0 basechar 0
AnchorPoint: "Anchor-0" 812 1053 basechar 0
LayerCount: 2
Fore
SplineSet
653 1067 m 1,0,-1
 894 991 l 1,1,2
 988 1062 988 1062 1118 1069 c 1,3,-1
 1135 1067 l 2,4,5
 1227 1057 1227 1057 1274 1010.5 c 128,-1,6
 1321 964 1321 964 1321 884 c 0,7,8
 1321 613 1321 613 738 405 c 1,9,-1
 738 356 l 1,10,11
 740 216 740 216 781 151 c 128,-1,12
 822 86 822 86 903 86 c 0,13,14
 985 86 985 86 1063 146 c 128,-1,15
 1141 206 1141 206 1194 310 c 1,16,-1
 1217 310 l 1,17,-1
 1257 254 l 1,18,19
 1183 138 1183 138 1097.5 72 c 128,-1,20
 1012 6 1012 6 907 -14 c 1,21,-1
 881 -14 l 1,22,23
 746 1 746 1 689 90 c 128,-1,24
 632 179 632 179 632 351 c 0,25,26
 632 425 632 425 641 475 c 1,27,28
 477 175 477 175 285 -14 c 1,29,-1
 257 -14 l 1,30,31
 180 36 180 36 143 117 c 128,-1,32
 106 198 106 198 106 333 c 0,33,34
 106 440 106 440 128 541.5 c 128,-1,35
 150 643 150 643 194.5 733 c 128,-1,36
 239 823 239 823 302 893 c 128,-1,37
 365 963 365 963 452.5 1009 c 128,-1,38
 540 1055 540 1055 643 1067 c 1,39,-1
 653 1067 l 1,0,-1
1097 981 m 0,40,41
 964 981 964 981 865.5 846 c 128,-1,42
 767 711 767 711 742 495 c 1,43,44
 972 574 972 574 1094.5 673 c 128,-1,45
 1217 772 1217 772 1217 875 c 0,46,47
 1217 924 1217 924 1187.5 952.5 c 128,-1,48
 1158 981 1158 981 1097 981 c 0,40,41
812 912 m 1,49,-1
 627 972 l 1,50,51
 551 971 551 971 484 938.5 c 128,-1,52
 417 906 417 906 367.5 848.5 c 128,-1,53
 318 791 318 791 282 714.5 c 128,-1,54
 246 638 246 638 228 547.5 c 128,-1,55
 210 457 210 457 210 360 c 0,56,57
 210 315 210 315 214 276.5 c 128,-1,58
 218 238 218 238 224.5 212 c 128,-1,59
 231 186 231 186 239 166.5 c 128,-1,60
 247 147 247 147 256 136.5 c 128,-1,61
 265 126 265 126 273.5 120.5 c 128,-1,62
 282 115 282 115 289 115 c 0,63,64
 299 115 299 115 322 135.5 c 128,-1,65
 345 156 345 156 377 193 c 128,-1,66
 409 230 409 230 449.5 288.5 c 128,-1,67
 490 347 490 347 533 416 c 128,-1,68
 576 485 576 485 624 577 c 128,-1,69
 672 669 672 669 715 766 c 1,70,71
 762 861 762 861 812 912 c 1,49,-1
EndSplineSet
Substitution2: "'case' Case-Sensitive Forms lookup 28 subtable" AE
Substitution2: "'aalt' Access All Alternates lookup 0 subtable" AE
EndChar

StartChar: ccedilla
Encoding: 231 231 169
Width: 760
GlyphClass: 2
Flags: W
AnchorPoint: "Anchor-1" 381 0 basechar 0
AnchorPoint: "Anchor-0" 523 1053 basechar 0
LayerCount: 2
Fore
SplineSet
766 998 m 1,0,-1
 733 914 l 1,1,-1
 711 907 l 1,2,3
 632 974 632 974 558 974 c 0,4,5
 391 972 391 972 295 808 c 128,-1,6
 199 644 199 644 199 360 c 0,7,8
 199 214 199 214 236.5 150 c 128,-1,9
 274 86 274 86 351 86 c 0,10,11
 501 86 501 86 614 307 c 1,12,-1
 634 307 l 1,13,-1
 673 252 l 1,14,15
 610 142 610 142 543.5 83.5 c 128,-1,16
 477 25 477 25 393 -2 c 1,17,-1
 356 -123 l 1,18,-1
 431 -170 l 2,19,20
 452 -183 452 -183 467.5 -196.5 c 128,-1,21
 483 -210 483 -210 493.5 -224.5 c 128,-1,22
 504 -239 504 -239 509 -255.5 c 128,-1,23
 514 -272 514 -272 514 -292 c 0,24,25
 514 -353 514 -353 467.5 -390.5 c 128,-1,26
 421 -428 421 -428 351 -428 c 0,27,28
 260 -428 260 -428 199 -354 c 1,29,-1
 215 -289 l 1,30,-1
 227 -287 l 1,31,32
 246 -310 246 -310 261 -324.5 c 128,-1,33
 276 -339 276 -339 298 -348.5 c 128,-1,34
 320 -358 320 -358 347 -358 c 0,35,36
 386 -358 386 -358 408.5 -340 c 128,-1,37
 431 -322 431 -322 431 -289 c 0,38,39
 431 -267 431 -267 418.5 -252.5 c 128,-1,40
 406 -238 406 -238 380 -223 c 1,41,-1
 273 -155 l 1,42,-1
 315 -11 l 1,43,44
 280 -5 280 -5 252.5 4.5 c 128,-1,45
 225 14 225 14 199 31.5 c 128,-1,46
 173 49 173 49 154.5 75.5 c 128,-1,47
 136 102 136 102 122 139.5 c 128,-1,48
 108 177 108 177 101.5 229 c 128,-1,49
 95 281 95 281 95 347 c 0,50,51
 95 448 95 448 108.5 539 c 128,-1,52
 122 630 122 630 149.5 710.5 c 128,-1,53
 177 791 177 791 220 855.5 c 128,-1,54
 263 920 263 920 319.5 967 c 128,-1,55
 376 1014 376 1014 451 1039 c 128,-1,56
 526 1064 526 1064 614 1064 c 1,57,-1
 753 1018 l 1,58,-1
 766 998 l 1,0,-1
EndSplineSet
Substitution2: "'case' Case-Sensitive Forms lookup 28 subtable" Ccedilla
Substitution2: "'aalt' Access All Alternates lookup 0 subtable" Ccedilla
EndChar

StartChar: egrave
Encoding: 232 232 170
Width: 841
GlyphClass: 2
Flags: W
AnchorPoint: "Anchor-1" 375 0 basechar 0
AnchorPoint: "Anchor-0" 541 1053 basechar 0
LayerCount: 2
Fore
SplineSet
731 1201 m 1,0,-1
 715 1199 l 1,1,2
 497 1375 497 1375 354 1504 c 1,3,-1
 351 1518 l 1,4,-1
 396 1576 l 1,5,-1
 412 1579 l 1,6,7
 581 1410 581 1410 768 1252 c 1,8,-1
 731 1201 l 1,0,-1
678 310 m 1,9,-1
 718 254 l 1,10,11
 644 138 644 138 558.5 72 c 128,-1,12
 473 6 473 6 368 -14 c 1,13,-1
 342 -14 l 1,14,15
 213 0 213 0 154 88 c 128,-1,16
 95 176 95 176 95 345 c 0,17,18
 95 548 95 548 157 711.5 c 128,-1,19
 219 875 219 875 329.5 969 c 128,-1,20
 440 1063 440 1063 579 1069 c 1,21,-1
 594 1067 l 1,22,23
 640 1062 640 1062 675 1047.5 c 128,-1,24
 710 1033 710 1033 733 1010 c 128,-1,25
 756 987 756 987 768 955.5 c 128,-1,26
 780 924 780 924 780 884 c 0,27,28
 780 611 780 611 201 407 c 1,29,-1
 201 375 l 2,30,31
 201 224 201 224 241.5 155 c 128,-1,32
 282 86 282 86 366 86 c 0,33,34
 420 86 420 86 472.5 113.5 c 128,-1,35
 525 141 525 141 571.5 191 c 128,-1,36
 618 241 618 241 655 310 c 1,37,-1
 678 310 l 1,9,-1
558 981 m 0,38,39
 470 981 470 981 395.5 920 c 128,-1,40
 321 859 321 859 272 748.5 c 128,-1,41
 223 638 223 638 208 495 c 1,42,43
 435 574 435 574 556.5 672.5 c 128,-1,44
 678 771 678 771 678 875 c 0,45,46
 678 924 678 924 648.5 952.5 c 128,-1,47
 619 981 619 981 558 981 c 0,38,39
EndSplineSet
Substitution2: "'case' Case-Sensitive Forms lookup 28 subtable" Egrave
Substitution2: "'aalt' Access All Alternates lookup 0 subtable" Egrave
EndChar

StartChar: eacute
Encoding: 233 233 171
Width: 841
GlyphClass: 2
Flags: W
AnchorPoint: "Anchor-1" 375 0 basechar 0
AnchorPoint: "Anchor-0" 541 1053 basechar 0
LayerCount: 2
Fore
SplineSet
797 1518 m 1,0,-1
 791 1504 l 1,1,2
 638 1366 638 1366 431 1199 c 1,3,-1
 415 1201 l 1,4,-1
 377 1252 l 1,5,6
 560 1406 560 1406 736 1579 c 1,7,-1
 750 1576 l 1,8,-1
 797 1518 l 1,0,-1
780 884 m 0,9,10
 780 611 780 611 201 407 c 1,11,-1
 201 375 l 2,12,13
 201 224 201 224 241.5 155 c 128,-1,14
 282 86 282 86 366 86 c 0,15,16
 420 86 420 86 472.5 113.5 c 128,-1,17
 525 141 525 141 571.5 191 c 128,-1,18
 618 241 618 241 655 310 c 1,19,-1
 678 310 l 1,20,-1
 718 254 l 1,21,22
 644 138 644 138 558.5 72 c 128,-1,23
 473 6 473 6 368 -14 c 1,24,-1
 342 -14 l 1,25,26
 213 0 213 0 154 88 c 128,-1,27
 95 176 95 176 95 345 c 0,28,29
 95 548 95 548 157 711.5 c 128,-1,30
 219 875 219 875 329.5 969 c 128,-1,31
 440 1063 440 1063 579 1069 c 1,32,-1
 594 1067 l 1,33,34
 640 1062 640 1062 675 1047.5 c 128,-1,35
 710 1033 710 1033 733 1010 c 128,-1,36
 756 987 756 987 768 955.5 c 128,-1,37
 780 924 780 924 780 884 c 0,9,10
558 981 m 0,38,39
 470 981 470 981 395.5 920 c 128,-1,40
 321 859 321 859 272 748.5 c 128,-1,41
 223 638 223 638 208 495 c 1,42,43
 435 574 435 574 556.5 672.5 c 128,-1,44
 678 771 678 771 678 875 c 0,45,46
 678 924 678 924 648.5 952.5 c 128,-1,47
 619 981 619 981 558 981 c 0,38,39
EndSplineSet
Substitution2: "'case' Case-Sensitive Forms lookup 28 subtable" Eacute
Substitution2: "'aalt' Access All Alternates lookup 0 subtable" Eacute
EndChar

StartChar: ecircumflex
Encoding: 234 234 172
Width: 841
GlyphClass: 2
Flags: W
AnchorPoint: "Anchor-1" 375 0 basechar 0
AnchorPoint: "Anchor-0" 541 1053 basechar 0
LayerCount: 2
Fore
SplineSet
592 1544 m 1,0,-1
 638 1544 l 1,1,2
 749 1376 749 1376 859 1243 c 1,3,-1
 819 1194 l 1,4,-1
 803 1194 l 1,5,6
 701 1313 701 1313 607 1451 c 1,7,8
 461 1297 461 1297 345 1194 c 1,9,-1
 329 1194 l 1,10,-1
 301 1243 l 1,11,12
 418 1355 418 1355 592 1544 c 1,0,-1
780 884 m 0,13,14
 780 611 780 611 201 407 c 1,15,-1
 201 375 l 2,16,17
 201 224 201 224 241.5 155 c 128,-1,18
 282 86 282 86 366 86 c 0,19,20
 420 86 420 86 472.5 113.5 c 128,-1,21
 525 141 525 141 571.5 191 c 128,-1,22
 618 241 618 241 655 310 c 1,23,-1
 678 310 l 1,24,-1
 718 254 l 1,25,26
 644 138 644 138 558.5 72 c 128,-1,27
 473 6 473 6 368 -14 c 1,28,-1
 342 -14 l 1,29,30
 213 0 213 0 154 88 c 128,-1,31
 95 176 95 176 95 345 c 0,32,33
 95 548 95 548 157 711.5 c 128,-1,34
 219 875 219 875 329.5 969 c 128,-1,35
 440 1063 440 1063 579 1069 c 1,36,-1
 594 1067 l 1,37,38
 640 1062 640 1062 675 1047.5 c 128,-1,39
 710 1033 710 1033 733 1010 c 128,-1,40
 756 987 756 987 768 955.5 c 128,-1,41
 780 924 780 924 780 884 c 0,13,14
558 981 m 0,42,43
 470 981 470 981 395.5 920 c 128,-1,44
 321 859 321 859 272 748.5 c 128,-1,45
 223 638 223 638 208 495 c 1,46,47
 435 574 435 574 556.5 672.5 c 128,-1,48
 678 771 678 771 678 875 c 0,49,50
 678 924 678 924 648.5 952.5 c 128,-1,51
 619 981 619 981 558 981 c 0,42,43
EndSplineSet
Substitution2: "'case' Case-Sensitive Forms lookup 28 subtable" Ecircumflex
Substitution2: "'aalt' Access All Alternates lookup 0 subtable" Ecircumflex
EndChar

StartChar: edieresis
Encoding: 235 235 173
Width: 841
GlyphClass: 2
Flags: W
AnchorPoint: "Anchor-1" 375 0 basechar 0
AnchorPoint: "Anchor-0" 541 1053 basechar 0
LayerCount: 2
Fore
SplineSet
402 1319 m 128,-1,1
 369 1319 369 1319 350 1338 c 128,-1,2
 331 1357 331 1357 331 1391 c 0,3,4
 331 1424 331 1424 350.5 1444 c 128,-1,5
 370 1464 370 1464 405 1464 c 0,6,7
 426 1464 426 1464 442 1455 c 128,-1,8
 458 1446 458 1446 466.5 1430 c 128,-1,9
 475 1414 475 1414 475 1393 c 0,10,11
 475 1359 475 1359 455 1339 c 128,-1,0
 435 1319 435 1319 402 1319 c 128,-1,1
764 1462 m 0,12,13
 779 1462 779 1462 792 1457 c 128,-1,14
 805 1452 805 1452 814 1443.5 c 128,-1,15
 823 1435 823 1435 828 1422 c 128,-1,16
 833 1409 833 1409 833 1393 c 0,17,18
 833 1359 833 1359 813 1337.5 c 128,-1,19
 793 1316 793 1316 762 1316 c 0,20,21
 727 1316 727 1316 708 1335.5 c 128,-1,22
 689 1355 689 1355 689 1389 c 0,23,24
 689 1412 689 1412 698 1428.5 c 128,-1,25
 707 1445 707 1445 724 1453.5 c 128,-1,26
 741 1462 741 1462 764 1462 c 0,12,13
780 884 m 0,27,28
 780 611 780 611 201 407 c 1,29,-1
 201 375 l 2,30,31
 201 224 201 224 241.5 155 c 128,-1,32
 282 86 282 86 366 86 c 0,33,34
 420 86 420 86 472.5 113.5 c 128,-1,35
 525 141 525 141 571.5 191 c 128,-1,36
 618 241 618 241 655 310 c 1,37,-1
 678 310 l 1,38,-1
 718 254 l 1,39,40
 644 138 644 138 558.5 72 c 128,-1,41
 473 6 473 6 368 -14 c 1,42,-1
 342 -14 l 1,43,44
 213 0 213 0 154 88 c 128,-1,45
 95 176 95 176 95 345 c 0,46,47
 95 548 95 548 157 711.5 c 128,-1,48
 219 875 219 875 329.5 969 c 128,-1,49
 440 1063 440 1063 579 1069 c 1,50,-1
 594 1067 l 1,51,52
 640 1062 640 1062 675 1047.5 c 128,-1,53
 710 1033 710 1033 733 1010 c 128,-1,54
 756 987 756 987 768 955.5 c 128,-1,55
 780 924 780 924 780 884 c 0,27,28
558 981 m 0,56,57
 470 981 470 981 395.5 920 c 128,-1,58
 321 859 321 859 272 748.5 c 128,-1,59
 223 638 223 638 208 495 c 1,60,61
 435 574 435 574 556.5 672.5 c 128,-1,62
 678 771 678 771 678 875 c 0,63,64
 678 924 678 924 648.5 952.5 c 128,-1,65
 619 981 619 981 558 981 c 0,56,57
EndSplineSet
Substitution2: "'case' Case-Sensitive Forms lookup 28 subtable" Edieresis
Substitution2: "'aalt' Access All Alternates lookup 0 subtable" Edieresis
EndChar

StartChar: igrave
Encoding: 236 236 174
Width: 488
GlyphClass: 2
Flags: W
AnchorPoint: "Anchor-1" 0 0 basechar 0
AnchorPoint: "Anchor-0" 305 1053 basechar 0
LayerCount: 2
Fore
SplineSet
159 1576 m 1,0,-1
 176 1579 l 1,1,2
 345 1410 345 1410 532 1252 c 1,3,-1
 495 1201 l 1,4,-1
 479 1199 l 1,5,6
 261 1375 261 1375 118 1504 c 1,7,-1
 115 1518 l 1,8,-1
 159 1576 l 1,0,-1
254 250 m 1,9,-1
 241 2 l 1,10,-1
 120 -9 l 1,11,-1
 236 833 l 1,12,-1
 247 1051 l 1,13,-1
 364 1062 l 1,14,-1
 254 250 l 1,9,-1
EndSplineSet
Substitution2: "'case' Case-Sensitive Forms lookup 28 subtable" Igrave
Substitution2: "'aalt' Access All Alternates lookup 0 subtable" Igrave
EndChar

StartChar: iacute
Encoding: 237 237 175
Width: 488
GlyphClass: 2
Flags: W
AnchorPoint: "Anchor-1" 0 0 basechar 0
AnchorPoint: "Anchor-0" 305 1053 basechar 0
LayerCount: 2
Fore
SplineSet
516 1576 m 1,0,-1
 563 1518 l 1,1,-1
 558 1504 l 1,2,3
 415 1375 415 1375 197 1199 c 1,4,-1
 181 1201 l 1,5,-1
 144 1252 l 1,6,7
 326 1406 326 1406 502 1579 c 1,8,-1
 516 1576 l 1,0,-1
254 250 m 1,9,-1
 241 2 l 1,10,-1
 120 -9 l 1,11,-1
 236 833 l 1,12,-1
 247 1051 l 1,13,-1
 364 1062 l 1,14,-1
 254 250 l 1,9,-1
EndSplineSet
Substitution2: "'case' Case-Sensitive Forms lookup 28 subtable" Iacute
Substitution2: "'aalt' Access All Alternates lookup 0 subtable" Iacute
EndChar

StartChar: icircumflex
Encoding: 238 238 176
Width: 488
GlyphClass: 2
Flags: W
AnchorPoint: "Anchor-1" 0 0 basechar 0
AnchorPoint: "Anchor-0" 305 1053 basechar 0
LayerCount: 2
Fore
SplineSet
95 1194 m 1,0,-1
 67 1243 l 1,1,2
 184 1355 184 1355 358 1544 c 1,3,-1
 405 1544 l 1,4,5
 515 1376 515 1376 625 1243 c 1,6,-1
 585 1194 l 1,7,-1
 570 1194 l 1,8,9
 467 1313 467 1313 373 1451 c 1,10,11
 227 1297 227 1297 111 1194 c 1,12,-1
 95 1194 l 1,0,-1
254 250 m 1,13,-1
 241 2 l 1,14,-1
 120 -9 l 1,15,-1
 236 833 l 1,16,-1
 247 1051 l 1,17,-1
 364 1062 l 1,18,-1
 254 250 l 1,13,-1
EndSplineSet
Substitution2: "'case' Case-Sensitive Forms lookup 28 subtable" Icircumflex
Substitution2: "'aalt' Access All Alternates lookup 0 subtable" Icircumflex
EndChar

StartChar: idieresis
Encoding: 239 239 177
Width: 488
GlyphClass: 2
Flags: W
AnchorPoint: "Anchor-1" 0 0 basechar 0
AnchorPoint: "Anchor-0" 305 1053 basechar 0
LayerCount: 2
Fore
SplineSet
220 1462 m 0,0,1
 252 1462 252 1462 270.5 1443.5 c 128,-1,2
 289 1425 289 1425 289 1393 c 0,3,4
 289 1359 289 1359 268.5 1337.5 c 128,-1,5
 248 1316 248 1316 215 1316 c 256,6,7
 182 1316 182 1316 164 1335.5 c 128,-1,8
 146 1355 146 1355 146 1389 c 0,9,10
 146 1412 146 1412 155 1428.5 c 128,-1,11
 164 1445 164 1445 180.5 1453.5 c 128,-1,12
 197 1462 197 1462 220 1462 c 0,0,1
481 1462 m 256,13,14
 514 1462 514 1462 532 1443.5 c 128,-1,15
 550 1425 550 1425 550 1393 c 0,16,17
 550 1358 550 1358 531 1337 c 128,-1,18
 512 1316 512 1316 479 1316 c 256,19,20
 446 1316 446 1316 426.5 1336 c 128,-1,21
 407 1356 407 1356 407 1389 c 0,22,23
 407 1423 407 1423 427.5 1442.5 c 128,-1,24
 448 1462 448 1462 481 1462 c 256,13,14
254 250 m 1,25,-1
 241 2 l 1,26,-1
 120 -9 l 1,27,-1
 236 833 l 1,28,-1
 247 1051 l 1,29,-1
 364 1062 l 1,30,-1
 254 250 l 1,25,-1
EndSplineSet
Ligature2: "'liga' Standard Ligatures lookup 30 subtable" dieresis i
Substitution2: "'case' Case-Sensitive Forms lookup 28 subtable" Idieresis
Substitution2: "'aalt' Access All Alternates lookup 0 subtable" Idieresis
EndChar

StartChar: eth
Encoding: 240 240 178
Width: 994
GlyphClass: 2
Flags: W
LayerCount: 2
Fore
SplineSet
894 1479 m 1,0,-1
 645 1367 l 1,1,2
 871 1102 871 1102 868 733 c 1,3,4
 868 522 868 522 810 356.5 c 128,-1,5
 752 191 752 191 641.5 92.5 c 128,-1,6
 531 -6 531 -6 382 -16 c 1,7,-1
 366 -16 l 1,8,9
 242 0 242 0 182.5 82 c 128,-1,10
 123 164 123 164 123 329 c 0,11,12
 123 536 123 536 181 699.5 c 128,-1,13
 239 863 239 863 350.5 959.5 c 128,-1,14
 462 1056 462 1056 609 1060 c 1,15,-1
 625 1060 l 1,16,17
 667 1057 667 1057 713 1037 c 1,18,19
 662 1192 662 1192 544 1321 c 1,20,-1
 238 1183 l 1,21,-1
 227 1190 l 1,22,-1
 210 1252 l 1,23,-1
 486 1380 l 1,24,25
 369 1484 369 1484 203 1557 c 1,26,-1
 206 1574 l 1,27,-1
 276 1629 l 1,28,-1
 287 1629 l 1,29,30
 462 1550 462 1550 590 1426 c 1,31,-1
 863 1550 l 1,32,-1
 875 1544 l 1,33,-1
 894 1479 l 1,0,-1
391 75 m 0,34,35
 505 75 505 75 590 158 c 128,-1,36
 675 241 675 241 719.5 388 c 128,-1,37
 764 535 764 535 764 724 c 0,38,39
 764 808 764 808 755 870 c 1,40,41
 744 898 744 898 729.5 918 c 128,-1,42
 715 938 715 938 695.5 951 c 128,-1,43
 676 964 676 964 651.5 970 c 128,-1,44
 627 976 627 976 597 976 c 0,45,46
 483 976 483 976 398 893.5 c 128,-1,47
 313 811 313 811 269 665.5 c 128,-1,48
 225 520 225 520 225 331 c 0,49,50
 225 197 225 197 264 136 c 128,-1,51
 303 75 303 75 391 75 c 0,34,35
EndSplineSet
Substitution2: "'case' Case-Sensitive Forms lookup 28 subtable" Eth
Substitution2: "'aalt' Access All Alternates lookup 0 subtable" Eth
EndChar

StartChar: ntilde
Encoding: 241 241 179
Width: 1054
GlyphClass: 2
Flags: W
AnchorPoint: "Anchor-1" 472 0 basechar 0
AnchorPoint: "Anchor-0" 601 1053 basechar 0
LayerCount: 2
Fore
SplineSet
983 1458 m 1,0,-1
 983 1446 l 1,1,-1
 854 1312 l 1,2,-1
 835 1305 l 1,3,4
 805 1309 805 1309 749 1323.5 c 128,-1,5
 693 1338 693 1338 643 1353.5 c 128,-1,6
 593 1369 593 1369 544 1381 c 128,-1,7
 495 1393 495 1393 475 1393 c 0,8,9
 466 1393 466 1393 456.5 1388.5 c 128,-1,10
 447 1384 447 1384 435 1373.5 c 128,-1,11
 423 1363 423 1363 412.5 1353 c 128,-1,12
 402 1343 402 1343 383.5 1324 c 128,-1,13
 365 1305 365 1305 351 1292 c 1,14,-1
 338 1292 l 1,15,-1
 298 1333 l 1,16,-1
 298 1347 l 1,17,-1
 431 1479 l 1,18,-1
 446 1486 l 1,19,20
 492 1480 492 1480 635 1440 c 128,-1,21
 778 1400 778 1400 808 1400 c 0,22,23
 817 1400 817 1400 826 1404.5 c 128,-1,24
 835 1409 835 1409 847.5 1419 c 128,-1,25
 860 1429 860 1429 870 1439 c 128,-1,26
 880 1449 880 1449 899 1467.5 c 128,-1,27
 918 1486 918 1486 932 1500 c 1,28,-1
 947 1500 l 1,29,-1
 983 1458 l 1,0,-1
750 1071 m 1,30,-1
 775 1071 l 1,31,32
 843 1056 843 1056 885 1002.5 c 128,-1,33
 927 949 927 949 925 872 c 1,34,-1
 923 842 l 1,35,-1
 826 241 l 1,36,-1
 806 2 l 1,37,-1
 685 -9 l 1,38,-1
 817 808 l 1,39,-1
 819 840 l 1,40,41
 819 885 819 885 801 916 c 128,-1,42
 783 947 783 947 757 947 c 0,43,44
 693 947 693 947 556 762.5 c 128,-1,45
 419 578 419 578 254 252 c 1,46,-1
 254 250 l 1,47,-1
 238 2 l 1,48,-1
 120 -9 l 1,49,-1
 236 833 l 1,50,-1
 250 1051 l 1,51,-1
 366 1062 l 1,52,-1
 287 488 l 1,53,-1
 303 488 l 1,54,55
 432 714 432 714 537.5 854.5 c 128,-1,56
 643 995 643 995 750 1071 c 1,30,-1
EndSplineSet
Substitution2: "'case' Case-Sensitive Forms lookup 28 subtable" Ntilde
Substitution2: "'aalt' Access All Alternates lookup 0 subtable" Ntilde
EndChar

StartChar: ograve
Encoding: 242 242 180
Width: 934
GlyphClass: 2
Flags: W
AnchorPoint: "Anchor-1" 0 0 basechar 0
AnchorPoint: "Anchor-0" 548 1053 basechar 0
LayerCount: 2
Fore
SplineSet
402 1576 m 1,0,-1
 419 1579 l 1,1,2
 588 1410 588 1410 775 1252 c 1,3,-1
 738 1201 l 1,4,-1
 722 1199 l 1,5,6
 504 1375 504 1375 360 1504 c 1,7,-1
 358 1518 l 1,8,-1
 402 1576 l 1,0,-1
585 1069 m 1,9,-1
 601 1069 l 1,10,11
 722 1054 722 1054 779.5 972.5 c 128,-1,12
 837 891 837 891 837 733 c 0,13,14
 837 522 837 522 780 356.5 c 128,-1,15
 723 191 723 191 613 92.5 c 128,-1,16
 503 -6 503 -6 354 -16 c 1,17,-1
 338 -16 l 1,18,19
 215 0 215 0 156 82 c 128,-1,20
 97 164 97 164 97 329 c 0,21,22
 97 538 97 538 155.5 703.5 c 128,-1,23
 214 869 214 869 325.5 966 c 128,-1,24
 437 1063 437 1063 585 1069 c 1,9,-1
570 974 m 0,25,26
 457 974 457 974 373 891.5 c 128,-1,27
 289 809 289 809 245 664 c 128,-1,28
 201 519 201 519 201 331 c 0,29,30
 201 200 201 200 240.5 138.5 c 128,-1,31
 280 77 280 77 366 77 c 0,32,33
 477 77 477 77 560.5 160.5 c 128,-1,34
 644 244 644 244 687.5 390.5 c 128,-1,35
 731 537 731 537 731 724 c 0,36,37
 731 855 731 855 692.5 914.5 c 128,-1,38
 654 974 654 974 570 974 c 0,25,26
EndSplineSet
Substitution2: "'case' Case-Sensitive Forms lookup 28 subtable" Ograve
Substitution2: "'aalt' Access All Alternates lookup 0 subtable" Ograve
EndChar

StartChar: oacute
Encoding: 243 243 181
Width: 934
GlyphClass: 2
Flags: W
AnchorPoint: "Anchor-1" 0 0 basechar 0
AnchorPoint: "Anchor-0" 548 1053 basechar 0
LayerCount: 2
Fore
SplineSet
759 1576 m 1,0,-1
 806 1518 l 1,1,-1
 801 1504 l 1,2,3
 658 1375 658 1375 440 1199 c 1,4,-1
 424 1201 l 1,5,-1
 386 1252 l 1,6,7
 569 1406 569 1406 745 1579 c 1,8,-1
 759 1576 l 1,0,-1
585 1069 m 1,9,-1
 601 1069 l 1,10,11
 722 1054 722 1054 779.5 972.5 c 128,-1,12
 837 891 837 891 837 733 c 0,13,14
 837 522 837 522 780 356.5 c 128,-1,15
 723 191 723 191 613 92.5 c 128,-1,16
 503 -6 503 -6 354 -16 c 1,17,-1
 338 -16 l 1,18,19
 215 0 215 0 156 82 c 128,-1,20
 97 164 97 164 97 329 c 0,21,22
 97 538 97 538 155.5 703.5 c 128,-1,23
 214 869 214 869 325.5 966 c 128,-1,24
 437 1063 437 1063 585 1069 c 1,9,-1
570 974 m 0,25,26
 457 974 457 974 373 891.5 c 128,-1,27
 289 809 289 809 245 664 c 128,-1,28
 201 519 201 519 201 331 c 0,29,30
 201 200 201 200 240.5 138.5 c 128,-1,31
 280 77 280 77 366 77 c 0,32,33
 477 77 477 77 560.5 160.5 c 128,-1,34
 644 244 644 244 687.5 390.5 c 128,-1,35
 731 537 731 537 731 724 c 0,36,37
 731 855 731 855 692.5 914.5 c 128,-1,38
 654 974 654 974 570 974 c 0,25,26
EndSplineSet
Substitution2: "'case' Case-Sensitive Forms lookup 28 subtable" Oacute
Substitution2: "'aalt' Access All Alternates lookup 0 subtable" Oacute
EndChar

